<svg xmlns="http://www.w3.org/2000/svg" width="52" height="52" viewBox="0 0 52 52">
  <defs>
    <linearGradient id="darkBlueGradient" x1="0%" y1="0%" x2="100%" y2="0%">
      <stop offset="0%" style="stop-color:#1e3a5f;stop-opacity:1" />
      <stop offset="100%" style="stop-color:#2c4a6a;stop-opacity:1" />
    </linearGradient>
  </defs>
  
  <!-- Background with rounded rectangle (border-radius: 50%) -->
  <rect width="52" height="52" rx="26" ry="26" fill="url(#darkBlueGradient)"/>
  
  <!-- Person with lines icon - scaled and centered -->
  <g transform="translate(18, 18) scale(1)">
    <path d="M6 8a3 3 0 1 0 0-6 3 3 0 0 0 0 6m-5 6s-1 0-1-1 1-4 6-4 6 3 6 4-1 1-1 1zM11 3.5a.5.5 0 0 1 .5-.5h4a.5.5 0 0 1 0 1h-4a.5.5 0 0 1-.5-.5m.5 2.5a.5.5 0 0 0 0 1h4a.5.5 0 0 0 0-1zm2 3a.5.5 0 0 0 0 1h2a.5.5 0 0 0 0-1zm0 3a.5.5 0 0 0 0 1h2a.5.5 0 0 0 0-1z" 
          fill="white"/>
  </g>
</svg>