<?xml version="1.0" encoding="UTF-8"?>
<svg version="1.1" xmlns="http://www.w3.org/2000/svg" width="512" height="512">
<path d="M0 0 C5.15558109 1.16243197 10.17526668 2.6937949 15.21875 4.2578125 C16.72931219 4.71483988 18.24026429 5.17058019 19.75157166 5.62513733 C23.82552057 6.85400537 27.89426963 8.09931116 31.96223068 9.34783554 C36.22465585 10.65315724 40.49141996 11.94411937 44.75805664 13.2355957 C46.50631255 13.76493362 48.25455772 14.29430704 50.00279236 14.82371521 C50.87665022 15.08833494 51.75050808 15.35295467 52.65084648 15.62559319 C55.33474352 16.43915225 58.01802947 17.2547 60.70118713 18.07069397 C72.35823094 21.61317091 84.03267542 25.09158547 95.72423935 28.51836395 C98.31543835 29.27800155 100.90621641 30.03905748 103.49685669 30.80059814 C105.18670337 31.29725201 106.87655319 31.79389517 108.56640625 32.29052734 C109.39051435 32.53272758 110.21462246 32.77492783 111.06370354 33.02446747 C115.1452787 34.2232659 119.22783627 35.41851524 123.3125 36.60675049 C127.1450316 37.72185462 130.97462786 38.84652956 134.80227852 39.97826958 C136.20215533 40.39022252 137.60309662 40.79857859 139.00517082 41.20298958 C140.92214079 41.7563071 142.83508159 42.32352649 144.74780273 42.89135742 C145.81683334 43.2039299 146.88586395 43.51650238 147.98728943 43.83854675 C154.24022755 46.24916507 158.97541153 49.95082306 162 56 C162.09802841 57.82350591 162.13100848 59.65063621 162.13422108 61.47677231 C162.13867892 62.64747513 162.14313676 63.81817794 162.14772969 65.0243566 C162.14754533 66.32179683 162.14736097 67.61923706 162.14717102 68.95599365 C162.15046878 70.33937758 162.15419416 71.72276055 162.1583125 73.10614228 C162.16835068 76.92097016 162.17205221 80.7357823 162.17470181 84.55062151 C162.17859949 88.65981245 162.18817819 92.76899086 162.19691467 96.87817383 C162.21669431 106.80848655 162.2267472 116.73880032 162.23564246 126.66912782 C162.24002292 131.34251178 162.24539036 136.01589459 162.25063133 140.68927765 C162.26764513 156.21960591 162.28214006 171.74993347 162.28938007 187.28026962 C162.29129005 191.31217195 162.29321037 195.34407426 162.29516602 199.37597656 C162.29564976 200.37811826 162.2961335 201.38025996 162.2966319 202.41276959 C162.30493498 218.65253875 162.33027593 234.89223432 162.36274669 251.13197133 C162.39579334 267.79522797 162.41382667 284.45844718 162.41702431 301.12173676 C162.41919164 310.48151094 162.42797271 319.84117781 162.45348549 329.2009201 C162.47515981 337.17100514 162.48325907 345.14095681 162.47351871 353.11106798 C162.46896447 357.17866469 162.47092507 361.24598603 162.49028015 365.31354523 C162.50784501 369.03698794 162.506969 372.75995306 162.49138286 376.48340037 C162.48786567 378.46917825 162.50408284 380.45496074 162.52098733 382.44066978 C162.46136555 390.64742722 161.62081036 394.23229555 155.94189453 400.14160156 C151.55402207 402.91342606 146.87502263 404.23522735 141.9296875 405.734375 C140.8258371 406.07789001 139.72198669 406.42140503 138.58468628 406.77532959 C135.06092015 407.86550664 131.53181061 408.93619137 128 410 C126.33475281 410.50188843 126.33475281 410.50188843 124.63586426 411.01391602 C116.47627295 413.46254378 108.30171167 415.85928595 100.125 418.25 C94.78700755 419.81254041 89.44987518 421.37800279 84.11328125 422.9453125 C83.42818419 423.14639996 82.74308712 423.34748741 82.03722954 423.55466843 C71.61061418 426.61705227 61.20488853 429.74443003 50.80886841 432.9090271 C46.21512098 434.30617127 41.61929923 435.69648532 37.02369308 437.08750153 C32.59293038 438.4297949 28.16606362 439.784104 23.74159145 441.14697838 C20.97754799 441.99520197 18.21009903 442.8318604 15.44164467 443.66556168 C13.55494636 444.23759995 11.67253923 444.82373296 9.79032898 445.41036987 C-3.91146635 449.5111493 -3.91146635 449.5111493 -10 448 C-13.06336473 445.70529335 -13.92132061 444.51995342 -14.50139666 440.68651581 C-14.52250499 439.34028881 -14.52152398 437.99360887 -14.50336456 436.64733887 C-14.50917833 435.90103745 -14.51499209 435.15473604 -14.52098203 434.38581944 C-14.53564608 431.87082112 -14.52166757 429.356789 -14.50793457 426.84179688 C-14.51254097 425.02627817 -14.51889212 423.21076318 -14.52684355 421.39525604 C-14.54359592 416.39522254 -14.53526374 411.39549305 -14.52289867 406.39545822 C-14.51387461 401.00751397 -14.52780474 395.61962319 -14.53881836 390.23168945 C-14.55663649 379.67234411 -14.55274894 369.11311228 -14.5411678 358.55376244 C-14.53214669 349.97455282 -14.53090374 341.3953751 -14.53526306 332.81616211 C-14.53587599 331.59670002 -14.53648893 330.37723792 -14.53712043 329.12082243 C-14.53839929 326.64377148 -14.53969614 324.16672054 -14.5410108 321.68966961 C-14.55242625 298.44383369 -14.53928776 275.1980608 -14.51780933 251.95223522 C-14.49993749 231.99156274 -14.50304133 212.0309833 -14.52148438 192.0703125 C-14.54287405 168.90958371 -14.55132752 145.7489102 -14.53903532 122.58817291 C-14.53776108 120.12006125 -14.5365036 117.65194957 -14.53526306 115.18383789 C-14.53464596 113.96937217 -14.53402886 112.75490645 -14.53339306 111.50363874 C-14.52993444 102.93136745 -14.5357795 94.35913112 -14.54518127 85.78686523 C-14.55638151 75.34494696 -14.55340287 64.90314901 -14.5320583 54.46124458 C-14.52152126 49.13015238 -14.51747114 43.79926104 -14.53065491 38.46817017 C-14.5425298 33.59273178 -14.53609764 28.71768141 -14.5147447 23.84227848 C-14.51025775 22.07383644 -14.51259147 20.30536195 -14.52224785 18.53694057 C-14.53432873 16.14170796 -14.52202311 13.74782218 -14.50336456 11.35266113 C-14.51272923 10.65840058 -14.52209389 9.96414003 -14.53174233 9.24884129 C-14.47912616 5.89313838 -14.19515006 4.24865936 -12.09623289 1.57422829 C-8.27952565 -1.29204126 -4.56793002 -0.60545836 0 0 Z M23 197 C17.06085325 204.54432154 17.7844529 212.37102133 17.75976562 221.5546875 C17.75009092 223.72956042 17.71904525 225.90347459 17.6875 228.078125 C17.31366777 240.14061777 17.31366777 240.14061777 22.45239258 250.60449219 C27.17189037 254.69496214 30.40303979 255.35590438 36.4609375 255.27734375 C40.22460402 254.86623556 42.21790187 253.5171364 45 251 C50.93914675 243.45567846 50.2155471 235.62897867 50.24023438 226.4453125 C50.24990908 224.27043958 50.28095475 222.09652541 50.3125 219.921875 C50.68633223 207.85938223 50.68633223 207.85938223 45.54760742 197.39550781 C40.82810963 193.30503786 37.59696021 192.64409562 31.5390625 192.72265625 C27.77539598 193.13376444 25.78209813 194.4828636 23 197 Z " fill="#000000" transform="translate(318,32)"/>
<path d="M0 0 C5.62532272 1.12506454 5.62532272 1.12506454 8.41732788 3.89593506 C9.04829376 4.51273132 9.67925964 5.12952759 10.3293457 5.76501465 C11.00489502 6.4455188 11.68044434 7.12602295 12.37646484 7.82714844 C13.10056549 8.54102722 13.82466614 9.25490601 14.57070923 9.99041748 C16.96122576 12.35313215 19.33659002 14.73041965 21.7109375 17.109375 C23.36484376 18.75550959 25.01919763 20.40119459 26.67398071 22.04644775 C30.13896031 25.49650202 33.59608246 28.95420949 37.04833984 32.41699219 C41.48046524 36.86072481 45.93493911 41.2812767 50.39598656 45.69594955 C53.81725774 49.08781136 57.22463215 52.49336779 60.62810135 55.9030838 C62.26533926 57.53929257 63.90733111 59.17075832 65.55405807 60.79741669 C67.85057518 63.06935717 70.12731389 65.35943214 72.39990234 67.65527344 C73.4314444 68.66388428 73.4314444 68.66388428 74.48382568 69.69287109 C78.89122562 74.20096327 78.89122562 74.20096327 79.3401947 77.49900818 C77.24516379 81.40863054 74.29578306 84.25905581 71.15698242 87.3605957 C70.44149734 88.08309006 69.72601227 88.80558441 68.98884583 89.54997253 C66.62101959 91.93540461 64.23885909 94.30590722 61.85546875 96.67578125 C60.20679576 98.32714808 58.55871699 99.97910836 56.91120911 101.63163757 C53.45663591 105.09210913 49.99492739 108.54523869 46.52807617 111.9934082 C42.07882194 116.41985567 37.64778792 120.86404001 33.22191906 125.31385517 C29.82257548 128.72763186 26.41378816 132.13184963 23.00203896 135.53322411 C21.36398713 137.16860273 19.72891492 138.80697134 18.09685326 140.44832802 C15.81782441 142.73748269 13.52642401 145.01347535 11.23120117 147.28637695 C10.55519867 147.97047638 9.87919617 148.65457581 9.18270874 149.35940552 C8.55600784 149.97482712 7.92930695 150.59024872 7.28361511 151.22431946 C6.74289966 151.76352681 6.2021842 152.30273417 5.64508343 152.85828114 C4 154 4 154 0 154 C0 136.51 0 119.02 0 101 C-7.05713379 101.0314209 -7.05713379 101.0314209 -14.25683594 101.06347656 C-29.77531215 101.12965992 -45.29379381 101.17410433 -60.81237411 101.20724869 C-70.22427304 101.22788427 -79.63603838 101.25602384 -89.04785156 101.30175781 C-97.25007027 101.34159515 -105.45219225 101.36742557 -113.65450501 101.37635398 C-117.9986304 101.38157401 -122.34247902 101.39386347 -126.68651581 101.42292023 C-130.77409515 101.45004043 -134.86128333 101.45845196 -138.94894409 101.45243073 C-140.45018895 101.4535325 -141.95144669 101.46150686 -143.45261383 101.4768219 C-145.50051952 101.49669255 -147.54863439 101.4895615 -149.59661865 101.48101807 C-151.31668436 101.48654882 -151.31668436 101.48654882 -153.07149887 101.49219131 C-156.63702747 100.8929352 -157.80586254 99.81503603 -160 97 C-160.50793457 95.02734375 -160.50793457 95.02734375 -160.51757812 92.9375 C-160.53649109 91.75607422 -160.53649109 91.75607422 -160.55578613 90.55078125 C-160.54768921 89.70902344 -160.53959229 88.86726563 -160.53125 88 C-160.5350769 87.12730469 -160.53890381 86.25460937 -160.54284668 85.35546875 C-160.5455649 83.51300908 -160.53820994 81.67051076 -160.52148438 79.828125 C-160.50007248 77.00954066 -160.52128801 74.19350515 -160.546875 71.375 C-160.54423171 69.58332771 -160.53910669 67.79165701 -160.53125 66 C-160.53934692 65.15824219 -160.54744385 64.31648438 -160.55578613 63.44921875 C-160.54317749 62.66160156 -160.53056885 61.87398437 -160.51757812 61.0625 C-160.51439575 60.37285156 -160.51121338 59.68320313 -160.50793457 58.97265625 C-159.75031757 56.0303129 -158.35044888 54.89226809 -156 53 C-153.07149887 52.50780869 -153.07149887 52.50780869 -149.59661865 52.51898193 C-148.27851196 52.51348328 -146.96040527 52.50798462 -145.60235596 52.50231934 C-144.14342897 52.51647518 -142.68450567 52.53101441 -141.22558594 52.54589844 C-139.68806996 52.54702683 -138.15055183 52.54639322 -136.61303711 52.54412842 C-132.4396647 52.54298 -128.26675146 52.56650976 -124.09348583 52.59442425 C-119.73196422 52.61941668 -115.37043227 52.62177819 -111.0088501 52.62652588 C-102.74987813 52.63896202 -94.49111777 52.67179222 -86.23223901 52.71192384 C-76.82969482 52.75662172 -67.42714056 52.77862359 -58.02451658 52.79870558 C-38.68286669 52.84052438 -19.3415069 52.91388465 0 53 C0 35.51 0 18.02 0 0 Z " fill="#000000" transform="translate(192,179)"/>
<path d="M0 0 C1.051875 -0.00515625 2.10375 -0.0103125 3.1875 -0.015625 C4.280625 -0.00015625 5.37375 0.0153125 6.5 0.03125 C8.1396875 0.00804687 8.1396875 0.00804687 9.8125 -0.015625 C10.864375 -0.01046875 11.91625 -0.0053125 13 0 C14.43859375 0.00676758 14.43859375 0.00676758 15.90625 0.01367188 C19.30985979 0.69285606 20.34945008 1.83449965 22.5 4.53125 C22.98101807 7.2901001 22.98101807 7.2901001 22.95410156 10.49316406 C22.95379944 11.69410706 22.95349731 12.89505005 22.95318604 14.13238525 C22.93254089 15.42416687 22.91189575 16.71594849 22.890625 18.046875 C22.88316071 19.38636429 22.87746866 20.72586452 22.87347412 22.06536865 C22.85823213 25.58376436 22.81896418 29.10149515 22.7746582 32.61962891 C22.73367364 36.21247361 22.7154564 39.8054262 22.6953125 43.3984375 C22.65246745 50.44297966 22.58423446 57.48707132 22.5 64.53125 C23.44325134 64.52236755 24.38650269 64.51348511 25.3583374 64.5043335 C34.24557461 64.42326309 43.13273684 64.36329213 52.02025986 64.32400131 C56.58950964 64.30312235 61.15846102 64.27479929 65.72753906 64.22949219 C70.13660873 64.18604512 74.5453913 64.16211522 78.95465851 64.15174103 C80.63721487 64.14434757 82.31975543 64.12990983 84.00218964 64.10832977 C86.35825101 64.07930997 88.71312473 64.07529325 91.06933594 64.07714844 C92.11374847 64.05557678 92.11374847 64.05557678 93.17926025 64.03356934 C96.53789929 64.06220304 98.23422083 64.32730165 100.93206787 66.39752197 C102.91835334 69.10056816 103.01556264 70.69656613 103.03125 74.03125 C103.03898437 75.6090625 103.03898437 75.6090625 103.046875 77.21875 C103.03140625 78.311875 103.0159375 79.405 103 80.53125 C103.02320313 82.1709375 103.02320313 82.1709375 103.046875 83.84375 C103.04171875 84.895625 103.0365625 85.9475 103.03125 87.03125 C103.02673828 87.9903125 103.02222656 88.949375 103.01757812 89.9375 C102.32529228 93.40676642 101.317468 94.39622707 98.5 96.53125 C95.69971892 96.92605469 93.29247621 97.07882912 90.49365234 97.04882812 C89.68983124 97.0558374 88.88601013 97.06284668 88.05783081 97.07006836 C85.40018138 97.08767204 82.74359784 97.07601096 80.0859375 97.0625 C78.23230791 97.06519583 76.37867969 97.069079 74.52505493 97.07409668 C70.63619551 97.07999626 66.74770343 97.07141993 62.85888672 97.05273438 C57.89588541 97.03003988 52.93375393 97.04300432 47.97078514 97.06702423 C44.13922707 97.08155152 40.30787144 97.07684298 36.47630692 97.06651306 C34.64803589 97.0638599 32.819746 97.06706544 30.99149704 97.07643127 C18.92912916 97.12463005 8.35034919 96.93806198 -0.96875 88.234375 C-6.90733088 81.62921872 -9.73313434 74.57458118 -9.79052734 65.67138672 C-9.79724457 65.01369293 -9.80396179 64.35599915 -9.81088257 63.67837524 C-9.82975251 61.52248417 -9.8337801 59.3669058 -9.8359375 57.2109375 C-9.84236962 55.70451736 -9.84909829 54.19809846 -9.85610962 52.69168091 C-9.86805224 49.5429596 -9.87179321 46.39434781 -9.87060547 43.24560547 C-9.87040164 39.21251492 -9.89778181 35.180124 -9.93214989 31.14719963 C-9.95438334 28.03993502 -9.95844423 24.93284032 -9.95738602 21.8255043 C-9.95974434 20.33834531 -9.96858099 18.85118181 -9.98405075 17.36410141 C-10.00365458 15.28634063 -9.99789861 13.21010976 -9.98583984 11.13232422 C-9.98868988 9.9512912 -9.99153992 8.77025818 -9.99447632 7.55343628 C-9.02784086 1.64546392 -5.61797027 0.02642862 0 0 Z " fill="#000000" transform="translate(169.5,367.46875)"/>
<path d="M0 0 C1.22062637 -0.01007584 1.22062637 -0.01007584 2.46591187 -0.02035522 C5.14123727 -0.03927058 7.81631122 -0.04325531 10.49169922 -0.04541016 C12.35684308 -0.05183966 14.22198593 -0.05856814 16.08712769 -0.06558228 C19.98909852 -0.07753672 23.8909809 -0.08126469 27.79296875 -0.08007812 C32.79455014 -0.07987437 37.79556694 -0.1072429 42.79701424 -0.14162254 C46.64544285 -0.16384153 50.49373411 -0.1679173 54.34222031 -0.16685867 C56.18663362 -0.16921962 58.03105045 -0.17807087 59.87540054 -0.19352341 C62.4511939 -0.21309426 65.02574972 -0.20738237 67.6015625 -0.1953125 C68.36321716 -0.20655151 69.12487183 -0.21779053 69.90960693 -0.22937012 C73.40261461 -0.1877242 75.31949406 0.0245802 78.1434021 2.15878296 C80.08019984 4.86087672 80.18707922 6.48344667 80.20263672 9.79052734 C80.21037109 11.36833984 80.21037109 11.36833984 80.21826172 12.97802734 C80.20279297 14.07115234 80.18732422 15.16427734 80.17138672 16.29052734 C80.19458984 17.93021484 80.19458984 17.93021484 80.21826172 19.60302734 C80.21310547 20.65490234 80.20794922 21.70677734 80.20263672 22.79052734 C80.198125 23.74958984 80.19361328 24.70865234 80.18896484 25.69677734 C79.50055828 29.14660345 78.45563005 30.15400996 75.67138672 32.29052734 C73.05020343 32.66507715 70.85568809 32.7986393 68.24072266 32.74462891 C67.12793945 32.74550507 67.12793945 32.74550507 65.99267578 32.74639893 C63.5465577 32.74361759 61.10166625 32.7125252 58.65576172 32.68115234 C56.95754665 32.67369008 55.25932296 32.66799708 53.56109619 32.66400146 C49.09582662 32.64874386 44.63107919 32.60946124 40.16601562 32.56518555 C35.60798201 32.52423541 31.04986385 32.50599102 26.49169922 32.48583984 C17.5513659 32.44296688 8.61141976 32.3747142 -0.32861328 32.29052734 C-0.31973083 33.03332947 -0.31084839 33.77613159 -0.30169678 34.54144287 C-0.22151585 41.5450264 -0.16063142 48.54845069 -0.12136459 55.55236435 C-0.10049816 59.1531102 -0.07219907 62.7534765 -0.02685547 66.35400391 C0.01663797 69.82940648 0.04053093 73.30444422 0.05089569 76.78009796 C0.06187287 78.74998518 0.09309372 80.71972582 0.12457275 82.68939209 C0.12487488 83.89033508 0.125177 85.09127808 0.12548828 86.32861328 C0.13437073 87.38562439 0.14325317 88.4426355 0.15240479 89.53167725 C-0.45087642 92.99176019 -1.58955972 94.15994342 -4.32861328 96.29052734 C-6.92236328 96.80810547 -6.92236328 96.80810547 -9.82861328 96.82177734 C-10.88048828 96.82693359 -11.93236328 96.83208984 -13.01611328 96.83740234 C-14.10923828 96.82193359 -15.20236328 96.80646484 -16.32861328 96.79052734 C-17.96830078 96.81373047 -17.96830078 96.81373047 -19.64111328 96.83740234 C-20.69298828 96.83224609 -21.74486328 96.82708984 -22.82861328 96.82177734 C-23.78767578 96.81726563 -24.74673828 96.81275391 -25.73486328 96.80810547 C-29.15568568 96.12548654 -30.18144368 95.01863519 -32.32861328 92.29052734 C-32.83654785 89.29525757 -32.83654785 89.29525757 -32.84619141 85.75292969 C-32.85670532 84.78128372 -32.85670532 84.78128372 -32.86743164 83.79000854 C-32.88501145 81.65172205 -32.87338251 79.51476453 -32.85986328 77.37646484 C-32.86256021 75.88155871 -32.8664443 74.3866543 -32.87145996 72.89175415 C-32.87735658 69.75611699 -32.86879472 66.62093567 -32.85009766 63.48535156 C-32.82742563 59.49082334 -32.84035396 55.49737722 -32.86438751 51.50288963 C-32.87894305 48.41248649 -32.8741933 45.32233344 -32.86387634 42.23192215 C-32.86122968 40.76090997 -32.86440533 39.28987421 -32.87379456 37.81888962 C-32.92881291 26.76671241 -31.85977409 17.20331063 -24.03173828 8.82177734 C-16.92186121 2.42941081 -9.51346816 -0.01138156 0 0 Z " fill="#000000" transform="translate(192.32861328125,47.70947265625)"/>
</svg>
