<svg xmlns="http://www.w3.org/2000/svg" width="338.209" height="360.231" viewBox="0 0 338.209 360.231">
  <g id="_65666123_9583789" data-name="65666123_9583789" transform="translate(-45.264 -37.614)">
    <g id="Floor" transform="translate(50.553 206.687)">
      <path id="Floor_00000069368802399123745750000002355960470021692316_" d="M100.193,271.558c-64.651,37.326-64.649,97.844,0,135.17s169.474,37.326,234.124,0,64.649-97.844,0-135.17S164.844,234.232,100.193,271.558Z" transform="translate(-51.706 -243.564)" fill="#f5f5f5"/>
    </g>
    <g id="Shadows" transform="translate(45.264 254.17)">
      <path id="Shadow_123_" d="M210.406,302.173,46.6,396.755c-1.777,1.026-1.777,2.69,0,3.716l35.83,20.686a7.113,7.113,0,0,0,6.436,0l163.81-94.582c1.777-1.026,1.777-2.69,0-3.716l-35.83-20.686A7.114,7.114,0,0,0,210.406,302.173Z" transform="translate(-45.264 -301.404)" fill="#e0e0e0"/>
      <ellipse id="Shadow_00000132790933014205773040000003562145099916540078_" cx="54.604" cy="31.526" rx="54.604" ry="31.526" transform="translate(225.427 49.083)" fill="#e0e0e0"/>
      <path id="Shadow_46_" d="M172.519,425.2l10.012-11.381,0,.007.012-.007h0l75.43-43.7h0L260.1,368.9l3.46-2,.238-.137a.244.244,0,0,0-.08.037l3.331-1.908v-.019l13.608-7.841c2.628-1.8,6.568,1.849,8.1,5.52,0,0,0,0,0,0a8.854,8.854,0,0,1,.534,1.712c.3,1.525.039,2.9-1.092,3.679l-11.1,6.393-3.014,1.738c-.009.007-.012.021-.021.026l-2.487,1.432-.233.128-2.878,1.661h0a.542.542,0,0,1-.116.093l-2.417,1.371-76.721,44.442s0-.006,0-.008l0,.007-14.61,2.89-3.975.786a.557.557,0,0,1-.5-.143.573.573,0,0,1-.039-.8Z" transform="translate(-67.589 -311.279)" fill="#e0e0e0"/>
    </g>
    <g id="Character" transform="translate(247.56 92.031)">
      <g id="Chartacter_00000024701434703957906240000018232829715650478991_">
        <g id="Bottom_00000021116758118396560560000000868087927445868198_" transform="translate(34.331 100.511)">
          <g id="Group_6642" data-name="Group 6642" transform="translate(0 105.406)">
            <path id="Path_2213" data-name="Path 2213" d="M373.256,367.188l1.353-12.459-14.424.939s.219,6.763.421,10.59c.12,2.263-2.965,6.464-2.965,6.464s6.776,3.591,10.406,2.334,5.55-5.722,5.5-6.7S373.256,367.188,373.256,367.188Z" transform="translate(-337.825 -354.729)" fill="#ffbda7"/>
            <path id="Path_2214" data-name="Path 2214" d="M334.293,391.852a3.089,3.089,0,0,0,.611,3.318c1.408,1.162,5.566,3.1,11.111,2.533s8.568-2.1,10.811-3.78,5.386-4.043,7.9-4.512a15.826,15.826,0,0,0,5.63-2.019c.755-.653.7-3.611.7-3.611Z" transform="translate(-333.601 -359.931)" fill="#263238"/>
            <path id="XMLID_00000182500101890248688620000014263624099298849947_" d="M368.938,369.877a.879.879,0,0,1,.826.706c.157.818.3,3.189.647,4.533a22.162,22.162,0,0,1,.426,7.191c-.33,1.51-4.138,2.5-6.574,3.311a31.258,31.258,0,0,0-7.924,4.453,23.252,23.252,0,0,1-11.744,3.826c-4.267-.1-9.052-1.46-10.123-3.309-1.325-2.288-2.275-4.936,4.1-7.542,1.207-.493,5.452-2.726,6.9-3.537,3.918-2.194,6.681-4.221,8.531-8.189a2.229,2.229,0,0,1,.93-1.207,2.174,2.174,0,0,1,1.232-.082,44.519,44.519,0,0,1,6.2,1.2c.843.389,2.041.845,2.006,1.85a3.151,3.151,0,0,1-.255,1.019c-.079.2-.143.476.049.6s.427-.009.594-.143A15.49,15.49,0,0,0,366.5,372.7a5.975,5.975,0,0,1,1.017-.927,10.925,10.925,0,0,0,1.094-.631C369,370.79,368.911,370.348,368.938,369.877Z" transform="translate(-333.503 -357.441)" fill="#455a64"/>
            <path id="Path_2215" data-name="Path 2215" d="M356.338,392.817c1.118-.823,2.3-1.617,3.491-2.325v0s-7.511,4.06-10.487,2.109c-1.918-1.257-.971-2.728-.917-3.2s-6.73-3.945-8.608-4.183h0c-.529.259-.971.468-1.249.581-6.372,2.606-5.422,5.254-4.1,7.542,1.071,1.85,4.528,3.336,10.045,3.429C348.122,396.824,353.7,394.757,356.338,392.817Z" transform="translate(-333.503 -360.187)" fill="#37474f"/>
            <path id="Path_2216" data-name="Path 2216" d="M351.8,385.271c-3.959,1.389-2.291,2.1-1.191,2.262s7.782-3.3,11.869-6.191c4.264-3.013,6.976-6.339,8.56-7.445.59-.412,1.226-.92,1.794-1.4-.09-.8-.163-1.534-.236-1.919a.88.88,0,0,0-.827-.706c-.026.472.059.913-.332,1.261a10.919,10.919,0,0,1-1.094.631,5.977,5.977,0,0,0-1.017.927,15.49,15.49,0,0,1-1.737,1.865C364.083,378.537,355.755,383.881,351.8,385.271Z" transform="translate(-336.331 -357.441)" fill="#37474f"/>
            <g id="Group_6641" data-name="Group 6641" transform="translate(5.315 17.003)">
              <g id="Group_6636" data-name="Group 6636" transform="translate(0 7.855)">
                <path id="Path_2217" data-name="Path 2217" d="M349.223,389.711a.4.4,0,0,0,.248-.077.341.341,0,0,0,.063-.506c-1.09-1.277-6.3-4.351-9.2-4.106a.366.366,0,0,0-.351.391.375.375,0,0,0,.424.327c2.707-.223,7.659,2.822,8.523,3.835A.4.4,0,0,0,349.223,389.711Z" transform="translate(-339.977 -385.009)" fill="#263238"/>
              </g>
              <g id="Group_6637" data-name="Group 6637" transform="translate(3.465 5.961)">
                <path id="Path_2218" data-name="Path 2218" d="M353.444,387.4a.409.409,0,0,0,.248-.077.342.342,0,0,0,.063-.506c-1.089-1.276-6.3-4.348-9.2-4.1a.367.367,0,0,0-.351.391.38.38,0,0,0,.424.327c2.709-.22,7.659,2.822,8.523,3.833A.4.4,0,0,0,353.444,387.4Z" transform="translate(-344.198 -382.701)" fill="#263238"/>
              </g>
              <g id="Group_6638" data-name="Group 6638" transform="translate(6.929 4.167)">
                <path id="Path_2219" data-name="Path 2219" d="M357.663,385.218a.409.409,0,0,0,.248-.077.342.342,0,0,0,.063-.506c-1.09-1.277-6.3-4.353-9.2-4.1a.366.366,0,0,0-.351.391.378.378,0,0,0,.424.327c2.709-.223,7.659,2.821,8.523,3.833A.394.394,0,0,0,357.663,385.218Z" transform="translate(-348.417 -380.517)" fill="#263238"/>
              </g>
              <g id="Group_6639" data-name="Group 6639" transform="translate(10.144 2.107)">
                <path id="Path_2220" data-name="Path 2220" d="M361.58,382.709a.409.409,0,0,0,.248-.077.342.342,0,0,0,.063-.506c-1.089-1.277-6.315-4.35-9.2-4.1a.366.366,0,0,0-.351.391.38.38,0,0,0,.424.327c2.706-.221,7.659,2.821,8.523,3.833A.394.394,0,0,0,361.58,382.709Z" transform="translate(-352.334 -378.007)" fill="#263238"/>
              </g>
              <g id="Group_6640" data-name="Group 6640" transform="translate(12.636)">
                <path id="Path_2221" data-name="Path 2221" d="M365.275,380.188a.4.4,0,0,0,.243-.074.342.342,0,0,0,.071-.5c-1.5-1.809-6.969-4.4-9.868-4.152a.366.366,0,0,0-.351.391.384.384,0,0,0,.424.327c2.61-.218,7.85,2.268,9.179,3.872A.392.392,0,0,0,365.275,380.188Z" transform="translate(-355.369 -375.44)" fill="#263238"/>
              </g>
            </g>
          </g>
          <g id="Group_6649" data-name="Group 6649" transform="translate(60.659 110.607)">
            <path id="Path_2222" data-name="Path 2222" d="M410.686,375.115l-3.294-11.8,14.683-2.249.658,11.424s1.561,4.077.666,5.58-10.656,3.2-11.566,2.224S410.686,375.115,410.686,375.115Z" transform="translate(-407.392 -361.065)" fill="#ffbda7"/>
            <path id="Path_2223" data-name="Path 2223" d="M413.242,408.212c.479,3.657,1.288,6.015,2.918,7.978s4.488,2.262,7.3,1.244,6.354-3.206,6.969-6.5a17.808,17.808,0,0,0-.553-8.787Z" transform="translate(-408.439 -368.421)" fill="#263238"/>
            <path id="XMLID_00000015348477687185661140000013017244959489927604_" d="M423.368,374.981c1.18-.078.947,4.945,1.94,9.815,1.064,5.22,3.013,7.174,3.939,11.446,1.057,4.881.9,7.146-.9,10.427s-8.651,7.185-12.4,3.34c-3.052-3.134-3.417-7.018-3.475-12.027a110.817,110.817,0,0,0-.543-12.7c-.466-3.7-1.6-6.98-.609-7.532.113.537.234,1.222.351,1.749.09.4.336,2.408.995,2.338a6.789,6.789,0,0,0-.076-1.407,1.583,1.583,0,0,1,.245-1.246,5.482,5.482,0,0,1,1.885-.98c1.144-.357,3.189-.809,4.357-1.061.582-.125,1.167-.229,1.755-.3a5.2,5.2,0,0,1,1.5-.015.918.918,0,0,1,.668.42,1.406,1.406,0,0,1,.1.561,3.522,3.522,0,0,0,.212,1c.053.141.18.305.346.247a.314.314,0,0,0,.172-.327c-.034-.6-.149-1.027-.225-1.722-.035-.321-.123-.754-.149-1.077S423.412,375.3,423.368,374.981Z" transform="translate(-408.026 -363.557)" fill="#455a64"/>
            <path id="Path_2224" data-name="Path 2224" d="M429.229,399.2c.16.7,1.156,5.366-.267,6.423-1.539,1.144-2.654-2.478-2.654-2.478s-3.812-.5-9.135,2.33c.329.734-.351,3.393-1.882,3.057s-2.455-5.71-2.467-5.78c.076,4.8.5,8.552,3.468,11.595,3.744,3.845,10.6-.06,12.4-3.34s1.955-5.546.9-10.427C429.479,400.089,429.359,399.634,429.229,399.2Z" transform="translate(-408.365 -367.893)" fill="#37474f"/>
            <path id="Path_2225" data-name="Path 2225" d="M428.276,399.184c.138,1.8,2.125.916,2.052-1.639s-2.043-8.374-2.306-12.75c-.425-6.005-.76-9.892-1.94-9.815.008.061.011.121.018.182l.315,2.5a10.125,10.125,0,0,1,.135,1.07c.263,3.669.41,10.8.984,14.111A51.418,51.418,0,0,1,428.276,399.184Z" transform="translate(-410.739 -363.556)" fill="#37474f"/>
            <path id="Path_2226" data-name="Path 2226" d="M417.454,401.608a50.16,50.16,0,0,1-1.52-6.166c-.617-3.274-2.694-9.818-3.726-13.337a7.946,7.946,0,0,1-.539-2c-.11-.492-.222-1.116-.328-1.635-.01-.036-.021-.071-.029-.108-.716.41-.429,3.253-.025,4.72s.892,3.041,1.4,5.147c1.28,4.148,1.483,10.4,2.3,12.785S417.951,403.324,417.454,401.608Z" transform="translate(-408.015 -364.163)" fill="#37474f"/>
            <g id="Group_6648" data-name="Group 6648" transform="translate(4.981 19.652)">
              <g id="Group_6643" data-name="Group 6643" transform="translate(3.218 15.15)">
                <path id="Path_2227" data-name="Path 2227" d="M417.883,406.4a.531.531,0,0,0,.156-.062,16.287,16.287,0,0,1,9-2.045.484.484,0,0,0,.516-.343.353.353,0,0,0-.339-.425,17.046,17.046,0,0,0-9.621,2.19.378.378,0,0,0-.15.54A.426.426,0,0,0,417.883,406.4Z" transform="translate(-417.379 -403.457)" fill="#263238"/>
              </g>
              <g id="Group_6644" data-name="Group 6644" transform="translate(1.988 11.165)">
                <path id="Path_2228" data-name="Path 2228" d="M416.386,401.752a.5.5,0,0,0,.142-.055,20.174,20.174,0,0,1,10.074-2.286.485.485,0,0,0,.5-.357.357.357,0,0,0-.356-.415,20.876,20.876,0,0,0-10.642,2.418.385.385,0,0,0-.173.538A.422.422,0,0,0,416.386,401.752Z" transform="translate(-415.881 -398.604)" fill="#263238"/>
              </g>
              <g id="Group_6645" data-name="Group 6645" transform="translate(1.39 7.394)">
                <path id="Path_2229" data-name="Path 2229" d="M425.95,394.916a.474.474,0,0,0,.353-.307.35.35,0,0,0-.3-.449c-5.366-.854-10.419,2.2-10.634,2.329a.377.377,0,0,0-.15.54.46.46,0,0,0,.6.082c.048-.029,4.959-2.989,9.951-2.188A.521.521,0,0,0,425.95,394.916Z" transform="translate(-415.153 -394.01)" fill="#263238"/>
              </g>
              <g id="Group_6646" data-name="Group 6646" transform="translate(0.68 3.88)">
                <path id="Path_2230" data-name="Path 2230" d="M425.271,390.69a.476.476,0,0,0,.351-.3.347.347,0,0,0-.293-.454,15.775,15.775,0,0,0-10.85,2.329.37.37,0,0,0-.112.544.463.463,0,0,0,.607.048,15.022,15.022,0,0,1,10.107-2.162A.486.486,0,0,0,425.271,390.69Z" transform="translate(-414.288 -389.73)" fill="#263238"/>
              </g>
              <g id="Group_6647" data-name="Group 6647">
                <path id="Path_2231" data-name="Path 2231" d="M424.516,385.959a.478.478,0,0,0,.349-.295.347.347,0,0,0-.286-.458c-5.541-1.051-10.7,2.3-10.921,2.446a.373.373,0,0,0-.127.543.452.452,0,0,0,.6.06c.05-.033,5.039-3.268,10.184-2.292A.517.517,0,0,0,424.516,385.959Z" transform="translate(-413.46 -385.003)" fill="#263238"/>
              </g>
            </g>
          </g>
          <g id="Group_6650" data-name="Group 6650" transform="translate(16.917)">
            <path id="XMLID_00000026884383447824351000000017779578709109905853_" d="M403.715,226.333c3.342,27.943,6.138,68.041,6.138,68.041.241,2.2,1.841,5.942,3.079,16.783,1.306,11.436,1.888,41.251,1.888,41.251-1.367,4.388-12.063,6.517-15.357,2.295,0,0-9.841-35.741-12.887-49.3-3.129-13.925-6.479-34.567-6.479-34.567l-1.807,20.693s.628,7.095.488,12.879c-.163,6.728-5.178,45-5.178,45s-10.356,2.55-17.09-2.494c0,0-1.875-46.13-2.2-54.216-.645-15.859.487-45.87.7-66.363Z" transform="translate(-354.11 -226.333)" fill="#37474f"/>
            <path id="XMLID_00000157283284886027474480000010618454247072681093_" d="M383,275.064,379.345,254.5s-7.773-1.006-11.81-4.555c0,0,2.648,4.741,9.993,6.485l3.6,18.717.061,20.614Z" transform="translate(-356.513 -230.56)" fill="#263238"/>
          </g>
        </g>
        <g id="Top_00000026874834285946158580000005232418967354365339_">
          <g id="Arm_00000017481903968975769760000017493361798145408958_" transform="translate(0 42.634)">
            <path id="Path_2232" data-name="Path 2232" d="M343.807,166.842c-6.27,8.489-9.26,13.115-9.26,13.115s-12.161-2.071-16.881-4.133a8.364,8.364,0,0,1-4.084-4.5c-.895-2.638-3.905-4.3-5.335-6.417-.454-.672-1.042-2.537-2.071-2.308-.93.207-.908,1.786-.867,2.521a8.463,8.463,0,0,0,.985,3.481,10.114,10.114,0,0,1,.9,1.578c.423,1.337-1.756.1-2.152-.14A11.682,11.682,0,0,1,302.3,167.6a45.313,45.313,0,0,0-3.617-4.17,4.179,4.179,0,0,0-1.394-.907,1.817,1.817,0,0,0-1.6.144,4.37,4.37,0,0,0-1.483-.919,1.493,1.493,0,0,0-1.589.423c-.4.506-.055,1.171.362,1.944-.956.057-1.338.553-1.292,1.114a9.681,9.681,0,0,0,.4,1.749c.19.659.346,1.176.488,1.535a1.322,1.322,0,0,0-.414.846,5.262,5.262,0,0,0,.606,3.112c1.116,2.272,2.114,5.117,4.162,6.7,3.152,2.435,7.355,5.17,11.147,6.27a62.627,62.627,0,0,1,6.251,2.678c2.088.933,4.255,2.174,9.615,4.539,5.825,2.57,11.258,4.14,13.561,4.263,3.3.177,4.275-2.043,8-6.831,5.047-6.492,14.882-20.832,14.882-20.832l-2.638-12.4C354.264,156.753,350.054,158.384,343.807,166.842Z" transform="translate(-291.684 -156.015)" fill="#ffbda7"/>
            <path id="Path_2233" data-name="Path 2233" d="M365.878,169.162l-4.286-13.33c-4.66.529-7.682,3.13-10.522,6.85-3.733,4.89-11.431,16.568-11.431,16.568s-9.594-1.689-14.8-3.1c0,0,1.19,2.725-.4,7.044s-4.32,5.639-4.32,5.639,11.152,5.639,17.322,7.322,7.625,1.546,10.049-1.228S365.878,169.162,365.878,169.162Z" transform="translate(-296.777 -155.832)" fill="#e6e6e6"/>
            <path id="Path_2234" data-name="Path 2234" d="M322.773,179.761l4.565,1.19a14.554,14.554,0,0,1-4.786,13.541l-4.578-2.1s3.443-3.1,4.5-6.526A11.67,11.67,0,0,0,322.773,179.761Z" transform="translate(-296.391 -160.117)" fill="#f0f0f0"/>
            <path id="Path_2235" data-name="Path 2235" d="M344.8,182.693l-.905,1.367c3.168,1.194,5.527,3.578,6.089,5.98C350.21,186.529,347.909,184.239,344.8,182.693Z" transform="translate(-301.033 -160.642)" opacity="0.25"/>
            <path id="Path_2236" data-name="Path 2236" d="M309.835,176.16c-.18,3.038,2.216,6.042,4.242,7.253C310.467,183.185,308.687,179.432,309.835,176.16Z" transform="translate(-294.872 -159.472)" fill="#f0997a"/>
            <g id="Group_6651" data-name="Group 6651" transform="translate(4.007 6.653)">
              <path id="Path_2237" data-name="Path 2237" d="M296.565,163.936c2.458,2.483,3.977,5.722,6.293,8.336-2.62-2.249-4.23-5.6-6.293-8.336Z" transform="translate(-296.565 -163.936)" fill="#f0997a"/>
            </g>
            <g id="Group_6652" data-name="Group 6652" transform="translate(1.297 8.099)">
              <path id="Path_2238" data-name="Path 2238" d="M293.263,165.7a1.7,1.7,0,0,1,1.18.676,26.79,26.79,0,0,1,2.328,3.478,37.574,37.574,0,0,0,3.331,4.411,23.293,23.293,0,0,1-5.028-6.625c-.489-.718-.911-1.735-1.811-1.941Z" transform="translate(-293.263 -165.697)" fill="#f0997a"/>
            </g>
            <g id="Group_6653" data-name="Group 6653" transform="translate(0.892 12.281)">
              <path id="Path_2239" data-name="Path 2239" d="M292.77,171.009c1.469-1.041,2.537,1.946,3.172,2.9a23.163,23.163,0,0,0,1.269,2c.443.656.907,1.3,1.4,1.922a12.65,12.65,0,0,1-1.625-1.745,25.621,25.621,0,0,1-2.456-4.1c-.364-.627-.976-1.453-1.759-.969Z" transform="translate(-292.77 -170.791)" fill="#f0997a"/>
            </g>
          </g>
          <g id="Chest_00000171696743593155456630000013615516037861770419_" transform="translate(51.746 41.411)">
            <path id="Path_2240" data-name="Path 2240" d="M380.414,225.949c-2,0-4.064-.079-6.126-.234-14.443-1.088-18.526-5.89-19.066-6.619.08-1.965.981-24.3,1.378-35.522.572-16.238,6.251-24.854,11.4-27.521l8.443-1.059,13.777-.151c1.08.222,2.251.428,3.489.645,2.02.355,4.31.756,6.614,1.312a24.93,24.93,0,0,1,8.185,3.176c.327.186.675.383,1.054.6a88.434,88.434,0,0,1-1.609,23.913c-.114.53-.277,1.231-.47,2.06a99.443,99.443,0,0,0-2.666,15.228,98.063,98.063,0,0,0,.493,19.147C403.823,221.708,395.145,225.949,380.414,225.949Z" transform="translate(-354.807 -154.432)" fill="#f5f5f5"/>
            <path id="Path_2241" data-name="Path 2241" d="M390.089,155.165c1.075.22,2.234.424,3.457.638,2.015.353,4.3.754,6.588,1.307a24.325,24.325,0,0,1,8.079,3.134c.272.154.558.317.864.488a88.243,88.243,0,0,1-1.617,23.577c-.113.527-.276,1.222-.468,2.043a99.732,99.732,0,0,0-2.679,15.306,97.737,97.737,0,0,0,.466,18.935c-2,1.015-10.478,4.855-24.457,4.855-1.992,0-4.043-.079-6.094-.233-13.707-1.033-17.936-5.418-18.681-6.341.111-2.738.984-24.383,1.372-35.377.564-15.994,6.086-24.485,11.113-27.138l8.323-1.043,13.734-.152m.079-.822L376.3,154.5l-8.515,1.067c-5.939,3.024-11.139,12.376-11.686,27.905-.417,11.823-1.383,35.658-1.383,35.658s3.418,5.7,19.451,6.907c2.157.163,4.209.235,6.155.235,16.478,0,25.329-5.211,25.329-5.211a98.948,98.948,0,0,1-.519-19.351c.369-6.207,2.5-14.3,3.129-17.226a87.619,87.619,0,0,0,1.6-24.253c-3.327-1.846-4.25-2.641-9.532-3.917-3.715-.9-7.269-1.372-10.159-1.969Z" transform="translate(-354.716 -154.343)" fill="#e0e0e0"/>
          </g>
          <g id="Head_00000181779415448621864110000006297423776362542527_" transform="translate(61.664)">
            <g id="Group_6654" data-name="Group 6654">
              <g id="XMLID_00000168083198462388565410000009553070584443687847_">
                <g id="XMLID_00000129179822429358073720000012731870664169387962_">
                  <path id="Path_2242" data-name="Path 2242" d="M401.821,113.667s2.472.188,4.093,3.305c.814,1.566,1.4,4.422-.832,12.588a32.868,32.868,0,0,1-3.927,9.01,4.037,4.037,0,0,1-2.345,1.872l.163-6.276-1.64-4a24.84,24.84,0,0,1-1.956-6.716,10.052,10.052,0,0,1,1.188-6.335Z" transform="translate(-371.903 -105.648)" fill="#37474f"/>
                  <path id="Path_2243" data-name="Path 2243" d="M397.568,112.129c-.612-3.528-5.087-7.738-13.718-8.2a16.549,16.549,0,0,0-7.769,1.339c-2.194.959-4.4,2.369-6.774,2.037-.49-.069-1.114-.155-1.366.271a.946.946,0,0,0-.1.525,2.933,2.933,0,0,0,1.318,2.3,2.556,2.556,0,0,0-.9,4.865,2.7,2.7,0,0,0,.167,2.774c1.033,1.465,2.966,1.128,4.515,1.048l4.752-.245,10.359-.535,3.5-.181Z" transform="translate(-366.797 -103.899)" fill="#37474f"/>
                  <path id="Path_2244" data-name="Path 2244" d="M399.96,136.275c-3.253,1.581-4.736-.992-4.736-.992l.027,13.24c-3.532,4.727-14.026,8.5-15.342,8.471-.878-.335-2.906-5.195-1.245-9.691l0-3.1a19.381,19.381,0,0,1-2.817-.275c-2.878-.455-5.293-1.918-6.151-5.036a22.9,22.9,0,0,1-.862-5.673,27.552,27.552,0,0,1,.862-8.626c.437-2.042-.439-4.06,0-6.046a5.121,5.121,0,0,1,2.808-3.424,7.953,7.953,0,0,1,6.585-.184c2.625,1.1,5.073,2.449,7.934,2.808a13.183,13.183,0,0,0,3.731-.063c.073,1.329-.066,2.662,0,3.991a6.5,6.5,0,0,0,1.181,3.747,3.988,3.988,0,0,1,.7.936c.319.848-.314,1.735.4,2.526a1.667,1.667,0,0,0,.946.5,1.162,1.162,0,0,0,.64-.04,2.967,2.967,0,0,0,1.1-.979,4.881,4.881,0,0,1,3.533-2.212,3.541,3.541,0,0,1,3.491,2.132A5.909,5.909,0,0,1,399.96,136.275Z" transform="translate(-367.153 -105.764)" fill="#ffbda7"/>
                  <path id="Path_2245" data-name="Path 2245" d="M380.832,148.885a26.088,26.088,0,0,0,9.36-1.428c2.23-.94,4.206-3.955,4.853-6.947,0,2.408-1.057,6.677-4.436,8.45s-7.315,1.868-9.786,1.922Z" transform="translate(-369.308 -110.455)" fill="#f0997a"/>
                </g>
                <g id="XMLID_00000031177549882642540820000004984319775254709149_" transform="translate(4.468 14.062)">
                  <path id="XMLID_00000139280063033454802780000002005477064314110372_" d="M387.229,122.982l3.193,1.345a1.819,1.819,0,0,0-.957-2.327A1.691,1.691,0,0,0,387.229,122.982Z" transform="translate(-374.923 -121.179)" fill="#37474f"/>
                  <path id="XMLID_00000013159019568999397980000004044454002010313376_" d="M372.343,123.453l3.245-1.288a1.676,1.676,0,0,0-2.211-1.016A1.833,1.833,0,0,0,372.343,123.453Z" transform="translate(-372.239 -121.029)" fill="#37474f"/>
                  <path id="Path_2246" data-name="Path 2246" d="M389.224,127.431a1.412,1.412,0,1,1-1.36-1.461A1.412,1.412,0,0,1,389.224,127.431Z" transform="translate(-374.775 -121.913)" fill="#263238"/>
                  <path id="Path_2247" data-name="Path 2247" d="M376.3,126.9a1.412,1.412,0,1,1-1.36-1.461A1.412,1.412,0,0,1,376.3,126.9Z" transform="translate(-372.461 -121.818)" fill="#263238"/>
                  <path id="XMLID_00000107583479444182297160000000260383869445899177_" d="M381.655,125.437l-1.165,8.986-4.747-1.754A21.059,21.059,0,0,1,381.655,125.437Z" transform="translate(-372.867 -121.818)" fill="#f0997a"/>
                </g>
              </g>
            </g>
            <path id="XMLID_00000103232771711883941500000017182048928110472621_" d="M384.43,137.784l-4.967,1.642a2.57,2.57,0,0,0,3.259,1.754A2.739,2.739,0,0,0,384.43,137.784Z" transform="translate(-369.065 -109.967)" fill="#b16668"/>
            <path id="Path_2248" data-name="Path 2248" d="M384.429,138.862a2.866,2.866,0,0,1,.63-.06,2.705,2.705,0,0,1-1.813,2.56,2.488,2.488,0,0,1-.83.116A2.4,2.4,0,0,1,384.429,138.862Z" transform="translate(-369.588 -110.149)" fill="#f28f8f"/>
          </g>
          <g id="Tie_00000013159065628548686450000007993439037103118265_" transform="translate(66.085 36.184)">
            <g id="Group_6658" data-name="Group 6658" transform="translate(0 7.603)">
              <g id="Group_6655" data-name="Group 6655" transform="translate(3.748)">
                <path id="Path_2249" data-name="Path 2249" d="M378.839,165.542s-2.1-4.074-2.091-5.662l2.6-2.643.758,6.627Z" transform="translate(-376.748 -157.237)" fill="#1b6287"/>
                <path id="Path_2250" data-name="Path 2250" d="M378.839,165.542s-2.1-4.074-2.091-5.662l2.6-2.643.758,6.627Z" transform="translate(-376.748 -157.237)" fill="#3989b1" opacity="0.2"/>
              </g>
              <g id="Group_6656" data-name="Group 6656" transform="translate(9.378 3.944)">
                <path id="Path_2251" data-name="Path 2251" d="M383.605,165l4.419-2.96,3.651,2.493-6.779,3.4Z" transform="translate(-383.605 -162.041)" fill="#227ba8"/>
                <path id="Path_2252" data-name="Path 2252" d="M383.605,165l4.419-2.96,3.651,2.493-6.779,3.4Z" transform="translate(-383.605 -162.041)" opacity="0.2"/>
              </g>
              <g id="Group_6657" data-name="Group 6657" transform="translate(0 6.44)">
                <path id="Path_2253" data-name="Path 2253" d="M383.459,207.518c-2.22-12.565-2.485-32.247-2.2-35.69l-2.405-.252c-1.7,4.123-6.723,24.22-6.669,34.011-.141,3.411,4.2,12.588,6.5,12.685S383.821,209.564,383.459,207.518Z" transform="translate(-372.182 -166.244)" fill="#227ba8"/>
                <path id="Path_2254" data-name="Path 2254" d="M383.459,207.518c-2.22-12.565-2.485-32.247-2.2-35.69l-2.405-.252c-1.7,4.123-6.723,24.22-6.669,34.011-.141,3.411,4.2,12.588,6.5,12.685S383.821,209.564,383.459,207.518Z" transform="translate(-372.182 -166.244)" fill="#227ba8" opacity="0.1"/>
                <path id="Path_2255" data-name="Path 2255" d="M380.074,172.1c.076-.215.126-.358.191-.516h0l0,0,2.405.252h0a9.247,9.247,0,0,0-.011,1.058A4.219,4.219,0,0,1,380.074,172.1Z" transform="translate(-373.595 -166.244)" opacity="0.5"/>
                <path id="Path_2256" data-name="Path 2256" d="M382.9,165.212a10.293,10.293,0,0,0-2.273-.112,5.415,5.415,0,0,0-1.329,1.846,8.212,8.212,0,0,0,.832,3.465,2.884,2.884,0,0,0,2.405.252,5.035,5.035,0,0,0,1.749-2.3A4.572,4.572,0,0,0,382.9,165.212Z" transform="translate(-373.456 -165.082)" fill="#227ba8"/>
                <path id="Path_2257" data-name="Path 2257" d="M382.9,165.212a10.293,10.293,0,0,0-2.273-.112,5.415,5.415,0,0,0-1.329,1.846,8.212,8.212,0,0,0,.832,3.465,2.884,2.884,0,0,0,2.405.252,5.035,5.035,0,0,0,1.749-2.3A4.572,4.572,0,0,0,382.9,165.212Z" transform="translate(-373.456 -165.082)" fill="#fff" opacity="0.1"/>
              </g>
            </g>
            <g id="Group_6660" data-name="Group 6660" transform="translate(1.266)">
              <g id="Group_6659" data-name="Group 6659">
                <path id="Path_2258" data-name="Path 2258" d="M383.623,162.14c.078,0,.179.183.256.2,1.678-.9,1.945-1.209,2.39-1.082.843.241,2.828,3.753,3.32,4.887s.4,1.121,1.954.093a37.407,37.407,0,0,0,7.844-6.712c2.454-3.156,2.753-5.1,2.753-5.1s-.881-1.894-1.4-2.825c-1-1.8-1.826-3.769-2.849-3.613l-.007,1.2c-.177,1.569-2.685,3.7-5.287,5.355-2.451,1.561-5.88,3.449-6.718,4.257A16.658,16.658,0,0,0,383.623,162.14Z" transform="translate(-375.497 -147.975)" fill="#e6e6e6"/>
                <path id="Path_2259" data-name="Path 2259" d="M373.884,163.951c.247.637,2.281-4.366,3.28-4.262.482.039,1.564,1.4,2.462,2.831l.681-.019a15.276,15.276,0,0,1-1.033-3.815,26.314,26.314,0,0,1,.277-5l.009-2.983a6.985,6.985,0,0,1-.819-.038,15.024,15.024,0,0,0-1.135,1.286c-1.156,1.474-3.254,4.477-3.577,6.39A16.747,16.747,0,0,0,373.884,163.951Z" transform="translate(-373.725 -148.457)" fill="#e6e6e6"/>
              </g>
            </g>
          </g>
          <g id="Arm_00000003070123055782719890000003061819489306459267_" transform="translate(98.164 44.605)">
            <path id="Path_2260" data-name="Path 2260" d="M427.77,248.321c1.066-1.162,2.437-2.19,2.881-3.77a2.7,2.7,0,0,0-.383-2.408,1.243,1.243,0,0,1-.287-.438,1.014,1.014,0,0,1,.022-.435,2.942,2.942,0,0,0-.117-1.794,1.85,1.85,0,0,0-1.145-.973,4.309,4.309,0,0,0-.024-2.712c-.354-1.028-1.417-1.85-2.114-.7a9.493,9.493,0,0,0-.8,1.8c-.539,1.547-1.763,2.976-1.928,4.6-.172,1.705.322,6.728,2.96,6.956C427.036,248.475,427.618,248.486,427.77,248.321Z" transform="translate(-413.511 -171.895)" fill="#f0997a"/>
            <path id="Path_2261" data-name="Path 2261" d="M411.4,237.61a58.606,58.606,0,0,1,1.281-6.224,6.185,6.185,0,0,1,1-1.914c.476-.685.93-1.393,1.445-2.048,1.444-1.84,4.182-5.454,6.9-9.062,6.55-2.076,10.094,1.124,11.595,7.911-3.1,2.927-6.836,6.029-9.838,9.058a2.741,2.741,0,0,0-.936,2.773,18.2,18.2,0,0,1,.534,2.036,17.224,17.224,0,0,1-.216,2.7,2.359,2.359,0,0,0,1.065,2.323,2.594,2.594,0,0,0,1.289.151,9.248,9.248,0,0,1-2.481,1.352,3.787,3.787,0,0,1-2.767-.092c-.827-.4-1.449-1.183-2.328-1.446-.475-.142-.985-.117-1.464-.244a2.4,2.4,0,0,1-1.255-.821c-.5-.632-.71-1.54-1.419-1.927a10.078,10.078,0,0,0-1.1-.359,2.453,2.453,0,0,1-1.363-1.816A6.669,6.669,0,0,1,411.4,237.61Z" transform="translate(-411.258 -168.887)" fill="#ffbda7"/>
            <path id="Path_2262" data-name="Path 2262" d="M416.183,159.144c10.162,1.919,10.4,4.241,16.448,12.572,5.972,8.222,12.655,17.97,14.544,22.023,2.339,5.018,2.834,6.945-2.54,12.294-2.769,2.756-6.633,6.041-10.562,9.749-2.762-5.279-6.643-7.88-11.6-7.911,3.852-5.118,7.658-10.222,7.658-10.222l-11.451-14.493S409.6,173.631,416.183,159.144Z" transform="translate(-411.712 -158.396)" fill="#ffbda7"/>
            <path id="Path_2263" data-name="Path 2263" d="M441.914,184.107c-2.6-3.87-5.706-7.9-8.093-11.337s-5.586-8.664-8.381-10.7-5.132-2.766-10.487-3.835c-4.1,7.094-1.447,19.729.94,22.64S429.379,197.3,429.379,197.3l-5.23,7.949s2.213-.343,6.27,3.216,4.261,7.148,4.261,7.148,5.5-5.015,9.58-8.786,4.769-5.394,4.994-7.333C449.763,195.112,444.512,187.977,441.914,184.107Z" transform="translate(-411.538 -158.233)" fill="#e6e6e6"/>
            <path id="Path_2264" data-name="Path 2264" d="M427.334,213.164,424,217.631a12.67,12.67,0,0,1,6.8,3.336,13.48,13.48,0,0,1,3.565,6.849l4.706-4.11a12.1,12.1,0,0,0-4.17-7.326A11.959,11.959,0,0,0,427.334,213.164Z" transform="translate(-413.54 -168.069)" fill="#f0f0f0"/>
            <path id="Path_2265" data-name="Path 2265" d="M432.783,205.827c3.089,3.027,8.466,3.45,10.232,3.341-6.228,2.54-11.188-1.89-11.188-1.89Z" transform="translate(-414.941 -166.755)" opacity="0.25"/>
          </g>
        </g>
      </g>
    </g>
    <g id="Folder" transform="translate(57.598 37.614)">
      <g id="Folder_4_">
        <g id="Group_6661" data-name="Group 6661" transform="translate(0 106.926)">
          <path id="Path_2266" data-name="Path 2266" d="M239.424,299.71l-1.142-.659-1.333-.771-1.161-.67a8.527,8.527,0,0,1-3.7-5.541L216.293,173.553a5.185,5.185,0,0,0-2.345-3.994c-.418-.242-1.591-.922-2.012-1.163a5,5,0,0,0-5.06.352l-81.112,46.273a7.415,7.415,0,0,1-6.132.587,7.4,7.4,0,0,1-1.552-1.879l-2.634-4.56a7.368,7.368,0,0,0-2.709-2.71l-2.024-1.167a7.427,7.427,0,0,0-7.421,0l-37.47,21.633a12.006,12.006,0,0,0-5.458,11.091L79.215,379.524a10.353,10.353,0,0,0,4.61,6.888l3.63,2.094a4.808,4.808,0,0,0,2.249.682,3.492,3.492,0,0,0,1.851-.454l150.151-88.8A2.263,2.263,0,0,1,239.424,299.71Z" transform="translate(-60.288 -167.862)" fill="#315566"/>
          <path id="Path_2267" data-name="Path 2267" d="M239.86,299.961l-3.628-2.094a8.52,8.52,0,0,1-3.711-5.546L216.728,173.8c-.542-4.072-3.866-5.707-7.423-3.654L128.675,216.7a7.438,7.438,0,0,1-10.16-2.722l-2.634-4.56a7.438,7.438,0,0,0-10.16-2.722l-37.47,21.633a12,12,0,0,0-5.458,11.092L81.461,379.534a8.525,8.525,0,0,0,3.711,5.545l3.63,2.1a2.262,2.262,0,0,0,2.275.227L242.14,300.185A2.259,2.259,0,0,1,239.86,299.961Z" transform="translate(-60.723 -168.113)" fill="#227ba8" opacity="0.25"/>
          <path id="Path_2268" data-name="Path 2268" d="M89.551,412.618l3.63,2.1a2.262,2.262,0,0,0,2.275.227l151.062-87.217a2.261,2.261,0,0,1-2.281-.223l-3.628-2.094a7.754,7.754,0,0,1-2.381-2.345L87.17,410.274A7.751,7.751,0,0,0,89.551,412.618Z" transform="translate(-65.102 -195.652)" opacity="0.25"/>
        </g>
        <g id="TXT" transform="translate(87.399)">
          <g id="Group_6662" data-name="Group 6662">
            <path id="Path_2269" data-name="Path 2269" d="M280.85,47.2V193.089a3.257,3.257,0,0,1-1.479,2.556L170.994,258.156a1.038,1.038,0,0,1-1.043.1c-.266-.157-2.5-1.445-2.767-1.6a1.033,1.033,0,0,1-.429-.955V95.534a3.25,3.25,0,0,1,1.473-2.556l96.008-55.364Z" transform="translate(-166.751 -37.614)" fill="#f0f0f0"/>
            <path id="Path_2270" data-name="Path 2270" d="M172.289,109.366l-5.153-2.856a2.963,2.963,0,0,0-.386,1.363V268.04a1.037,1.037,0,0,0,.433.956l2.769,1.6a1.036,1.036,0,0,0,1.043-.1l1.293-.746V109.366Z" transform="translate(-166.75 -49.95)" fill="#e0e0e0"/>
          </g>
          <g id="Group_6663" data-name="Group 6663" transform="translate(2.774 1.592)">
            <path id="Path_2271" data-name="Path 2271" d="M171.019,258.447c-.429,0-.475-.5-.475-.713V97.571a2.939,2.939,0,0,1,1.3-2.262l87.694-50.575,8.14-4.7,13.5,7.8V193.525a2.929,2.929,0,0,1-1.309,2.261L171.5,258.291A1,1,0,0,1,171.019,258.447Z" transform="translate(-170.203 -39.639)" fill="#fafafa"/>
            <path id="Path_2272" data-name="Path 2272" d="M267.607,40.34l13.164,7.6V193.438a2.588,2.588,0,0,1-1.138,1.966L171.259,257.911a.664.664,0,0,1-.314.109c-.133,0-.134-.356-.134-.372V97.485a2.6,2.6,0,0,1,1.131-1.966l87.695-50.577,7.97-4.6m0-.787-8.31,4.8L171.6,94.928a3.27,3.27,0,0,0-1.473,2.556V257.648c0,.667.332,1.053.816,1.053a1.333,1.333,0,0,0,.657-.2l108.372-62.506a3.26,3.26,0,0,0,1.479-2.556V47.55l-13.846-8Z" transform="translate(-170.129 -39.553)" fill="#e0e0e0"/>
          </g>
          <g id="Group_6673" data-name="Group 6673" transform="translate(11.883 24.511)">
            <g id="Group_6664" data-name="Group 6664" transform="translate(0 46.985)">
              <path id="Path_2273" data-name="Path 2273" d="M181.795,177.61a.57.57,0,0,1-.286-1.064l89.785-51.766a.57.57,0,1,1,.571.987l-89.785,51.765A.554.554,0,0,1,181.795,177.61Z" transform="translate(-181.224 -124.704)" fill="#e0e0e0"/>
            </g>
            <g id="Group_6665" data-name="Group 6665" transform="translate(0 41.111)">
              <path id="Path_2274" data-name="Path 2274" d="M181.795,170.456a.57.57,0,0,1-.286-1.064l89.785-51.766a.57.57,0,1,1,.571.987l-89.785,51.766A.561.561,0,0,1,181.795,170.456Z" transform="translate(-181.224 -117.549)" fill="#e0e0e0"/>
            </g>
            <g id="Group_6666" data-name="Group 6666" transform="translate(0 35.238)">
              <path id="Path_2275" data-name="Path 2275" d="M181.795,163.3a.57.57,0,0,1-.286-1.064l89.785-51.765a.57.57,0,1,1,.571.987l-89.785,51.765A.561.561,0,0,1,181.795,163.3Z" transform="translate(-181.224 -110.396)" fill="#e0e0e0"/>
            </g>
            <g id="Group_6667" data-name="Group 6667" transform="translate(0 29.365)">
              <path id="Path_2276" data-name="Path 2276" d="M181.795,156.147a.57.57,0,0,1-.286-1.064l89.785-51.766a.57.57,0,0,1,.571.988l-89.785,51.766A.569.569,0,0,1,181.795,156.147Z" transform="translate(-181.224 -103.241)" fill="#e0e0e0"/>
            </g>
            <g id="Group_6668" data-name="Group 6668" transform="translate(0 23.494)">
              <path id="Path_2277" data-name="Path 2277" d="M181.795,148.994a.57.57,0,0,1-.286-1.063l89.785-51.765a.57.57,0,1,1,.571.987l-89.785,51.765A.569.569,0,0,1,181.795,148.994Z" transform="translate(-181.224 -96.09)" fill="#e0e0e0"/>
            </g>
            <g id="Group_6669" data-name="Group 6669" transform="translate(0 17.619)">
              <path id="Path_2278" data-name="Path 2278" d="M181.795,141.839a.57.57,0,0,1-.286-1.064l89.785-51.766a.57.57,0,1,1,.571.987l-89.785,51.765A.554.554,0,0,1,181.795,141.839Z" transform="translate(-181.224 -88.933)" fill="#e0e0e0"/>
            </g>
            <g id="Group_6670" data-name="Group 6670" transform="translate(0 11.746)">
              <path id="Path_2279" data-name="Path 2279" d="M181.795,134.685a.57.57,0,0,1-.286-1.064l89.785-51.765a.57.57,0,1,1,.571.987l-89.785,51.765A.561.561,0,0,1,181.795,134.685Z" transform="translate(-181.224 -81.78)" fill="#e0e0e0"/>
            </g>
            <g id="Group_6671" data-name="Group 6671" transform="translate(0 5.873)">
              <path id="Path_2280" data-name="Path 2280" d="M181.795,127.531a.57.57,0,0,1-.286-1.064L271.294,74.7a.57.57,0,1,1,.571.987l-89.785,51.765A.561.561,0,0,1,181.795,127.531Z" transform="translate(-181.224 -74.626)" fill="#e0e0e0"/>
            </g>
            <g id="Group_6672" data-name="Group 6672">
              <path id="Path_2281" data-name="Path 2281" d="M181.795,120.378a.57.57,0,0,1-.286-1.064l89.785-51.766a.57.57,0,1,1,.571.987L182.079,120.3A.554.554,0,0,1,181.795,120.378Z" transform="translate(-181.224 -67.471)" fill="#e0e0e0"/>
            </g>
          </g>
          <g id="Group_6683" data-name="Group 6683" transform="translate(11.883 76.58)">
            <g id="Group_6674" data-name="Group 6674" transform="translate(0 46.985)">
              <path id="Path_2282" data-name="Path 2282" d="M181.795,241.037a.57.57,0,0,1-.286-1.064l89.785-51.766a.57.57,0,1,1,.571.987l-89.785,51.765A.554.554,0,0,1,181.795,241.037Z" transform="translate(-181.224 -188.131)" fill="#e0e0e0"/>
            </g>
            <g id="Group_6675" data-name="Group 6675" transform="translate(0 41.112)">
              <path id="Path_2283" data-name="Path 2283" d="M181.795,233.883a.57.57,0,0,1-.286-1.064l89.785-51.766a.57.57,0,0,1,.571.988l-89.785,51.766A.569.569,0,0,1,181.795,233.883Z" transform="translate(-181.224 -180.976)" fill="#e0e0e0"/>
            </g>
            <g id="Group_6676" data-name="Group 6676" transform="translate(0 35.24)">
              <path id="Path_2284" data-name="Path 2284" d="M181.795,226.729a.57.57,0,0,1-.286-1.063L271.294,173.9a.57.57,0,1,1,.571.987l-89.785,51.765A.569.569,0,0,1,181.795,226.729Z" transform="translate(-181.224 -173.824)" fill="#e0e0e0"/>
            </g>
            <g id="Group_6677" data-name="Group 6677" transform="translate(0 29.365)">
              <path id="Path_2285" data-name="Path 2285" d="M181.795,219.574a.57.57,0,0,1-.286-1.064l89.785-51.766a.57.57,0,1,1,.571.987L182.079,219.5A.561.561,0,0,1,181.795,219.574Z" transform="translate(-181.224 -166.668)" fill="#e0e0e0"/>
            </g>
            <g id="Group_6678" data-name="Group 6678" transform="translate(0 23.494)">
              <path id="Path_2286" data-name="Path 2286" d="M181.795,212.421a.57.57,0,0,1-.286-1.063l89.785-51.766a.57.57,0,1,1,.571.987l-89.785,51.766A.569.569,0,0,1,181.795,212.421Z" transform="translate(-181.224 -159.516)" fill="#e0e0e0"/>
            </g>
            <g id="Group_6679" data-name="Group 6679" transform="translate(0 17.62)">
              <path id="Path_2287" data-name="Path 2287" d="M181.795,205.267a.57.57,0,0,1-.286-1.063l89.785-51.766a.57.57,0,1,1,.571.987L182.079,205.19A.569.569,0,0,1,181.795,205.267Z" transform="translate(-181.224 -152.361)" fill="#e0e0e0"/>
            </g>
            <g id="Group_6680" data-name="Group 6680" transform="translate(0 11.748)">
              <path id="Path_2288" data-name="Path 2288" d="M181.795,198.112a.57.57,0,0,1-.286-1.064l89.785-51.765a.57.57,0,0,1,.571.988l-89.785,51.765A.576.576,0,0,1,181.795,198.112Z" transform="translate(-181.224 -145.208)" fill="#e0e0e0"/>
            </g>
            <g id="Group_6681" data-name="Group 6681" transform="translate(0 5.874)">
              <path id="Path_2289" data-name="Path 2289" d="M181.795,190.958a.57.57,0,0,1-.286-1.064l89.785-51.765a.57.57,0,1,1,.571.987L182.079,190.88A.561.561,0,0,1,181.795,190.958Z" transform="translate(-181.224 -138.052)" fill="#e0e0e0"/>
            </g>
            <g id="Group_6682" data-name="Group 6682">
              <path id="Path_2290" data-name="Path 2290" d="M181.795,183.8a.57.57,0,0,1-.286-1.064l89.785-51.766a.57.57,0,0,1,.571.988l-89.785,51.766A.569.569,0,0,1,181.795,183.8Z" transform="translate(-181.224 -130.897)" fill="#e0e0e0"/>
            </g>
          </g>
          <g id="Group_6688" data-name="Group 6688" transform="translate(11.883 128.65)">
            <g id="Group_6684" data-name="Group 6684" transform="translate(0 17.62)">
              <path id="Path_2291" data-name="Path 2291" d="M181.795,268.693a.57.57,0,0,1-.286-1.064l89.785-51.766a.57.57,0,1,1,.571.987l-89.785,51.765A.554.554,0,0,1,181.795,268.693Z" transform="translate(-181.224 -215.787)" fill="#e0e0e0"/>
            </g>
            <g id="Group_6685" data-name="Group 6685" transform="translate(0 11.747)">
              <path id="Path_2292" data-name="Path 2292" d="M181.795,261.539a.57.57,0,0,1-.286-1.064l89.785-51.765a.57.57,0,1,1,.571.987l-89.785,51.765A.561.561,0,0,1,181.795,261.539Z" transform="translate(-181.224 -208.634)" fill="#e0e0e0"/>
            </g>
            <g id="Group_6686" data-name="Group 6686" transform="translate(0 5.874)">
              <path id="Path_2293" data-name="Path 2293" d="M181.795,254.385a.57.57,0,0,1-.286-1.064l89.785-51.765a.57.57,0,1,1,.571.987l-89.785,51.765A.561.561,0,0,1,181.795,254.385Z" transform="translate(-181.224 -201.479)" fill="#e0e0e0"/>
            </g>
            <g id="Group_6687" data-name="Group 6687">
              <path id="Path_2294" data-name="Path 2294" d="M181.795,247.231a.57.57,0,0,1-.286-1.064L271.294,194.4a.57.57,0,0,1,.571.988l-89.785,51.766A.569.569,0,0,1,181.795,247.231Z" transform="translate(-181.224 -194.324)" fill="#e0e0e0"/>
            </g>
          </g>
          <path id="Path_2295" data-name="Path 2295" d="M288.871,53.834V39.552l13.845,8L290.35,54.686C289.533,55.156,288.871,54.775,288.871,53.834Z" transform="translate(-188.617 -37.961)" fill="#e0e0e0"/>
        </g>
        <g id="Group_6691" data-name="Group 6691" transform="translate(22.068 111.9)">
          <path id="XMLID_744_" d="M87.17,254.259V377.265a1.861,1.861,0,0,0,.841,1.457l.947.548a1.859,1.859,0,0,0,1.683,0L226.92,300.59a1.859,1.859,0,0,0,.841-1.457v-123a1.859,1.859,0,0,0-.841-1.457l-.95-.548a1.859,1.859,0,0,0-1.683,0L88.012,252.8A1.859,1.859,0,0,0,87.17,254.259Z" transform="translate(-87.17 -173.921)" fill="#fafafa"/>
          <path id="XMLID_739_" d="M227.795,175.909a1.555,1.555,0,0,0-.083-.312c-.02-.048-.044-.1-.064-.15a2.248,2.248,0,0,0-.273-.433,1.53,1.53,0,0,0-.228-.227,1.64,1.64,0,0,0-.172-.117l-.944-.547a1.862,1.862,0,0,0-1.683,0L88.072,252.8a1.668,1.668,0,0,0-.6.627l2.627,1.52a1.764,1.764,0,0,1,.6-.628l136.276-78.678C227.373,175.413,227.705,175.535,227.795,175.909Z" transform="translate(-87.225 -173.921)" fill="#e0e0e0"/>
          <g id="Group_6689" data-name="Group 6689" transform="translate(0.003 79.509)">
            <path id="XMLID_736_" d="M90.408,396.712c-.349.081-.606-.144-.607-.585V273.122a1.689,1.689,0,0,1,.246-.83l-2.627-1.52a1.64,1.64,0,0,0-.246.83V394.608a1.827,1.827,0,0,0,.839,1.453l.947.552A1.86,1.86,0,0,0,90.408,396.712Z" transform="translate(-87.174 -270.772)" fill="#e0e0e0"/>
          </g>
          <g id="Group_6690" data-name="Group 6690" transform="translate(0.003 79.509)" opacity="0.1">
            <path id="XMLID_735_" d="M90.408,396.712c-.349.081-.606-.144-.607-.585V273.122a1.689,1.689,0,0,1,.246-.83l-2.627-1.52a1.64,1.64,0,0,0-.246.83V394.608a1.827,1.827,0,0,0,.839,1.453l.947.552A1.86,1.86,0,0,0,90.408,396.712Z" transform="translate(-87.174 -270.772)"/>
          </g>
        </g>
        <g id="Group_6694" data-name="Group 6694" transform="translate(28.639 114.974)">
          <path id="XMLID_00000148658716536657900220000007736800105770378680_" d="M95.174,258V381.008a1.861,1.861,0,0,0,.841,1.457l.947.548a1.859,1.859,0,0,0,1.683,0l136.277-78.68a1.859,1.859,0,0,0,.841-1.457v-123a1.859,1.859,0,0,0-.841-1.457l-.95-.548a1.859,1.859,0,0,0-1.683,0L96.016,256.545A1.862,1.862,0,0,0,95.174,258Z" transform="translate(-95.174 -177.665)" fill="#fafafa"/>
          <path id="XMLID_00000181047863710311673620000001193887618904992405_" d="M235.8,179.653a1.54,1.54,0,0,0-.083-.312l-.064-.149a2.246,2.246,0,0,0-.273-.433,1.57,1.57,0,0,0-.228-.227,1.644,1.644,0,0,0-.172-.117l-.944-.547a1.862,1.862,0,0,0-1.683,0L96.076,256.545a1.668,1.668,0,0,0-.6.627l2.627,1.52a1.764,1.764,0,0,1,.6-.628l136.275-78.679C235.377,179.157,235.71,179.278,235.8,179.653Z" transform="translate(-95.229 -177.665)" fill="#e0e0e0"/>
          <g id="Group_6692" data-name="Group 6692" transform="translate(0.003 79.51)">
            <path id="XMLID_00000152248047884922686200000009719860545363691682_" d="M98.412,400.457c-.349.081-.606-.144-.607-.585V276.867a1.689,1.689,0,0,1,.246-.83l-2.627-1.52a1.64,1.64,0,0,0-.246.83V398.353a1.827,1.827,0,0,0,.839,1.453l.947.552A1.867,1.867,0,0,0,98.412,400.457Z" transform="translate(-95.178 -274.517)" fill="#e0e0e0"/>
          </g>
          <g id="Group_6693" data-name="Group 6693" transform="translate(0.003 79.51)" opacity="0.1">
            <path id="XMLID_00000157267712719980945920000006436213659287615930_" d="M98.412,400.457c-.349.081-.606-.144-.607-.585V276.867a1.689,1.689,0,0,1,.246-.83l-2.627-1.52a1.64,1.64,0,0,0-.246.83V398.353a1.827,1.827,0,0,0,.839,1.453l.947.552A1.867,1.867,0,0,0,98.412,400.457Z" transform="translate(-95.178 -274.517)"/>
          </g>
        </g>
        <path id="Path_2296" data-name="Path 2296" d="M251.094,184.035c0-2.048-.718-3.487-1.879-4.162-.309-.179-1.538-.892-1.851-1.071-1.164-.666-2.767-.567-4.54.456L104.649,259.035a14.238,14.238,0,0,0-6.441,11.157V386.948a2.261,2.261,0,0,1-.945,2.086l.911,1.584,151.979-87.744a2.265,2.265,0,0,0,.94-2.084Z" transform="translate(-66.909 -62.819)" fill="#374850"/>
        <path id="Path_2297" data-name="Path 2297" d="M98.373,390.849a3.985,3.985,0,0,0,1.863-3.67V271.48a14.239,14.239,0,0,1,6.441-11.157l138.174-79.778c3.557-2.054,6.441-.389,6.441,3.719V301.022a2.265,2.265,0,0,1-.94,2.084Z" transform="translate(-67.108 -63.05)" fill="#227ba8" opacity="0.25"/>
      </g>
    </g>
    <g id="Pencil" transform="translate(147.621 294.76)">
      <g id="Pencil_4_">
        <path id="XMLID_7681_" d="M278.471,370.1l-1.365.782-1.642.951-85.648,49.582c.511-1.146.11-3.434-1.06-5.631-1.363-2.559-3.449-4.583-4.958-4.659L269.009,361.8l3.147-1.805C270.184,361.272,276.475,371.361,278.471,370.1Z" transform="translate(-172.426 -352.484)" fill="#455a64"/>
        <g id="Group_6724" data-name="Group 6724" transform="translate(91.541 7.373)">
          <path id="XMLID_7680_" d="M287.768,361.677l3.05-1.743c.867-.534,2.512,1.025,3.952,3.085,1.92,2.732,3.477,6.35,2.33,7.06l-2.246,1.289-.811.446c1.148-.71-.408-4.33-2.327-7.063-1.382-1.974-2.964-3.488-3.848-3.122l-.01.006A.212.212,0,0,0,287.768,361.677Z" transform="translate(-282.584 -359.828)" fill="#ebebeb"/>
          <path id="XMLID_7679_" d="M288.035,361.535c2.011-1.245,8.29,8.894,6.278,10.139l-3.047,1.754c2.01-1.246-4.266-11.383-6.278-10.139Z" transform="translate(-282.086 -360.115)" fill="#ba68c8"/>
          <path id="XMLID_7678_" d="M281.453,365.328l3.007-1.733c1.967-1.237,8.122,8.491,6.455,10.039a.58.58,0,0,1-.1.084l-3.043,1.722C289.74,374.158,283.45,364.07,281.453,365.328Z" transform="translate(-281.453 -360.483)" fill="#ebebeb"/>
        </g>
        <path id="Path_2324" data-name="Path 2324" d="M291.431,358.333v.022l.044-.02c.861-.554,2.5,1.016,3.946,3.083,1.9,2.681,3.45,6.226,2.381,7.012l12.712-7.306a3.061,3.061,0,0,0,.988-3.317c-.708-3.7-5.041-8.409-7.787-6.536Z" transform="translate(-191.698 -350.847)" fill="#f28f8f"/>
        <g id="Group_6725" data-name="Group 6725" transform="translate(0 58.636)">
          <path id="XMLID_7655_" d="M173.917,433.64c1.05,1.423.946,2.121.946,2.121l13.182-2.594c1.31-2,.449-5.241-1.362-7.553l-.578.326Z" transform="translate(-170.657 -422.87)" fill="#f28f8f"/>
          <path id="XMLID_7652_" d="M170.565,438.217l3.587-.706s.163-.695-.946-2.12l-3.129,1.978h0a.515.515,0,0,0,.034.72A.5.5,0,0,0,170.565,438.217Z" transform="translate(-169.946 -424.621)" fill="#37474f"/>
          <path id="XMLID_7650_" d="M181.835,422.273l-.01.006h0l0-.007-9.042,10.258a1.628,1.628,0,0,1,.935.511l12.188-7.7.578-.326A6.368,6.368,0,0,0,181.835,422.273Z" transform="translate(-170.453 -422.272)" fill="#ffa8a7"/>
          <path id="XMLID_7649_" d="M173.234,435.279a1.247,1.247,0,0,0-.935-.511l-2.194,2.488Z" transform="translate(-169.974 -424.509)" fill="#455a64"/>
        </g>
        <path id="Path_2325" data-name="Path 2325" d="M189.468,413.07l102.491-57.507a9.326,9.326,0,0,1,1.281,3.088,3.043,3.043,0,0,1-.99,3.315l-12.765,7.342-1.364.782-1.643.951-85.648,49.582C192.436,418.143,190.674,414.479,189.468,413.07Z" transform="translate(-173.441 -351.692)" opacity="0.2"/>
      </g>
    </g>
  </g>
</svg>
