<svg id="logo_cic" data-name="logo cic" xmlns="http://www.w3.org/2000/svg" xmlns:xlink="http://www.w3.org/1999/xlink" width="40.09" height="40.09" viewBox="0 0 40.09 40.09">
  <defs>
    <linearGradient id="linear-gradient" x1="0.287" y1="1.003" x2="0.102" y2="0.134" gradientUnits="objectBoundingBox">
      <stop offset="0.003" stop-color="#013967"/>
      <stop offset="0.111" stop-color="#1a55a9"/>
      <stop offset="0.234" stop-color="#59b6ff"/>
      <stop offset="0.331" stop-color="#466ce1"/>
      <stop offset="0.426" stop-color="#7294ff"/>
      <stop offset="0.551" stop-color="#59b6ff"/>
      <stop offset="0.668" stop-color="#b054d0"/>
      <stop offset="0.768" stop-color="#fa238b"/>
      <stop offset="0.851" stop-color="#ea2e88"/>
      <stop offset="0.939" stop-color="#dd3384"/>
      <stop offset="1" stop-color="#bc015b"/>
    </linearGradient>
    <linearGradient id="linear-gradient-2" x1="0.287" y1="1.003" x2="0.118" y2="0.13" xlink:href="#linear-gradient"/>
    <linearGradient id="linear-gradient-3" x1="0.287" y1="1.003" x2="0.132" y2="0.126" xlink:href="#linear-gradient"/>
    <linearGradient id="linear-gradient-4" x1="0.287" y1="1.003" x2="0.144" y2="0.123" xlink:href="#linear-gradient"/>
    <linearGradient id="linear-gradient-5" x1="0.287" y1="1.003" x2="0.154" y2="0.12" xlink:href="#linear-gradient"/>
    <linearGradient id="linear-gradient-6" x1="0.287" y1="1.003" x2="0.162" y2="0.118" xlink:href="#linear-gradient"/>
    <linearGradient id="linear-gradient-7" x1="0.287" y1="1.003" x2="0.168" y2="0.116" xlink:href="#linear-gradient"/>
    <linearGradient id="linear-gradient-8" x1="0.287" y1="1.003" x2="0.172" y2="0.115" xlink:href="#linear-gradient"/>
    <linearGradient id="linear-gradient-9" x1="0.287" y1="1.003" x2="0.175" y2="0.114" xlink:href="#linear-gradient"/>
    <linearGradient id="linear-gradient-12" x1="0.287" y1="1.003" x2="0.173" y2="0.115" xlink:href="#linear-gradient"/>
    <linearGradient id="linear-gradient-13" x1="0.287" y1="1.003" x2="0.17" y2="0.116" xlink:href="#linear-gradient"/>
    <linearGradient id="linear-gradient-14" x1="0.287" y1="1.003" x2="0.165" y2="0.117" xlink:href="#linear-gradient"/>
    <linearGradient id="linear-gradient-15" x1="0.287" y1="1.003" x2="0.16" y2="0.119" xlink:href="#linear-gradient"/>
    <linearGradient id="linear-gradient-16" x1="0.287" y1="1.003" x2="0.153" y2="0.12" xlink:href="#linear-gradient"/>
    <linearGradient id="linear-gradient-17" x1="0.287" y1="1.003" x2="0.145" y2="0.123" xlink:href="#linear-gradient"/>
    <linearGradient id="linear-gradient-18" x1="0.287" y1="1.003" x2="0.135" y2="0.125" xlink:href="#linear-gradient"/>
    <linearGradient id="linear-gradient-19" x1="0.287" y1="1.003" x2="0.125" y2="0.128" xlink:href="#linear-gradient"/>
    <linearGradient id="linear-gradient-20" x1="0.287" y1="1.003" x2="0.113" y2="0.131" xlink:href="#linear-gradient"/>
    <linearGradient id="linear-gradient-21" x1="0.287" y1="1.003" x2="0.1" y2="0.135" xlink:href="#linear-gradient"/>
    <linearGradient id="linear-gradient-22" x1="0.287" y1="1.003" x2="0.086" y2="0.139" xlink:href="#linear-gradient"/>
    <linearGradient id="linear-gradient-23" x1="0.287" y1="1.003" x2="0.07" y2="0.143" xlink:href="#linear-gradient"/>
    <linearGradient id="linear-gradient-24" x1="0.287" y1="1.003" x2="0.054" y2="0.147" xlink:href="#linear-gradient"/>
    <linearGradient id="linear-gradient-25" x1="0.287" y1="1.003" x2="0.036" y2="0.152" xlink:href="#linear-gradient"/>
    <linearGradient id="linear-gradient-26" x1="0.287" y1="1.003" x2="0.018" y2="0.157" xlink:href="#linear-gradient"/>
    <linearGradient id="linear-gradient-27" x1="0.287" y1="1.003" x2="-0.021" y2="0.168" xlink:href="#linear-gradient"/>
    <linearGradient id="linear-gradient-28" x1="0.287" y1="1.003" x2="-0.001" y2="0.162" xlink:href="#linear-gradient"/>
    <linearGradient id="linear-gradient-29" x1="0.287" y1="1.003" x2="-0.041" y2="0.173" xlink:href="#linear-gradient"/>
    <linearGradient id="linear-gradient-30" x1="0.287" y1="1.003" x2="-0.061" y2="0.179" xlink:href="#linear-gradient"/>
    <linearGradient id="linear-gradient-31" x1="0.287" y1="1.003" x2="-0.079" y2="0.184" xlink:href="#linear-gradient"/>
    <linearGradient id="linear-gradient-32" x1="0.287" y1="1.003" x2="-0.097" y2="0.188" xlink:href="#linear-gradient"/>
    <linearGradient id="linear-gradient-33" x1="0.287" y1="1.003" x2="-0.112" y2="0.193" xlink:href="#linear-gradient"/>
    <linearGradient id="linear-gradient-34" x1="0.287" y1="1.003" x2="-0.125" y2="0.196" xlink:href="#linear-gradient"/>
    <linearGradient id="linear-gradient-35" x1="0.287" y1="1.003" x2="-0.134" y2="0.199" xlink:href="#linear-gradient"/>
    <linearGradient id="linear-gradient-36" x1="0.287" y1="1.003" x2="-0.139" y2="0.2" xlink:href="#linear-gradient"/>
    <linearGradient id="linear-gradient-37" x1="0.287" y1="1.003" x2="-0.138" y2="0.2" xlink:href="#linear-gradient"/>
    <linearGradient id="linear-gradient-38" x1="0.287" y1="1.003" x2="-0.133" y2="0.198" xlink:href="#linear-gradient"/>
    <linearGradient id="linear-gradient-39" x1="0.287" y1="1.003" x2="-0.123" y2="0.195" xlink:href="#linear-gradient"/>
    <linearGradient id="linear-gradient-40" x1="0.287" y1="1.003" x2="-0.108" y2="0.191" xlink:href="#linear-gradient"/>
    <linearGradient id="linear-gradient-41" x1="0.287" y1="1.003" x2="-0.089" y2="0.186" xlink:href="#linear-gradient"/>
    <linearGradient id="linear-gradient-42" x1="0.287" y1="1.003" x2="-0.067" y2="0.18" xlink:href="#linear-gradient"/>
    <linearGradient id="linear-gradient-43" x1="0.287" y1="1.003" x2="-0.043" y2="0.174" xlink:href="#linear-gradient"/>
    <linearGradient id="linear-gradient-44" x1="0.287" y1="1.003" x2="-0.018" y2="0.167" xlink:href="#linear-gradient"/>
    <linearGradient id="linear-gradient-45" x1="0.287" y1="1.003" x2="0.007" y2="0.16" xlink:href="#linear-gradient"/>
    <linearGradient id="linear-gradient-46" x1="0.287" y1="1.003" x2="0.031" y2="0.153" xlink:href="#linear-gradient"/>
  </defs>
  <g id="Group_20011" data-name="Group 20011" transform="translate(13.5 14.243)">
    <path id="Path_13132" data-name="Path 13132" d="M73.149,81.838c.577-3.158,3.937-5.269,7.505-4.723s5.992,3.552,5.414,6.7-3.937,5.274-7.505,4.723S72.572,84.995,73.149,81.838Zm7.994,6.585a6.854,6.854,0,0,0,2.257-.9,5.972,5.972,0,0,0,1.7-1.586A5.25,5.25,0,0,0,86,83.81a5.038,5.038,0,0,0-.1-2.278,5.533,5.533,0,0,0-1.04-2.008A6.349,6.349,0,0,0,83.052,78a7.116,7.116,0,0,0-2.408-.827,7.375,7.375,0,0,0-2.575.062,6.934,6.934,0,0,0-2.252.9,6.058,6.058,0,0,0-1.7,1.586,5.353,5.353,0,0,0-.905,2.127,5.109,5.109,0,0,0,.1,2.278,5.455,5.455,0,0,0,1.04,2.008,6.348,6.348,0,0,0,1.81,1.524,7.075,7.075,0,0,0,2.408.827,7.347,7.347,0,0,0,2.569-.063Z" transform="translate(-73.064 -77.029)" fill-rule="evenodd" fill="url(#linear-gradient)"/>
  </g>
  <g id="Group_20012" data-name="Group 20012" transform="translate(13.16 14.234)">
    <path id="Path_13133" data-name="Path 13133" d="M71.419,81.352c.837-3.11,4.525-4.983,8.228-4.187s6.033,3.958,5.2,7.068-4.52,4.983-8.228,4.187S70.581,84.457,71.419,81.352Zm7.916,7.125a7.4,7.4,0,0,0,2.434-.738,6.228,6.228,0,0,0,1.9-1.467,5.216,5.216,0,0,0,1.108-2.055,4.842,4.842,0,0,0,.062-2.283,5.389,5.389,0,0,0-.947-2.075A6.535,6.535,0,0,0,82.1,78.216a7.585,7.585,0,0,0-2.47-.994,8,8,0,0,0-2.7-.12,7.409,7.409,0,0,0-2.435.744,6.3,6.3,0,0,0-1.9,1.461,5.2,5.2,0,0,0-1.1,2.054,4.843,4.843,0,0,0-.062,2.283,5.39,5.39,0,0,0,.947,2.075,6.463,6.463,0,0,0,1.789,1.644,7.556,7.556,0,0,0,2.465.993,8.032,8.032,0,0,0,2.7.12Z" transform="translate(-71.248 -76.982)" fill-rule="evenodd" fill="url(#linear-gradient-2)"/>
  </g>
  <g id="Group_20013" data-name="Group 20013" transform="translate(12.816 14.214)">
    <path id="Path_13134" data-name="Path 13134" d="M69.7,80.794c1.108-3.043,5.113-4.655,8.946-3.6s6.049,4.369,4.941,7.411-5.118,4.655-8.951,3.6S68.588,83.837,69.7,80.794Zm7.786,7.662a8.049,8.049,0,0,0,2.611-.567,6.665,6.665,0,0,0,2.1-1.326,5.191,5.191,0,0,0,1.316-1.976,4.675,4.675,0,0,0,.234-2.268,5.293,5.293,0,0,0-.843-2.138,6.682,6.682,0,0,0-1.758-1.768,8.227,8.227,0,0,0-2.522-1.162,8.827,8.827,0,0,0-2.829-.307,8.048,8.048,0,0,0-2.606.567,6.556,6.556,0,0,0-2.107,1.332,5.164,5.164,0,0,0-1.311,1.971,4.56,4.56,0,0,0-.234,2.268,5.191,5.191,0,0,0,.843,2.138,6.6,6.6,0,0,0,1.758,1.768,8.262,8.262,0,0,0,2.517,1.166,8.856,8.856,0,0,0,2.83.3Z" transform="translate(-69.41 -76.872)" fill-rule="evenodd" fill="url(#linear-gradient-3)"/>
  </g>
  <g id="Group_20014" data-name="Group 20014" transform="translate(12.465 14.179)">
    <path id="Path_13135" data-name="Path 13135" d="M67.966,80.167c1.389-2.96,5.711-4.286,9.664-2.971s6.023,4.785,4.639,7.739-5.716,4.286-9.664,2.97S66.582,83.127,67.966,80.167Zm7.615,8.187a8.961,8.961,0,0,0,2.783-.385,7,7,0,0,0,2.3-1.18,5.14,5.14,0,0,0,1.524-1.878,4.368,4.368,0,0,0,.411-2.247,4.987,4.987,0,0,0-.723-2.19,6.9,6.9,0,0,0-1.716-1.888A8.794,8.794,0,0,0,77.6,77.256a9.7,9.7,0,0,0-2.954-.5,8.923,8.923,0,0,0-2.777.384,7.074,7.074,0,0,0-2.309,1.18,5.192,5.192,0,0,0-1.524,1.879,4.421,4.421,0,0,0-.411,2.247,5.058,5.058,0,0,0,.728,2.19,6.821,6.821,0,0,0,1.716,1.888,8.8,8.8,0,0,0,2.559,1.331,9.7,9.7,0,0,0,2.949.5Z" transform="translate(-67.537 -76.689)" fill-rule="evenodd" fill="url(#linear-gradient-4)"/>
  </g>
  <g id="Group_20015" data-name="Group 20015" transform="translate(12.108 14.129)">
    <path id="Path_13136" data-name="Path 13136" d="M66.235,79.453c1.675-2.85,6.313-3.875,10.36-2.289s5.976,5.191,4.307,8.046-6.313,3.88-10.366,2.288S64.56,82.308,66.235,79.453Zm7.4,8.7a10.085,10.085,0,0,0,2.949-.192,7.717,7.717,0,0,0,2.507-1.014,5.314,5.314,0,0,0,1.737-1.768,4.261,4.261,0,0,0,.6-2.216,4.856,4.856,0,0,0-.6-2.231,6.812,6.812,0,0,0-1.664-2,9.137,9.137,0,0,0-2.59-1.508,10.643,10.643,0,0,0-3.058-.707,9.91,9.91,0,0,0-2.949.187,7.715,7.715,0,0,0-2.507,1.014,5.312,5.312,0,0,0-1.737,1.768,4.213,4.213,0,0,0-.6,2.216,4.854,4.854,0,0,0,.6,2.231,6.749,6.749,0,0,0,1.664,2,9.317,9.317,0,0,0,2.585,1.513,10.89,10.89,0,0,0,3.063.707Z" transform="translate(-65.631 -76.418)" fill-rule="evenodd" fill="url(#linear-gradient-5)"/>
  </g>
  <g id="Group_20016" data-name="Group 20016" transform="translate(11.75 14.052)">
    <path id="Path_13137" data-name="Path 13137" d="M64.527,78.614c1.966-2.731,6.913-3.428,11.047-1.56s5.9,5.6,3.932,8.327-6.917,3.428-11.053,1.56S62.561,81.345,64.527,78.614Zm7.126,9.2a11.132,11.132,0,0,0,3.11.016,8.524,8.524,0,0,0,2.71-.837,5.558,5.558,0,0,0,1.956-1.644,4.1,4.1,0,0,0,.785-2.164,4.59,4.59,0,0,0-.468-2.273,6.791,6.791,0,0,0-1.6-2.111,9.817,9.817,0,0,0-2.61-1.691,11.629,11.629,0,0,0-3.162-.915,10.755,10.755,0,0,0-3.11-.016,8.24,8.24,0,0,0-2.7.837A5.45,5.45,0,0,0,64.6,78.651a4.148,4.148,0,0,0-.791,2.169,4.639,4.639,0,0,0,.468,2.268,6.909,6.909,0,0,0,1.6,2.117A9.9,9.9,0,0,0,68.49,86.89,11.886,11.886,0,0,0,71.653,87.81Z" transform="translate(-63.722 -76.007)" fill-rule="evenodd" fill="url(#linear-gradient-6)"/>
  </g>
  <g id="Group_20017" data-name="Group 20017" transform="translate(11.394 13.951)">
    <path id="Path_13138" data-name="Path 13138" d="M62.856,77.663c2.262-2.585,7.51-2.934,11.713-.785s5.784,6,3.516,8.582-7.511,2.939-11.718.785S60.588,80.253,62.856,77.663Zm6.809,9.669a12.252,12.252,0,0,0,3.266.234,9.2,9.2,0,0,0,2.9-.65,5.81,5.81,0,0,0,2.174-1.5A4.031,4.031,0,0,0,79,83.312a4.381,4.381,0,0,0-.328-2.3,6.8,6.8,0,0,0-1.524-2.221,10.289,10.289,0,0,0-2.616-1.862,12.765,12.765,0,0,0-3.251-1.139,12.466,12.466,0,0,0-3.266-.234,9.132,9.132,0,0,0-2.9.65,5.768,5.768,0,0,0-2.174,1.5,4.03,4.03,0,0,0-.987,2.106,4.424,4.424,0,0,0,.322,2.3A6.9,6.9,0,0,0,63.8,84.331a10.347,10.347,0,0,0,2.611,1.862,12.609,12.609,0,0,0,3.256,1.139Z" transform="translate(-61.819 -75.47)" fill-rule="evenodd" fill="url(#linear-gradient-7)"/>
  </g>
  <g id="Group_20018" data-name="Group 20018" transform="translate(11.039 13.816)">
    <path id="Path_13139" data-name="Path 13139" d="M61.22,76.559c2.569-2.424,8.1-2.408,12.363.036s5.628,6.376,3.058,8.8-8.1,2.409-12.358-.032S58.655,78.983,61.22,76.559Zm6.444,10.121a13.556,13.556,0,0,0,3.407.458,10.076,10.076,0,0,0,3.1-.442,6.145,6.145,0,0,0,2.392-1.347,3.961,3.961,0,0,0,1.191-2.034A4.2,4.2,0,0,0,77.582,81a6.8,6.8,0,0,0-1.441-2.32,10.786,10.786,0,0,0-2.606-2.044A13.893,13.893,0,0,0,70.2,75.28a13.6,13.6,0,0,0-3.411-.463,10.2,10.2,0,0,0-3.095.442A6.11,6.11,0,0,0,61.3,76.606a3.911,3.911,0,0,0-1.191,2.034,4.149,4.149,0,0,0,.172,2.314,6.7,6.7,0,0,0,1.436,2.32,10.922,10.922,0,0,0,2.611,2.044,14.128,14.128,0,0,0,3.334,1.363Z" transform="translate(-59.927 -74.752)" fill-rule="evenodd" fill="url(#linear-gradient-8)"/>
  </g>
  <g id="Group_20019" data-name="Group 20019" transform="translate(10.69 13.652)">
    <path id="Path_13140" data-name="Path 13140" d="M59.65,75.323c2.871-2.236,8.681-1.836,12.977.895s5.44,6.756,2.564,8.992-8.686,1.836-12.977-.895S56.773,77.559,59.65,75.323Zm6.018,10.543a14.979,14.979,0,0,0,3.547.7,11.425,11.425,0,0,0,3.287-.224,6.664,6.664,0,0,0,2.611-1.176,3.969,3.969,0,0,0,1.4-1.945,4.023,4.023,0,0,0-.01-2.325,6.688,6.688,0,0,0-1.342-2.413,11.2,11.2,0,0,0-2.59-2.221,14.831,14.831,0,0,0-3.4-1.592,15.026,15.026,0,0,0-3.547-.7,11.217,11.217,0,0,0-3.287.229,6.666,6.666,0,0,0-2.611,1.176,3.925,3.925,0,0,0-1.4,1.94,3.979,3.979,0,0,0,.01,2.325,6.612,6.612,0,0,0,1.342,2.413,11.166,11.166,0,0,0,2.585,2.221,14.972,14.972,0,0,0,3.4,1.591Z" transform="translate(-58.066 -73.877)" fill-rule="evenodd" fill="url(#linear-gradient-9)"/>
  </g>
  <g id="Group_20020" data-name="Group 20020" transform="translate(10.349 13.446)">
    <path id="Path_13141" data-name="Path 13141" d="M58.142,73.9c3.183-2.034,9.253-1.227,13.559,1.8s5.217,7.12,2.034,9.149-9.253,1.227-13.559-1.8S54.959,75.924,58.142,73.9Zm5.545,10.938a16.692,16.692,0,0,0,3.677.942,12.461,12.461,0,0,0,3.464.005,7.178,7.178,0,0,0,2.829-.993,3.982,3.982,0,0,0,1.612-1.841,3.781,3.781,0,0,0,.156-2.314,6.469,6.469,0,0,0-1.228-2.5,11.589,11.589,0,0,0-2.554-2.4,15.951,15.951,0,0,0-3.454-1.826,16.694,16.694,0,0,0-3.677-.941,12.661,12.661,0,0,0-3.464-.005,7.177,7.177,0,0,0-2.829.993,3.981,3.981,0,0,0-1.613,1.841,3.835,3.835,0,0,0-.161,2.32,6.554,6.554,0,0,0,1.233,2.5,11.572,11.572,0,0,0,2.554,2.393,15.951,15.951,0,0,0,3.454,1.825Z" transform="translate(-56.243 -72.774)" fill-rule="evenodd" fill="url(#linear-gradient-9)"/>
  </g>
  <g id="Group_20021" data-name="Group 20021" transform="translate(10.016 13.205)">
    <path id="Path_13142" data-name="Path 13142" d="M56.709,72.323c3.49-1.8,9.809-.577,14.106,2.741s4.957,7.469,1.467,9.268-9.809.577-14.111-2.741S53.219,74.127,56.709,72.323Zm5.019,11.3a17.708,17.708,0,0,0,3.792,1.2,13.591,13.591,0,0,0,3.641.244,7.879,7.879,0,0,0,3.037-.791,4.1,4.1,0,0,0,1.831-1.722,3.627,3.627,0,0,0,.338-2.3,6.318,6.318,0,0,0-1.108-2.58,11.867,11.867,0,0,0-2.507-2.568,17.131,17.131,0,0,0-3.49-2.06,17.806,17.806,0,0,0-3.792-1.2A13.608,13.608,0,0,0,59.83,71.6a7.931,7.931,0,0,0-3.043.791,4.114,4.114,0,0,0-1.826,1.722,3.627,3.627,0,0,0-.337,2.3,6.248,6.248,0,0,0,1.108,2.58,11.638,11.638,0,0,0,2.506,2.568,17.129,17.129,0,0,0,3.49,2.06Z" transform="translate(-54.466 -71.49)" fill-rule="evenodd" fill="url(#linear-gradient-9)"/>
  </g>
  <g id="Group_20022" data-name="Group 20022" transform="translate(9.693 12.924)">
    <path id="Path_13143" data-name="Path 13143" d="M55.358,70.572c3.8-1.555,10.34.109,14.61,3.719s4.655,7.8.858,9.352-10.34-.109-14.615-3.719S51.556,72.127,55.358,70.572ZM59.8,82.192a19.352,19.352,0,0,0,3.89,1.461,15.242,15.242,0,0,0,3.807.5,8.723,8.723,0,0,0,3.251-.577,4.292,4.292,0,0,0,2.044-1.592,3.5,3.5,0,0,0,.525-2.273,6.118,6.118,0,0,0-.973-2.653A12.029,12.029,0,0,0,69.9,74.322a17.751,17.751,0,0,0-3.516-2.3,19.356,19.356,0,0,0-3.89-1.461,15.268,15.268,0,0,0-3.807-.5,8.828,8.828,0,0,0-3.251.577,4.316,4.316,0,0,0-2.049,1.6,3.5,3.5,0,0,0-.52,2.267,6.119,6.119,0,0,0,.973,2.653,11.68,11.68,0,0,0,2.445,2.735,17.754,17.754,0,0,0,3.517,2.3Z" transform="translate(-52.74 -69.99)" fill-rule="evenodd" fill="url(#linear-gradient-12)"/>
  </g>
  <g id="Group_20023" data-name="Group 20023" transform="translate(9.386 12.609)">
    <path id="Path_13144" data-name="Path 13144" d="M54.117,68.685c4.1-1.29,10.855.827,15.073,4.728s4.317,8.1.213,9.388-10.849-.832-15.073-4.728S50.018,69.97,54.117,68.685Zm3.813,11.9a21.326,21.326,0,0,0,3.979,1.727,16.988,16.988,0,0,0,3.958.765,9.767,9.767,0,0,0,3.459-.348,4.517,4.517,0,0,0,2.268-1.451,3.387,3.387,0,0,0,.718-2.226,5.908,5.908,0,0,0-.832-2.715,12,12,0,0,0-2.36-2.9A19.087,19.087,0,0,0,65.592,70.9a21.027,21.027,0,0,0-3.979-1.727,16.613,16.613,0,0,0-3.958-.759,9.518,9.518,0,0,0-3.454.348A4.471,4.471,0,0,0,51.934,70.2a3.359,3.359,0,0,0-.719,2.226,5.9,5.9,0,0,0,.827,2.715,12.054,12.054,0,0,0,2.366,2.9,19.057,19.057,0,0,0,3.521,2.538Z" transform="translate(-51.104 -68.307)" fill-rule="evenodd" fill="url(#linear-gradient-13)"/>
  </g>
  <g id="Group_20024" data-name="Group 20024" transform="translate(9.094 12.254)">
    <path id="Path_13145" data-name="Path 13145" d="M52.991,66.627c4.4-.993,11.334,1.586,15.478,5.768s3.937,8.384-.468,9.383S56.667,80.191,52.523,76.01,48.586,67.625,52.991,66.627Zm3.126,12.139a22.748,22.748,0,0,0,4.052,2,18.425,18.425,0,0,0,4.1,1.035,10.679,10.679,0,0,0,3.656-.1,4.865,4.865,0,0,0,2.486-1.285,3.311,3.311,0,0,0,.921-2.174,5.7,5.7,0,0,0-.671-2.767,11.931,11.931,0,0,0-2.273-3.058,19.533,19.533,0,0,0-3.511-2.777,22.375,22.375,0,0,0-4.052-2,18.432,18.432,0,0,0-4.1-1.04,10.653,10.653,0,0,0-3.651.1,4.9,4.9,0,0,0-2.492,1.285,3.318,3.318,0,0,0-.915,2.179,5.633,5.633,0,0,0,.671,2.762,11.929,11.929,0,0,0,2.273,3.058,19.545,19.545,0,0,0,3.51,2.778Z" transform="translate(-49.546 -66.414)" fill-rule="evenodd" fill="url(#linear-gradient-14)"/>
  </g>
  <g id="Group_20025" data-name="Group 20025" transform="translate(8.819 11.866)">
    <path id="Path_13146" data-name="Path 13146" d="M51.975,64.438c4.7-.687,11.786,2.372,15.832,6.834s3.522,8.639-1.175,9.326S54.847,78.226,50.8,73.764,47.279,65.125,51.975,64.438Zm2.392,12.327a24.019,24.019,0,0,0,4.109,2.278,19.9,19.9,0,0,0,4.228,1.321,11.8,11.8,0,0,0,3.849.15,5.253,5.253,0,0,0,2.7-1.108A3.241,3.241,0,0,0,70.383,77.3a5.4,5.4,0,0,0-.5-2.8,11.865,11.865,0,0,0-2.159-3.209,20.09,20.09,0,0,0-3.484-3.016,23.631,23.631,0,0,0-4.109-2.278A20.03,20.03,0,0,0,55.9,64.672a11.773,11.773,0,0,0-3.844-.151,5.214,5.214,0,0,0-2.7,1.108,3.241,3.241,0,0,0-1.124,2.106,5.405,5.405,0,0,0,.5,2.809,12.185,12.185,0,0,0,2.164,3.209,20.251,20.251,0,0,0,3.48,3.011Z" transform="translate(-48.078 -64.342)" fill-rule="evenodd" fill="url(#linear-gradient-15)"/>
  </g>
  <g id="Group_20026" data-name="Group 20026" transform="translate(8.562 11.449)">
    <path id="Path_13147" data-name="Path 13147" d="M51.089,62.138c4.983-.359,12.2,3.188,16.118,7.921s3.063,8.857-1.919,9.217-12.2-3.188-16.123-7.921S46.107,62.5,51.089,62.138ZM52.7,74.6a25.244,25.244,0,0,0,4.145,2.559,21.851,21.851,0,0,0,4.343,1.612,12.977,12.977,0,0,0,4.031.416,5.667,5.667,0,0,0,2.922-.915,3.241,3.241,0,0,0,1.332-2.023,5.078,5.078,0,0,0-.322-2.829,11.717,11.717,0,0,0-2.034-3.355,20.8,20.8,0,0,0-3.433-3.251,25.642,25.642,0,0,0-4.15-2.559,21.61,21.61,0,0,0-4.343-1.612,12.935,12.935,0,0,0-4.026-.416,5.718,5.718,0,0,0-2.922.915,3.22,3.22,0,0,0-1.331,2.023A5.143,5.143,0,0,0,47.224,68a11.887,11.887,0,0,0,2.034,3.35A20.828,20.828,0,0,0,52.7,74.6Z" transform="translate(-46.706 -62.113)" fill-rule="evenodd" fill="url(#linear-gradient-16)"/>
  </g>
  <g id="Group_20027" data-name="Group 20027" transform="translate(8.326 11)">
    <path id="Path_13148" data-name="Path 13148" d="M50.335,59.72c5.258-.01,12.581,4.031,16.347,9.024s2.564,9.055-2.694,9.066S51.411,73.778,47.64,68.78,45.076,59.725,50.335,59.72Zm.775,12.545a27.224,27.224,0,0,0,4.166,2.84,23.769,23.769,0,0,0,4.442,1.914,14.556,14.556,0,0,0,4.2.7A6.31,6.31,0,0,0,67.056,77,3.25,3.25,0,0,0,68.6,75.079a4.928,4.928,0,0,0-.125-2.85,11.6,11.6,0,0,0-1.893-3.484,21.315,21.315,0,0,0-3.365-3.484,27.015,27.015,0,0,0-4.171-2.841A23.608,23.608,0,0,0,54.6,60.505a14.3,14.3,0,0,0-4.2-.692,6.235,6.235,0,0,0-3.136.707,3.277,3.277,0,0,0-1.55,1.925,4.932,4.932,0,0,0,.13,2.85,11.694,11.694,0,0,0,1.888,3.484,21.576,21.576,0,0,0,3.37,3.485Z" transform="translate(-45.445 -59.72)" fill-rule="evenodd" fill="url(#linear-gradient-17)"/>
  </g>
  <g id="Group_20028" data-name="Group 20028" transform="translate(8.115 10.521)">
    <path id="Path_13149" data-name="Path 13149" d="M49.742,57.181c5.524.359,12.914,4.9,16.5,10.147s2.028,9.211-3.5,8.852-12.908-4.9-16.5-10.147S44.224,56.827,49.742,57.181Zm-.1,12.57A28.1,28.1,0,0,0,53.8,72.877a25.386,25.386,0,0,0,4.525,2.216,15.766,15.766,0,0,0,4.353.988,6.887,6.887,0,0,0,3.35-.489,3.332,3.332,0,0,0,1.763-1.81,4.7,4.7,0,0,0,.078-2.855,11.467,11.467,0,0,0-1.732-3.61,21.586,21.586,0,0,0-3.282-3.709,28.089,28.089,0,0,0-4.166-3.126,25.389,25.389,0,0,0-4.525-2.214,15.948,15.948,0,0,0-4.359-.989,6.938,6.938,0,0,0-3.344.489A3.324,3.324,0,0,0,44.7,59.583a4.642,4.642,0,0,0-.078,2.85,11.449,11.449,0,0,0,1.727,3.61,21.437,21.437,0,0,0,3.287,3.709Z" transform="translate(-44.319 -57.159)" fill-rule="evenodd" fill="url(#linear-gradient-18)"/>
  </g>
  <g id="Group_20029" data-name="Group 20029" transform="translate(7.924 10.02)">
    <path id="Path_13150" data-name="Path 13150" d="M49.286,54.578c5.773.744,13.2,5.789,16.586,11.276s1.451,9.326-4.322,8.587-13.2-5.789-16.586-11.271S43.512,53.839,49.286,54.578ZM48.251,67.112A28.879,28.879,0,0,0,52.4,70.519a26.529,26.529,0,0,0,4.587,2.528,17.377,17.377,0,0,0,4.5,1.29,7.645,7.645,0,0,0,3.547-.255A3.433,3.433,0,0,0,67.02,72.4a4.46,4.46,0,0,0,.291-2.84,11.188,11.188,0,0,0-1.55-3.719,21.879,21.879,0,0,0-3.178-3.932A29.213,29.213,0,0,0,58.439,58.5a27.074,27.074,0,0,0-4.587-2.527,17.372,17.372,0,0,0-4.5-1.29,7.645,7.645,0,0,0-3.547.255,3.433,3.433,0,0,0-1.987,1.686,4.425,4.425,0,0,0-.291,2.84,11.037,11.037,0,0,0,1.55,3.719A21.881,21.881,0,0,0,48.251,67.112Z" transform="translate(-43.296 -54.487)" fill-rule="evenodd" fill="url(#linear-gradient-19)"/>
  </g>
  <g id="Group_20030" data-name="Group 20030" transform="translate(7.757 9.503)">
    <path id="Path_13151" data-name="Path 13151" d="M48.985,51.934c6.007,1.139,13.435,6.694,16.586,12.4s.843,9.409-5.165,8.265S46.973,65.9,43.821,60.2,42.978,50.79,48.985,51.934ZM46.978,64.359a29.825,29.825,0,0,0,4.1,3.693,28.949,28.949,0,0,0,4.629,2.84,18.865,18.865,0,0,0,4.634,1.6,8.427,8.427,0,0,0,3.745-.01,3.626,3.626,0,0,0,2.216-1.54,4.269,4.269,0,0,0,.51-2.814,10.633,10.633,0,0,0-1.357-3.818,21.584,21.584,0,0,0-3.043-4.14,29.763,29.763,0,0,0-4.1-3.688,28.439,28.439,0,0,0-4.634-2.845,18.932,18.932,0,0,0-4.634-1.6,8.43,8.43,0,0,0-3.745.01,3.632,3.632,0,0,0-2.211,1.54,4.275,4.275,0,0,0-.51,2.814,10.68,10.68,0,0,0,1.352,3.818,21.681,21.681,0,0,0,3.048,4.14Z" transform="translate(-42.409 -51.726)" fill-rule="evenodd" fill="url(#linear-gradient-20)"/>
  </g>
  <g id="Group_20031" data-name="Group 20031" transform="translate(7.614 8.967)">
    <path id="Path_13152" data-name="Path 13152" d="M48.837,49.234c6.226,1.56,13.617,7.615,16.508,13.528s.187,9.445-6.033,7.885S45.7,63.033,42.8,57.119,42.611,47.674,48.837,49.234ZM45.815,61.493a30.987,30.987,0,0,0,4.036,3.963,30.389,30.389,0,0,0,4.655,3.162,20.71,20.71,0,0,0,4.748,1.919,9.378,9.378,0,0,0,3.937.255,3.866,3.866,0,0,0,2.434-1.383,4.136,4.136,0,0,0,.744-2.773,10.21,10.21,0,0,0-1.144-3.906,21.57,21.57,0,0,0-2.892-4.342A30.991,30.991,0,0,0,58.3,54.425a30.186,30.186,0,0,0-4.66-3.162,20.528,20.528,0,0,0-4.749-1.919,9.346,9.346,0,0,0-3.932-.25,3.808,3.808,0,0,0-2.434,1.383,4.111,4.111,0,0,0-.744,2.767,10.207,10.207,0,0,0,1.144,3.906A21.353,21.353,0,0,0,45.815,61.493Z" transform="translate(-41.644 -48.865)" fill-rule="evenodd" fill="url(#linear-gradient-21)"/>
  </g>
  <g id="Group_20032" data-name="Group 20032" transform="translate(7.494 8.423)">
    <path id="Path_13153" data-name="Path 13153" d="M48.844,46.537c6.418,1.987,13.736,8.545,16.336,14.646s-.489,9.435-6.913,7.443S44.532,60.081,41.926,53.98,42.42,44.551,48.844,46.537ZM44.766,58.552a32.436,32.436,0,0,0,8.608,7.713,21.9,21.9,0,0,0,4.847,2.247,10.242,10.242,0,0,0,4.109.531,4.134,4.134,0,0,0,2.658-1.212,3.948,3.948,0,0,0,.983-2.71,9.778,9.778,0,0,0-.91-3.974,21.285,21.285,0,0,0-2.72-4.535,31,31,0,0,0-3.947-4.239A31.371,31.371,0,0,0,53.738,48.9a21.892,21.892,0,0,0-4.847-2.247,10.283,10.283,0,0,0-4.115-.53,4.146,4.146,0,0,0-2.658,1.212,4,4,0,0,0-.983,2.71,9.858,9.858,0,0,0,.915,3.974,21.329,21.329,0,0,0,2.715,4.535Z" transform="translate(-41.005 -45.963)" fill-rule="evenodd" fill="url(#linear-gradient-22)"/>
  </g>
  <g id="Group_20033" data-name="Group 20033" transform="translate(7.399 7.867)">
    <path id="Path_13154" data-name="Path 13154" d="M49,43.825c6.6,2.429,13.8,9.482,16.082,15.749s-1.207,9.378-7.807,6.943S43.484,57.036,41.2,50.769,42.409,41.391,49,43.825Zm-5.159,11.7a31.282,31.282,0,0,0,3.838,4.5,32.84,32.84,0,0,0,4.634,3.792,23.387,23.387,0,0,0,4.92,2.58,11.381,11.381,0,0,0,4.28.811A4.488,4.488,0,0,0,64.4,66.2a3.884,3.884,0,0,0,1.227-2.637,9.331,9.331,0,0,0-.661-4.031,21.258,21.258,0,0,0-2.522-4.712,31.969,31.969,0,0,0-3.838-4.5,33.162,33.162,0,0,0-4.634-3.792,23.77,23.77,0,0,0-4.92-2.579,11.381,11.381,0,0,0-4.281-.811,4.488,4.488,0,0,0-2.881,1.019,3.912,3.912,0,0,0-1.233,2.637,9.425,9.425,0,0,0,.666,4.031,21.048,21.048,0,0,0,2.523,4.712Z" transform="translate(-40.497 -42.996)" fill-rule="evenodd" fill="url(#linear-gradient-23)"/>
  </g>
  <g id="Group_20034" data-name="Group 20034" transform="translate(7.326 7.31)">
    <path id="Path_13155" data-name="Path 13155" d="M49.316,41.149C56.062,44.035,63.1,51.572,65.044,57.979s-1.956,9.269-8.707,6.382S42.544,53.943,40.6,47.531,42.565,38.262,49.316,41.149ZM43.038,52.461a31.45,31.45,0,0,0,3.693,4.758,33.656,33.656,0,0,0,4.593,4.109A25.022,25.022,0,0,0,56.3,64.241a12.436,12.436,0,0,0,4.437,1.113,4.861,4.861,0,0,0,3.095-.822,3.812,3.812,0,0,0,1.488-2.543,8.9,8.9,0,0,0-.4-4.062,20.323,20.323,0,0,0-2.3-4.879,31.844,31.844,0,0,0-3.7-4.758,33.663,33.663,0,0,0-4.587-4.109,25.015,25.015,0,0,0-4.978-2.913,12.548,12.548,0,0,0-4.437-1.113,4.886,4.886,0,0,0-3.1.822,3.852,3.852,0,0,0-1.487,2.543,8.986,8.986,0,0,0,.406,4.062A20.228,20.228,0,0,0,43.038,52.461Z" transform="translate(-40.108 -40.023)" fill-rule="evenodd" fill="url(#linear-gradient-24)"/>
  </g>
  <g id="Group_20035" data-name="Group 20035" transform="translate(7.277 6.75)">
    <path id="Path_13156" data-name="Path 13156" d="M49.779,38.5C56.65,41.85,63.494,49.86,65.06,56.393S62.325,65.5,55.448,62.15,41.733,50.791,40.167,44.258,42.9,35.151,49.779,38.5ZM42.357,49.35a31.67,31.67,0,0,0,3.531,5.009A35.1,35.1,0,0,0,50.4,58.775a26.733,26.733,0,0,0,5.014,3.256,13.7,13.7,0,0,0,4.577,1.415,5.391,5.391,0,0,0,3.313-.6,3.853,3.853,0,0,0,1.747-2.434,8.461,8.461,0,0,0-.125-4.083A19.882,19.882,0,0,0,62.87,51.3a31.4,31.4,0,0,0-3.531-5,34.434,34.434,0,0,0-4.515-4.416A26.1,26.1,0,0,0,49.8,38.626a13.535,13.535,0,0,0-4.571-1.42,5.353,5.353,0,0,0-3.313.6,3.842,3.842,0,0,0-1.748,2.429,8.543,8.543,0,0,0,.12,4.088,19.955,19.955,0,0,0,2.065,5.024Z" transform="translate(-39.846 -37.033)" fill-rule="evenodd" fill="url(#linear-gradient-25)"/>
  </g>
  <g id="Group_20036" data-name="Group 20036" transform="translate(7.24 6.194)">
    <path id="Path_13157" data-name="Path 13157" d="M50.34,35.914c6.975,3.823,13.57,12.29,14.735,18.916s-3.542,8.894-10.517,5.077-13.57-12.29-14.735-18.916S43.371,32.1,50.34,35.914ZM41.753,46.223a30.892,30.892,0,0,0,3.339,5.238,35,35,0,0,0,4.421,4.723,27.939,27.939,0,0,0,5.024,3.6,14.911,14.911,0,0,0,4.7,1.732,5.894,5.894,0,0,0,3.522-.369,3.931,3.931,0,0,0,2.018-2.3,8.132,8.132,0,0,0,.167-4.083,19.065,19.065,0,0,0-1.8-5.158,31.543,31.543,0,0,0-3.339-5.238,35.665,35.665,0,0,0-4.421-4.723,27.936,27.936,0,0,0-5.024-3.6,14.989,14.989,0,0,0-4.7-1.732,5.949,5.949,0,0,0-3.526.369,3.923,3.923,0,0,0-2.012,2.3,8.016,8.016,0,0,0-.166,4.083,19.068,19.068,0,0,0,1.795,5.16Z" transform="translate(-39.647 -34.062)" fill-rule="evenodd" fill="url(#linear-gradient-26)"/>
  </g>
  <g id="Group_20037" data-name="Group 20037" transform="translate(7.219 5.105)">
    <path id="Path_13158" data-name="Path 13158" d="M51.851,31.015c7.074,4.775,13.044,14.1,13.325,20.825s-5.227,8.3-12.306,3.526S39.826,41.262,39.545,34.536,44.772,26.236,51.851,31.015ZM40.871,39.988a30.164,30.164,0,0,0,2.876,5.669,36.2,36.2,0,0,0,4.14,5.3,29.987,29.987,0,0,0,4.977,4.28,16.987,16.987,0,0,0,4.9,2.387,7.276,7.276,0,0,0,3.922.141,4.215,4.215,0,0,0,2.559-2,7.318,7.318,0,0,0,.8-4.015A17.567,17.567,0,0,0,63.85,46.39a30.165,30.165,0,0,0-2.881-5.664,35.557,35.557,0,0,0-4.14-5.305,29.747,29.747,0,0,0-4.972-4.28,17.19,17.19,0,0,0-4.9-2.387,7.28,7.28,0,0,0-3.922-.141,4.2,4.2,0,0,0-2.559,2,7.374,7.374,0,0,0-.8,4.015A17.582,17.582,0,0,0,40.871,39.988Z" transform="translate(-39.534 -28.251)" fill-rule="evenodd" fill="url(#linear-gradient-27)"/>
  </g>
  <g id="Group_20038" data-name="Group 20038" transform="translate(7.226 5.643)">
    <path id="Path_13159" data-name="Path 13159" d="M51.056,33.412c7.042,4.3,13.351,13.206,14.085,19.894s-4.374,8.629-11.416,4.327S40.378,44.428,39.644,37.739,44.018,29.111,51.056,33.412Zm-9.778,9.679A31.3,31.3,0,0,0,44.4,48.552a36.112,36.112,0,0,0,4.29,5.019,29.2,29.2,0,0,0,5.019,3.937,15.841,15.841,0,0,0,4.806,2.054,6.5,6.5,0,0,0,3.729-.12,4.009,4.009,0,0,0,2.284-2.159,7.725,7.725,0,0,0,.478-4.062A18.465,18.465,0,0,0,63.5,47.954a30.943,30.943,0,0,0-3.121-5.461,35.8,35.8,0,0,0-4.3-5.019,28.963,28.963,0,0,0-5.014-3.937,15.839,15.839,0,0,0-4.806-2.054,6.5,6.5,0,0,0-3.729.12,4.026,4.026,0,0,0-2.283,2.159,7.723,7.723,0,0,0-.478,4.062A18.452,18.452,0,0,0,41.278,43.091Z" transform="translate(-39.573 -31.124)" fill-rule="evenodd" fill="url(#linear-gradient-28)"/>
  </g>
  <g id="Group_20039" data-name="Group 20039" transform="translate(7.214 4.579)">
    <path id="Path_13160" data-name="Path 13160" d="M52.7,28.72C59.779,33.985,65.359,43.7,65.162,50.43s-6.1,7.916-13.18,2.658S39.323,38.108,39.515,31.378,45.616,23.462,52.7,28.72ZM40.509,36.912a29.562,29.562,0,0,0,2.611,5.851,35.571,35.571,0,0,0,3.957,5.581,30.768,30.768,0,0,0,4.91,4.614,18.344,18.344,0,0,0,4.967,2.725,7.958,7.958,0,0,0,4.109.411,4.4,4.4,0,0,0,2.829-1.81,7.117,7.117,0,0,0,1.139-3.953,16.793,16.793,0,0,0-.863-5.435,29.37,29.37,0,0,0-2.606-5.851,36.283,36.283,0,0,0-3.956-5.581,30.765,30.765,0,0,0-4.91-4.613,18.421,18.421,0,0,0-4.967-2.725,8.016,8.016,0,0,0-4.109-.411,4.426,4.426,0,0,0-2.835,1.81,7.131,7.131,0,0,0-1.134,3.953A16.931,16.931,0,0,0,40.509,36.912Z" transform="translate(-39.51 -25.44)" fill-rule="evenodd" fill="url(#linear-gradient-29)"/>
  </g>
  <g id="Group_20040" data-name="Group 20040" transform="translate(7.217 4.069)">
    <path id="Path_13161" data-name="Path 13161" d="M53.623,26.567c7.048,5.742,12.2,15.827,11.495,22.526s-6.985,7.469-14.033,1.727S38.889,34.993,39.591,28.3,46.571,20.824,53.623,26.567Zm-13.4,7.318A28.378,28.378,0,0,0,42.535,39.9a35.393,35.393,0,0,0,3.745,5.846A31.558,31.558,0,0,0,51.1,50.695a19.534,19.534,0,0,0,5.019,3.064,8.842,8.842,0,0,0,4.286.7,4.721,4.721,0,0,0,3.105-1.607,6.935,6.935,0,0,0,1.482-3.864,16.043,16.043,0,0,0-.5-5.482,28.649,28.649,0,0,0-2.309-6.018,35.733,35.733,0,0,0-3.745-5.846,31.573,31.573,0,0,0-4.821-4.946,19.414,19.414,0,0,0-5.014-3.064,8.851,8.851,0,0,0-4.286-.7A4.7,4.7,0,0,0,41.2,24.544,6.866,6.866,0,0,0,39.721,28.4,15.923,15.923,0,0,0,40.225,33.885Z" transform="translate(-39.527 -22.72)" fill-rule="evenodd" fill="url(#linear-gradient-30)"/>
  </g>
  <g id="Group_20041" data-name="Group 20041" transform="translate(7.205 3.58)">
    <path id="Path_13162" data-name="Path 13162" d="M54.522,24.564c6.985,6.221,11.645,16.638,10.418,23.27s-7.88,6.964-14.865.744S38.429,31.939,39.657,25.308,47.542,18.343,54.522,24.564Zm-14.6,6.361A27.672,27.672,0,0,0,41.9,37.093,35.1,35.1,0,0,0,45.4,43.184a32.06,32.06,0,0,0,4.7,5.274,20.582,20.582,0,0,0,5.039,3.4,9.7,9.7,0,0,0,4.447,1,5.1,5.1,0,0,0,3.381-1.394,6.7,6.7,0,0,0,1.841-3.75,15.2,15.2,0,0,0-.125-5.5A27.672,27.672,0,0,0,62.7,36.049,35.286,35.286,0,0,0,59.2,29.958a32.055,32.055,0,0,0-4.7-5.269,20.39,20.39,0,0,0-5.045-3.407,9.652,9.652,0,0,0-4.447-.993,5.122,5.122,0,0,0-3.381,1.387,6.751,6.751,0,0,0-1.836,3.75A15.184,15.184,0,0,0,39.918,30.925Z" transform="translate(-39.461 -20.108)" fill-rule="evenodd" fill="url(#linear-gradient-31)"/>
  </g>
  <g id="Group_20042" data-name="Group 20042" transform="translate(7.186 3.111)">
    <path id="Path_13163" data-name="Path 13163" d="M55.432,22.713c6.875,6.694,11.011,17.413,9.232,23.941s-8.79,6.4-15.666-.291S37.993,28.954,39.771,22.422,48.561,16.019,55.432,22.713ZM39.626,28.044a26.611,26.611,0,0,0,1.628,6.288,34.69,34.69,0,0,0,3.235,6.319,32.065,32.065,0,0,0,4.546,5.586,21.382,21.382,0,0,0,5.045,3.75,10.594,10.594,0,0,0,4.6,1.306,5.588,5.588,0,0,0,3.651-1.149,6.683,6.683,0,0,0,2.205-3.615,14.431,14.431,0,0,0,.271-5.5,26.135,26.135,0,0,0-1.628-6.288,34.512,34.512,0,0,0-3.23-6.319A32.061,32.061,0,0,0,55.4,22.838a21.383,21.383,0,0,0-5.045-3.75,10.672,10.672,0,0,0-4.6-1.306,5.553,5.553,0,0,0-3.651,1.155,6.643,6.643,0,0,0-2.205,3.61A14.406,14.406,0,0,0,39.626,28.044Z" transform="translate(-39.358 -17.606)" fill-rule="evenodd" fill="url(#linear-gradient-32)"/>
  </g>
  <g id="Group_20043" data-name="Group 20043" transform="translate(7.141 2.672)">
    <path id="Path_13164" data-name="Path 13164" d="M56.268,21.065C63,28.217,66.551,39.2,64.205,45.587s-9.7,5.773-16.425-1.383S37.5,26.068,39.843,19.682,49.543,13.908,56.268,21.065ZM39.281,25.278a24.987,24.987,0,0,0,1.248,6.387A33.491,33.491,0,0,0,43.458,38.2a32.554,32.554,0,0,0,4.364,5.888,22.289,22.289,0,0,0,5.024,4.093A11.515,11.515,0,0,0,57.574,49.8a6.075,6.075,0,0,0,3.922-.889,6.723,6.723,0,0,0,2.58-3.448,13.72,13.72,0,0,0,.692-5.466A25.259,25.259,0,0,0,63.519,33.6a33.516,33.516,0,0,0-2.933-6.533,32.293,32.293,0,0,0-4.359-5.888A22.289,22.289,0,0,0,51.2,17.091a11.538,11.538,0,0,0-4.733-1.617,6.093,6.093,0,0,0-3.916.889,6.7,6.7,0,0,0-2.585,3.454A13.789,13.789,0,0,0,39.281,25.278Z" transform="translate(-39.12 -15.265)" fill-rule="evenodd" fill="url(#linear-gradient-33)"/>
  </g>
  <g id="Group_20044" data-name="Group 20044" transform="translate(7.067 2.26)">
    <path id="Path_13165" data-name="Path 13165" d="M57.008,19.6c6.543,7.609,9.466,18.807,6.533,25.022S52.931,49.7,46.393,42.094s-9.461-18.807-6.527-25.022S50.471,12,57.008,19.6ZM38.862,22.621a24.061,24.061,0,0,0,.843,6.46A32.594,32.594,0,0,0,42.3,35.8a32.212,32.212,0,0,0,4.15,6.184,23.1,23.1,0,0,0,4.973,4.427,12.414,12.414,0,0,0,4.852,1.95,6.7,6.7,0,0,0,4.176-.618,6.813,6.813,0,0,0,2.965-3.261,13.124,13.124,0,0,0,1.129-5.4,24.3,24.3,0,0,0-.843-6.46A32.313,32.313,0,0,0,61.1,25.9a31.98,31.98,0,0,0-4.145-6.179,22.993,22.993,0,0,0-4.971-4.432,12.417,12.417,0,0,0-4.852-1.95,6.722,6.722,0,0,0-4.182.618,6.839,6.839,0,0,0-2.965,3.261A13.19,13.19,0,0,0,38.862,22.621Z" transform="translate(-38.726 -13.065)" fill-rule="evenodd" fill="url(#linear-gradient-34)"/>
  </g>
  <g id="Group_20045" data-name="Group 20045" transform="translate(6.952 1.88)">
    <path id="Path_13166" data-name="Path 13166" d="M57.6,18.349c6.309,8.041,8.556,19.421,5.024,25.413S51.108,48.09,44.8,40.048,36.249,20.622,39.78,14.631,51.3,10.3,57.6,18.349ZM38.324,20.092A22.952,22.952,0,0,0,38.73,26.6a32.286,32.286,0,0,0,6.137,13.335,23.685,23.685,0,0,0,4.9,4.764,13.463,13.463,0,0,0,4.946,2.283,7.423,7.423,0,0,0,4.437-.322A7.049,7.049,0,0,0,62.5,43.61a12.727,12.727,0,0,0,1.576-5.31,22.725,22.725,0,0,0-.411-6.5,31.184,31.184,0,0,0-2.231-6.886,32.047,32.047,0,0,0-3.9-6.455,23.814,23.814,0,0,0-4.9-4.764,13.443,13.443,0,0,0-4.952-2.283,7.409,7.409,0,0,0-4.431.322A7.025,7.025,0,0,0,39.9,14.781a12.728,12.728,0,0,0-1.576,5.31Z" transform="translate(-38.109 -11.033)" fill-rule="evenodd" fill="url(#linear-gradient-35)"/>
  </g>
  <g id="Group_20046" data-name="Group 20046" transform="translate(6.786 1.533)">
    <path id="Path_13167" data-name="Path 13167" d="M58,17.317c6.033,8.462,7.557,19.972,3.407,25.7s-12.41,3.516-18.438-4.946-7.557-19.973-3.406-25.7S51.963,8.85,58,17.317Zm-20.373.4a21.78,21.78,0,0,0-.047,6.517,30.322,30.322,0,0,0,1.841,7.021,31.325,31.325,0,0,0,3.626,6.709,24.034,24.034,0,0,0,4.79,5.1,14.409,14.409,0,0,0,5.029,2.621,8.221,8.221,0,0,0,4.681-.016,7.369,7.369,0,0,0,3.745-2.8,12.324,12.324,0,0,0,2.049-5.191,21.918,21.918,0,0,0,.047-6.512,30.194,30.194,0,0,0-1.841-7.021,31.246,31.246,0,0,0-3.626-6.714,24.166,24.166,0,0,0-4.79-5.1A14.456,14.456,0,0,0,48.1,9.7a8.221,8.221,0,0,0-4.681.016,7.369,7.369,0,0,0-3.745,2.8A12.363,12.363,0,0,0,37.624,17.712Z" transform="translate(-37.221 -9.181)" fill-rule="evenodd" fill="url(#linear-gradient-36)"/>
  </g>
  <g id="Group_20047" data-name="Group 20047" transform="translate(6.556 1.219)">
    <path id="Path_13168" data-name="Path 13168" d="M58.14,16.5c5.711,8.868,6.47,20.451,1.69,25.881s-13.289,2.637-19-6.226-6.47-20.451-1.69-25.881S52.429,7.642,58.14,16.5ZM36.716,15.48a20.624,20.624,0,0,0-.525,6.5,28.73,28.73,0,0,0,1.415,7.136,30.451,30.451,0,0,0,3.312,6.943,24.335,24.335,0,0,0,4.66,5.419,15.158,15.158,0,0,0,5.087,2.965,9.025,9.025,0,0,0,4.915.312,7.805,7.805,0,0,0,4.14-2.533,12.068,12.068,0,0,0,2.528-5.035,20.618,20.618,0,0,0,.531-6.5,28.423,28.423,0,0,0-1.42-7.131,30.465,30.465,0,0,0-3.308-6.949,24.331,24.331,0,0,0-4.66-5.42A15.243,15.243,0,0,0,48.3,8.224a9.046,9.046,0,0,0-4.92-.312,7.812,7.812,0,0,0-4.135,2.533A12.077,12.077,0,0,0,36.716,15.48Z" transform="translate(-35.996 -7.509)" fill-rule="evenodd" fill="url(#linear-gradient-37)"/>
  </g>
  <g id="Group_20048" data-name="Group 20048" transform="translate(6.259 0.942)">
    <path id="Path_13169" data-name="Path 13169" d="M58,15.932c5.347,9.242,5.289,20.851-.125,25.933s-14.147,1.706-19.494-7.536S33.09,13.477,38.509,8.4,52.657,6.69,58,15.932ZM35.587,13.415a19.652,19.652,0,0,0-1.035,6.444,27.276,27.276,0,0,0,.967,7.214,29.82,29.82,0,0,0,2.965,7.162,24.751,24.751,0,0,0,4.494,5.733,16.237,16.237,0,0,0,5.128,3.313,10.023,10.023,0,0,0,5.139.656,8.4,8.4,0,0,0,4.531-2.243A11.979,11.979,0,0,0,60.8,36.846,19.8,19.8,0,0,0,61.837,30.4a27.5,27.5,0,0,0-.967-7.214,29.63,29.63,0,0,0-2.97-7.162,24.6,24.6,0,0,0-4.489-5.733A16.235,16.235,0,0,0,48.283,6.98a10.034,10.034,0,0,0-5.139-.655,8.386,8.386,0,0,0-4.535,2.247A11.929,11.929,0,0,0,35.587,13.415Z" transform="translate(-34.408 -6.03)" fill-rule="evenodd" fill="url(#linear-gradient-38)"/>
  </g>
  <g id="Group_20049" data-name="Group 20049" transform="translate(5.888 0.703)">
    <path id="Path_13170" data-name="Path 13170" d="M57.56,15.6c4.941,9.592,4.026,21.169-2.034,25.86s-14.979.718-19.92-8.878-4.02-21.169,2.039-25.86S52.624,6.006,57.56,15.6ZM34.207,11.525a18.982,18.982,0,0,0-1.56,6.356,26.225,26.225,0,0,0,.484,7.266A28.744,28.744,0,0,0,35.72,32.5a24.482,24.482,0,0,0,4.3,6.033A16.952,16.952,0,0,0,45.16,42.19,11,11,0,0,0,50.507,43.2a9.1,9.1,0,0,0,4.925-1.925,12.02,12.02,0,0,0,3.531-4.619,18.859,18.859,0,0,0,1.555-6.356,25.828,25.828,0,0,0-.484-7.266,28.349,28.349,0,0,0-2.59-7.349,24.428,24.428,0,0,0-4.3-6.033A16.95,16.95,0,0,0,48.01,6a10.973,10.973,0,0,0-5.346-1.009,9.041,9.041,0,0,0-4.925,1.919A11.975,11.975,0,0,0,34.207,11.525Z" transform="translate(-32.428 -4.754)" fill-rule="evenodd" fill="url(#linear-gradient-39)"/>
  </g>
  <g id="Group_20050" data-name="Group 20050" transform="translate(5.435 0.503)">
    <path id="Path_13171" data-name="Path 13171" d="M56.772,15.517c4.477,9.913,2.674,21.4-4.041,25.657s-15.78-.333-20.258-10.246S29.8,9.531,36.509,5.271,52.294,5.6,56.772,15.517Zm-24.227-5.7a18.177,18.177,0,0,0-2.1,6.231,24.733,24.733,0,0,0-.026,7.282A27.612,27.612,0,0,0,32.6,30.85a24.348,24.348,0,0,0,4.073,6.314A17.634,17.634,0,0,0,41.8,41.173a12.006,12.006,0,0,0,5.539,1.383,9.866,9.866,0,0,0,5.31-1.571A12.265,12.265,0,0,0,56.7,36.622a18.4,18.4,0,0,0,2.1-6.231,24.909,24.909,0,0,0,.026-7.282,27.614,27.614,0,0,0-2.179-7.516,24.477,24.477,0,0,0-4.073-6.313,17.7,17.7,0,0,0-5.128-4.01,12.008,12.008,0,0,0-5.539-1.383,9.943,9.943,0,0,0-5.316,1.571,12.2,12.2,0,0,0-4.046,4.364Z" transform="translate(-30.013 -3.683)" fill-rule="evenodd" fill="url(#linear-gradient-40)"/>
  </g>
  <g id="Group_20051" data-name="Group 20051" transform="translate(4.898 0.34)">
    <path id="Path_13172" data-name="Path 13172" d="M55.616,15.682c3.974,10.2,1.233,21.533-6.127,25.309s-16.545-1.431-20.524-11.63S27.733,7.823,35.093,4.047,51.638,5.478,55.616,15.682ZM30.594,8.312a17.741,17.741,0,0,0-2.663,6.07,23.446,23.446,0,0,0-.562,7.261,26.227,26.227,0,0,0,1.738,7.645,24.145,24.145,0,0,0,3.807,6.585,18.345,18.345,0,0,0,5.092,4.358A13.165,13.165,0,0,0,43.722,42a10.925,10.925,0,0,0,5.7-1.2,12.64,12.64,0,0,0,4.571-4.067,17.787,17.787,0,0,0,2.663-6.07,23.614,23.614,0,0,0,.562-7.261,26.386,26.386,0,0,0-1.737-7.651,24.146,24.146,0,0,0-3.806-6.585,18.419,18.419,0,0,0-5.092-4.359,13.176,13.176,0,0,0-5.721-1.763,10.852,10.852,0,0,0-5.69,1.2,12.653,12.653,0,0,0-4.572,4.073Z" transform="translate(-27.144 -2.817)" fill-rule="evenodd" fill="url(#linear-gradient-41)"/>
  </g>
  <g id="Group_20052" data-name="Group 20052" transform="translate(4.275 0.211)">
    <path id="Path_13173" data-name="Path 13173" d="M54.082,16.062C57.51,26.515,53.8,37.631,45.8,40.887s-17.272-2.58-20.7-13.034.286-21.569,8.291-24.825S50.659,5.608,54.082,16.062Zm-25.731-9.1a17.52,17.52,0,0,0-3.245,5.872,22.538,22.538,0,0,0-1.124,7.2,25.236,25.236,0,0,0,1.264,7.75,23.745,23.745,0,0,0,3.517,6.834,19,19,0,0,0,5.029,4.7,14.247,14.247,0,0,0,5.872,2.164,12,12,0,0,0,6.064-.8,13.186,13.186,0,0,0,5.1-3.739,17.522,17.522,0,0,0,3.245-5.872,22.486,22.486,0,0,0,1.118-7.2,25.073,25.073,0,0,0-1.259-7.75A23.633,23.633,0,0,0,50.415,9.29a18.9,18.9,0,0,0-5.024-4.7,14.3,14.3,0,0,0-5.872-2.164,12.027,12.027,0,0,0-6.07.8,13.209,13.209,0,0,0-5.1,3.739Z" transform="translate(-23.821 -2.126)" fill-rule="evenodd" fill="url(#linear-gradient-42)"/>
  </g>
  <g id="Group_20053" data-name="Group 20053" transform="translate(3.571 0.119)">
    <path id="Path_13174" data-name="Path 13174" d="M52.187,16.693C55.016,27.361,50.3,38.184,41.66,40.873S23.716,37.1,20.887,26.43,22.77,4.934,31.414,2.245,49.358,6.021,52.187,16.693ZM25.833,5.823A17.429,17.429,0,0,0,22,11.451a21.5,21.5,0,0,0-1.711,7.11,23.878,23.878,0,0,0,.759,7.817,22.978,22.978,0,0,0,3.188,7.063,19.223,19.223,0,0,0,4.936,5.039,15.387,15.387,0,0,0,6.007,2.569,13.313,13.313,0,0,0,6.428-.375,14.04,14.04,0,0,0,5.628-3.381,17.36,17.36,0,0,0,3.839-5.628,21.366,21.366,0,0,0,1.706-7.1,23.747,23.747,0,0,0-.754-7.822,22.9,22.9,0,0,0-3.193-7.058A19.309,19.309,0,0,0,43.9,4.636a15.332,15.332,0,0,0-6.007-2.563,13.251,13.251,0,0,0-6.428.369,14.1,14.1,0,0,0-5.633,3.381Z" transform="translate(-20.063 -1.636)" fill-rule="evenodd" fill="url(#linear-gradient-43)"/>
  </g>
  <g id="Group_20054" data-name="Group 20054" transform="translate(2.786 0.054)">
    <path id="Path_13175" data-name="Path 13175" d="M49.926,17.515C52.111,28.354,46.368,38.824,37.095,40.9S18.527,35.881,16.338,25.041s3.557-21.309,12.83-23.39S47.736,6.676,49.926,17.515ZM23.047,4.835A17.672,17.672,0,0,0,18.6,10.182a20.71,20.71,0,0,0-2.315,6.969A22.809,22.809,0,0,0,16.515,25a22.233,22.233,0,0,0,2.829,7.266,19.7,19.7,0,0,0,4.811,5.378,16.54,16.54,0,0,0,6.122,2.975,14.631,14.631,0,0,0,6.777.078,15.112,15.112,0,0,0,6.158-2.975,17.645,17.645,0,0,0,4.442-5.347,20.659,20.659,0,0,0,2.315-6.975,22.675,22.675,0,0,0-.219-7.854,22.347,22.347,0,0,0-2.829-7.266,19.6,19.6,0,0,0-4.811-5.373,16.55,16.55,0,0,0-6.122-2.98,14.7,14.7,0,0,0-6.777-.079,15.107,15.107,0,0,0-6.163,2.981Z" transform="translate(-15.873 -1.29)" fill-rule="evenodd" fill="url(#linear-gradient-44)"/>
  </g>
  <g id="Group_20055" data-name="Group 20055" transform="translate(1.926 0.018)">
    <path id="Path_13176" data-name="Path 13176" d="M47.306,18.538c1.5,10.964-5.295,21.012-15.187,22.438s-19.13-6.3-20.633-17.272S16.786,2.7,26.678,1.265,45.808,7.569,47.306,18.538ZM20.021,4.012A18.1,18.1,0,0,0,14.96,9.036a20.215,20.215,0,0,0-2.944,6.793,21.9,21.9,0,0,0,2.1,15.3,19.964,19.964,0,0,0,4.655,5.7,17.788,17.788,0,0,0,6.211,3.4,16.389,16.389,0,0,0,13.8-1.992,18.019,18.019,0,0,0,5.055-5.024,20.111,20.111,0,0,0,2.944-6.793,21.826,21.826,0,0,0-2.1-15.3,19.769,19.769,0,0,0-4.65-5.7,17.738,17.738,0,0,0-6.215-3.4A16.373,16.373,0,0,0,20.021,4.012Z" transform="translate(-11.279 -1.096)" fill-rule="evenodd" fill="url(#linear-gradient-45)"/>
  </g>
  <g id="Group_20056" data-name="Group 20056" transform="translate(0.994 0.002)">
    <path id="Path_13177" data-name="Path 13177" d="M44.35,19.722c.775,11.042-7.1,20.591-17.6,21.324S7.131,33.422,6.356,22.38s7.11-20.591,17.6-21.325S43.58,8.68,44.35,19.722ZM16.763,3.328a18.728,18.728,0,0,0-5.68,4.66,19.8,19.8,0,0,0-3.589,6.574,20.828,20.828,0,0,0,1.077,15.4,19.941,19.941,0,0,0,4.468,6.012A18.841,18.841,0,0,0,19.312,39.8a18.066,18.066,0,0,0,14.636-1.025,18.79,18.79,0,0,0,5.68-4.66,19.871,19.871,0,0,0,3.589-6.569A20.908,20.908,0,0,0,42.14,12.139a19.854,19.854,0,0,0-4.468-6.007A18.823,18.823,0,0,0,31.4,2.3,18.067,18.067,0,0,0,16.763,3.328Z" transform="translate(-6.304 -1.011)" fill-rule="evenodd" fill="url(#linear-gradient-46)"/>
  </g>
  <g id="Group_20057" data-name="Group 20057">
    <path id="Path_13178" data-name="Path 13178" d="M41.09,21.045A20.045,20.045,0,1,1,21.045,1,20.045,20.045,0,0,1,41.09,21.045ZM13.321,2.763A19.841,19.841,0,1,0,35.072,7.018,19.833,19.833,0,0,0,13.321,2.763Z" transform="translate(-1 -1)" fill-rule="evenodd" fill="url(#linear-gradient-24)"/>
  </g>
</svg>
