<?xml version="1.0" encoding="UTF-8"?>
<svg version="1.1" xmlns="http://www.w3.org/2000/svg" width="512" height="512">
<path d="M0 0 C1.996806 0.54496858 3.99371577 1.08955708 5.99072266 1.63378906 C12.25258002 3.35006122 18.50309638 5.10514627 24.75 6.875 C25.73891235 7.15508911 26.72782471 7.43517822 27.7467041 7.72375488 C155.307425 43.96626519 155.307425 43.96626519 163.75 58.875 C163.63081199 62.27185818 163.33128695 64.81500615 161.6875 67.8125 C158.41868782 69.60507442 155.33093816 69.41677818 151.75 68.875 C147.73436818 67.50137926 143.88532283 65.80373 140.01644897 64.06292725 C122.38373872 56.1629487 104.26290675 49.79283404 85.9677124 43.6237793 C83.86081391 42.91241475 81.75564661 42.19615589 79.65087891 41.47851562 C53.30848533 32.52127371 26.50580285 25.06292329 -0.31414795 17.6842041 C-2.24100751 17.15310695 -4.16702568 16.61894571 -6.09210205 16.0814209 C-8.69577317 15.35529377 -11.30234695 14.64078662 -13.91015625 13.9296875 C-15.03423134 13.61295578 -15.03423134 13.61295578 -16.18101501 13.28982544 C-24.64944331 11.01508423 -31.40781088 12.18378854 -39.71875 14.515625 C-40.73488876 14.7936496 -41.75102753 15.07167419 -42.79795837 15.35812378 C-46.11817118 16.27038169 -49.43421657 17.19678146 -52.75 18.125 C-55.06258129 18.76676466 -57.37516267 19.40852898 -59.68774414 20.05029297 C-79.66102844 25.61809581 -99.50778248 31.53837651 -119.25 37.875 C-120.00953979 38.11800842 -120.76907959 38.36101685 -121.55163574 38.61138916 C-172.38663481 54.25105668 -172.38663481 54.25105668 -219.96362305 77.54248047 C-222.25 78.875 -222.25 78.875 -224.25 78.875 C-220.70987795 169.84867517 -211.82200485 271.23668702 -155.23828125 388.76953125 C-153.61938544 390.48384331 -152.14080639 392.21062798 -150.6875 394.0625 C-147.49796522 397.74273244 -143.98454596 400.75815587 -140.25 403.875 C-139.74162598 404.31166992 -139.23325195 404.74833984 -138.70947266 405.19824219 C-110.69398616 429.23926932 -77.08602122 448.26380848 -43.25 462.875 C-42.52022949 463.19291504 -41.79045898 463.51083008 -41.03857422 463.83837891 C-38.81055056 464.7866481 -36.56813048 465.68216851 -34.3125 466.5625 C-33.65072754 466.84335449 -32.98895508 467.12420898 -32.30712891 467.41357422 C-26.31906378 469.62347316 -22.04228132 468.1190313 -16.25 465.875 C-15.37851318 465.55007568 -14.50702637 465.22515137 -13.60913086 464.89038086 C33.66144048 446.74874822 88.08312256 416.19793376 116.75 372.875 C115.533125 372.58625 114.31625 372.2975 113.0625 372 C109.81932518 371.23043309 106.82688087 370.15748274 103.75 368.875 C103.3375 369.42027344 102.925 369.96554687 102.5 370.52734375 C95.91659318 379.12397989 89.10003578 386.96508115 80.75 393.875 C79.6769385 394.79540409 78.60403589 395.71599344 77.53125 396.63671875 C60.43865728 411.10371769 41.3731064 423.14821891 21.75 433.875 C20.85990234 434.36452148 19.96980469 434.85404297 19.05273438 435.35839844 C8.50164095 441.12384346 -2.17172591 446.50380471 -13.25 451.1875 C-14.15145752 451.5788916 -15.05291504 451.9702832 -15.98168945 452.37353516 C-25.28553958 456.16689378 -31.77699825 453.59985575 -40.72265625 449.8515625 C-62.94818851 440.24186445 -84.44723856 428.86515233 -104.25 414.875 C-105.39447954 414.0793527 -106.53901412 413.28378457 -107.68359375 412.48828125 C-114.22495405 407.9094174 -120.58970224 403.18178327 -126.6953125 398.02734375 C-128.40784799 396.58451951 -130.15388912 395.18061287 -131.9296875 393.81640625 C-137.85814621 389.07917989 -137.85814621 389.07917989 -138.9453125 385.73828125 C-139.12955175 382.41583349 -138.4359184 380.17246944 -136.6875 377.375 C-133.34403894 375.3174855 -131.12799654 375.53796382 -127.25 375.875 C-124.86328125 377.31640625 -124.86328125 377.31640625 -122.5625 379.4375 C-107.88145056 392.19579263 -92.01405752 403.04994747 -75.25 412.875 C-74.49009766 413.32182129 -73.73019531 413.76864258 -72.94726562 414.22900391 C-60.37611313 421.56032695 -47.42261496 427.57505371 -34.25 433.875 C-33.755 336.36 -33.755 336.36 -33.25 236.875 C-80.77 236.875 -128.29 236.875 -177.25 236.875 C-165.94565247 298.38049244 -165.94565247 298.38049244 -142.75 356.5 C-141.06352308 360.29457306 -140.89110669 361.97950585 -142.25 365.875 C-143.3125 367.75 -143.3125 367.75 -145.25 368.875 C-150.71635731 369.58033643 -150.71635731 369.58033643 -153.25 368.875 C-157.44583286 365.41960824 -159.79063436 361.50382117 -162 356.625 C-162.33580078 355.89249023 -162.67160156 355.15998047 -163.01757812 354.40527344 C-197.2732581 277.72428079 -208.85080325 179.17269414 -210.5625 95.75 C-210.59988281 94.53054687 -210.63726562 93.31109375 -210.67578125 92.0546875 C-210.15398372 88.15796101 -209.17260307 87.39671504 -206.25 84.875 C-204.05297852 83.58569336 -204.05297852 83.58569336 -201.62890625 82.46484375 C-200.70988525 82.03840576 -199.79086426 81.61196777 -198.84399414 81.17260742 C-197.34340454 80.49935425 -197.34340454 80.49935425 -195.8125 79.8125 C-194.74829834 79.33208252 -193.68409668 78.85166504 -192.58764648 78.35668945 C-179.69055736 72.62454599 -166.52950132 67.63709041 -153.25 62.875 C-152.52315002 62.61374329 -151.79630005 62.35248657 -151.04742432 62.08331299 C-122.41895679 51.81565412 -93.40250398 43.01324204 -64.15167236 34.70288086 C-61.38380167 33.91317517 -58.61892447 33.11387418 -55.85498047 32.31054688 C-51.87577713 31.15512688 -47.89072407 30.02346193 -43.89840698 28.91421509 C-42.49367926 28.52078597 -41.09098138 28.12001644 -39.69070435 27.71102905 C-31.09241021 25.21114114 -24.86917441 24.4531715 -16.25 26.875 C-15.05310547 27.17414307 -13.85621094 27.47328613 -12.62304688 27.78149414 C-8.31661162 28.86100756 -4.03306861 30.01918023 0.25 31.1875 C1.0412326 31.40231018 1.83246521 31.61712036 2.64767456 31.83843994 C49.88380181 44.69328196 97.38803911 58.88132862 142.1875 78.8125 C142.95578125 79.15369873 143.7240625 79.49489746 144.515625 79.84643555 C157.9031368 85.98087085 157.9031368 85.98087085 159.7734375 90.1640625 C159.74138924 93.87097755 159.63354225 97.55284581 159.375 101.25 C159.33117187 101.97960937 159.28734375 102.70921875 159.2421875 103.4609375 C158.95195452 107.97567282 158.4458602 112.40498275 157.75 116.875 C162.37 116.875 166.99 116.875 171.75 116.875 C172.50247311 100.41137843 172.50247311 100.41137843 172.9375 83.9375 C172.95167969 82.97972656 172.96585937 82.02195312 172.98046875 81.03515625 C172.95601098 78.66227744 172.95601098 78.66227744 170.75 76.875 C170.41044651 73.86752622 170.19386464 71.77607722 170.75 68.875 C173.29994148 65.87506885 174.87882756 65.02019541 178.75 64.375 C182.55089646 65.00848274 184.07023218 66.12280602 186.75 68.875 C189.59705678 73.52884282 190.19281407 77.40350309 190.0625 82.75 C190.05412109 83.50651855 190.04574219 84.26303711 190.03710938 85.04248047 C189.82439636 95.68025821 188.76356113 106.28921661 187.75 116.875 C188.554375 117.16375 189.35875 117.4525 190.1875 117.75 C192.75 118.875 192.75 118.875 193.75 120.875 C194.3243895 127.07840656 194.3243895 127.07840656 192.16697693 130.07041931 C188.90670915 132.50462387 186.81409175 132.37382697 182.76586914 132.37329102 C182.07105942 132.37880981 181.37624969 132.38432861 180.66038513 132.39001465 C179.15555201 132.39932245 177.65064012 132.39944981 176.14579964 132.39142036 C173.76195624 132.37878326 171.37926958 132.39008534 168.99546814 132.40745544 C164.79368272 132.43416045 160.59218093 132.43975109 156.39031982 132.43835449 C149.66862918 132.4361264 142.94728996 132.45027856 136.22573662 132.49394035 C133.88077655 132.50376745 131.53637007 132.49506711 129.19142151 132.48524475 C127.74878581 132.4913906 126.3061531 132.49830288 124.86352539 132.50610352 C123.607621 132.50514175 122.35171661 132.50417999 121.05775452 132.50318909 C117.48382982 132.90491908 115.59882505 133.72020135 112.75 135.875 C111.25669462 138.86161076 111.59398229 141.9229901 111.58886719 145.19873047 C111.58390228 145.95337585 111.57893738 146.70802124 111.57382202 147.48553467 C111.55918949 149.98776148 111.55239665 152.48992489 111.546875 154.9921875 C111.54112449 156.72852582 111.53536675 158.46486412 111.52960205 160.20120239 C111.51908899 163.84458716 111.51324831 167.48794985 111.50976562 171.13134766 C111.5042799 175.80112186 111.48025159 180.47060463 111.45179367 185.1402874 C111.43317495 188.72792414 111.42796211 192.31549057 111.42642975 195.90317154 C111.42340101 197.62477334 111.41536501 199.34637384 111.40224457 201.06792831 C111.38519961 203.47633825 111.38706025 205.88403477 111.39355469 208.29248047 C111.3843399 209.00431488 111.37512512 209.71614929 111.3656311 210.44955444 C111.3914214 213.50092404 111.59455865 215.59417992 113.08477783 218.28640747 C116.50849095 221.5525693 120.41591588 221.00723388 124.89599609 221.02026367 C125.6199205 221.02362228 126.34384491 221.0269809 127.08970642 221.03044128 C129.48430088 221.03994471 131.87882535 221.04189413 134.2734375 221.04296875 C135.93869048 221.04618191 137.60394317 221.04954603 139.26919556 221.05305481 C142.76117609 221.05904467 146.25313188 221.06089487 149.74511719 221.06030273 C154.21628449 221.06020116 158.68729283 221.0738495 163.15842247 221.09107494 C166.59854865 221.1022025 170.0386365 221.1042217 173.47877884 221.10369301 C175.12697523 221.10487213 176.77517263 221.10929013 178.42335129 221.11702538 C180.73075181 221.1268399 183.03780861 221.12394148 185.34521484 221.11791992 C186.65743011 221.11934494 187.96964539 221.12076996 189.32162476 221.12223816 C192.61597212 220.88466545 194.84329478 220.41136753 197.75 218.875 C199.01372044 216.34755912 198.87022795 214.61119692 198.86352539 211.78271484 C198.86341209 210.19129166 198.86341209 210.19129166 198.86329651 208.56771851 C198.85555458 206.84423691 198.85555458 206.84423691 198.84765625 205.0859375 C198.8462413 203.91237701 198.84482635 202.73881653 198.84336853 201.5296936 C198.83775689 197.76977015 198.82520238 194.00990555 198.8125 190.25 C198.8074865 187.70573002 198.80292333 185.16145912 198.79882812 182.6171875 C198.78778368 176.36977147 198.77103418 170.12238994 198.75 163.875 C198.09680031 164.5481852 198.09680031 164.5481852 197.43040466 165.23497009 C192.8897991 169.90844979 188.32810309 174.56056629 183.75366211 179.20092773 C182.04993027 180.93480838 180.35162538 182.6740392 178.65893555 184.41870117 C176.22295168 186.92757162 173.76801157 189.41646758 171.30859375 191.90234375 C170.55726669 192.68463852 169.80593964 193.46693329 169.03184509 194.27293396 C165.76985419 197.53697742 163.50558004 199.61729333 159.09008789 201.12329102 C152.55416778 200.63743247 148.65073984 196.03045236 144.203125 191.59375 C143.705849 191.09838745 143.208573 190.6030249 142.69622803 190.09265137 C141.65521702 189.05299163 140.61668819 188.01084099 139.58056641 186.96630859 C137.99730894 185.37229065 136.40359327 183.78929037 134.80859375 182.20703125 C133.79362858 181.19074518 132.7792836 180.17383927 131.765625 179.15625 C130.85071289 178.23908203 129.93580078 177.32191406 128.99316406 176.37695312 C125.7953593 172.81022443 124.70585281 171.13319504 124.875 166.3125 C125.75 162.875 125.75 162.875 127.375 160.9375 C130.70692346 159.44690266 133.12493269 159.53910879 136.75 159.875 C139.38061523 161.7109375 139.38061523 161.7109375 141.80859375 164.25 C142.68837891 165.15234375 143.56816406 166.0546875 144.47460938 166.984375 C145.36986328 167.93828125 146.26511719 168.8921875 147.1875 169.875 C148.11749256 170.84013245 149.04911906 171.80369327 149.98242188 172.765625 C152.25483097 175.12045308 154.50932531 177.49002142 156.75 179.875 C160.9135045 178.25145883 163.62785364 175.20076507 166.66088867 172.04833984 C167.24198395 171.45307999 167.82307922 170.85782013 168.42178345 170.24452209 C169.68146095 168.95383683 170.93905032 167.66111103 172.19478416 166.36658859 C174.86886428 163.61462927 177.56072669 160.88035551 180.25158405 158.14481544 C185.25903867 153.05349821 190.25837426 147.95468292 195.22875977 142.82714844 C198.68924034 139.25863688 202.17140421 135.71259254 205.66875648 132.18022537 C206.99543804 130.83192657 208.31389382 129.47548138 209.62373924 128.11082077 C211.45947262 126.20014097 213.3216134 124.3194163 215.19213867 122.44287109 C215.72389206 121.87561813 216.25564545 121.30836517 216.80351257 120.72392273 C219.91037742 117.67372416 222.0608293 116.50441655 226.47236633 116.33950806 C229.19695379 116.39624164 230.34939441 116.54932141 232.48054504 118.2818737 C234.58886955 120.92775506 234.49295141 123.28124019 234.38095093 126.57055664 C233.36035051 130.29812999 230.81604141 131.62761774 227.76945496 133.79992676 C221.92352933 138.10223876 217.56261726 142.53642919 215.81097412 149.73291016 C214.40024428 159.98609759 214.97800621 170.51151638 215.35229492 180.82128906 C215.5768776 187.5523343 215.63643044 194.28763337 215.7197361 201.02159119 C215.76076733 203.35220827 215.83639649 205.6794622 215.91960144 208.00891113 C216.16865752 216.5976479 216.1609652 224.18330943 209.99809265 230.73840332 C204.92605268 235.47494585 200.32140124 237.1363403 193.35546875 237.0703125 C192.15341797 237.06386719 190.95136719 237.05742187 189.71289062 237.05078125 C187.84407227 237.02564453 187.84407227 237.02564453 185.9375 237 C184.67228516 236.99097656 183.40707031 236.98195312 182.10351562 236.97265625 C178.98548436 236.94912394 175.86783903 236.91624545 172.75 236.875 C172.68941406 237.70644531 172.62882812 238.53789062 172.56640625 239.39453125 C172.48261719 240.48121094 172.39882813 241.56789062 172.3125 242.6875 C172.23128906 243.76644531 172.15007812 244.84539062 172.06640625 245.95703125 C171.75 248.875 171.75 248.875 170.75 251.875 C171.30461914 251.85405273 171.85923828 251.83310547 172.43066406 251.81152344 C174.95359023 251.72816452 177.47622649 251.67628132 180 251.625 C180.87269531 251.59148437 181.74539063 251.55796875 182.64453125 251.5234375 C189.10408716 251.42481833 189.10408716 251.42481833 192.328125 253.671875 C194.41746523 256.90920436 194.28803486 259.108756 193.75 262.875 C191.52612793 265.92562402 190.33499035 266.78326438 186.56922913 267.37379456 C185.31412033 267.37362839 184.05901154 267.37346222 182.76586914 267.37329102 C182.07105942 267.37880981 181.37624969 267.38432861 180.66038513 267.39001465 C179.15555201 267.39932245 177.65064012 267.39944981 176.14579964 267.39142036 C173.76195624 267.37878326 171.37926958 267.39008534 168.99546814 267.40745544 C164.79368272 267.43416045 160.59218093 267.43975109 156.39031982 267.43835449 C149.66862918 267.4361264 142.94728996 267.45027856 136.22573662 267.49394035 C133.88077655 267.50376745 131.53637007 267.49506711 129.19142151 267.48524475 C127.74878581 267.4913906 126.3061531 267.49830288 124.86352539 267.50610352 C123.607621 267.50514175 122.35171661 267.50417999 121.05775452 267.50318909 C117.48382982 267.90491908 115.59882505 268.72020135 112.75 270.875 C111.25669462 273.86161076 111.59398229 276.9229901 111.58886719 280.19873047 C111.58390228 280.95337585 111.57893738 281.70802124 111.57382202 282.48553467 C111.55918949 284.98776148 111.55239665 287.48992489 111.546875 289.9921875 C111.54112449 291.72852582 111.53536675 293.46486412 111.52960205 295.20120239 C111.51908899 298.84458716 111.51324831 302.48794985 111.50976562 306.13134766 C111.5042799 310.80112186 111.48025159 315.47060463 111.45179367 320.1402874 C111.43317495 323.72792414 111.42796211 327.31549057 111.42642975 330.90317154 C111.42340101 332.62477334 111.41536501 334.34637384 111.40224457 336.06792831 C111.38519961 338.47633825 111.38706025 340.88403477 111.39355469 343.29248047 C111.3843399 344.00431488 111.37512512 344.71614929 111.3656311 345.44955444 C111.3914214 348.50092404 111.59455865 350.59417992 113.08477783 353.28640747 C116.50849095 356.5525693 120.41591588 356.00723388 124.89599609 356.02026367 C125.6199205 356.02362228 126.34384491 356.0269809 127.08970642 356.03044128 C129.48430088 356.03994471 131.87882535 356.04189413 134.2734375 356.04296875 C135.93869048 356.04618191 137.60394317 356.04954603 139.26919556 356.05305481 C142.76117609 356.05904467 146.25313188 356.06089487 149.74511719 356.06030273 C154.21628449 356.06020116 158.68729283 356.0738495 163.15842247 356.09107494 C166.59854865 356.1022025 170.0386365 356.1042217 173.47877884 356.10369301 C175.12697523 356.10487213 176.77517263 356.10929013 178.42335129 356.11702538 C180.73075181 356.1268399 183.03780861 356.12394148 185.34521484 356.11791992 C187.31353775 356.12005745 187.31353775 356.12005745 189.32162476 356.12223816 C192.61597212 355.88466545 194.84329478 355.41136753 197.75 353.875 C199.01372044 351.34755912 198.87022795 349.61119692 198.86352539 346.78271484 C198.86341209 345.19129166 198.86341209 345.19129166 198.86329651 343.56771851 C198.85813522 342.41873077 198.85297394 341.26974304 198.84765625 340.0859375 C198.8462413 338.91237701 198.84482635 337.73881653 198.84336853 336.5296936 C198.83775689 332.76977015 198.82520238 329.00990555 198.8125 325.25 C198.8074865 322.70573002 198.80292333 320.16145912 198.79882812 317.6171875 C198.78778368 311.36977147 198.77103418 305.12238994 198.75 298.875 C198.09680031 299.5481852 198.09680031 299.5481852 197.43040466 300.23497009 C192.8897991 304.90844979 188.32810309 309.56056629 183.75366211 314.20092773 C182.04993027 315.93480838 180.35162538 317.6740392 178.65893555 319.41870117 C176.22295168 321.92757162 173.76801157 324.41646758 171.30859375 326.90234375 C170.55726669 327.68463852 169.80593964 328.46693329 169.03184509 329.27293396 C165.76985419 332.53697742 163.50558004 334.61729333 159.09008789 336.12329102 C152.55416778 335.63743247 148.65073984 331.03045236 144.203125 326.59375 C143.705849 326.09838745 143.208573 325.6030249 142.69622803 325.09265137 C141.65521702 324.05299163 140.61668819 323.01084099 139.58056641 321.96630859 C137.99730894 320.37229065 136.40359327 318.78929037 134.80859375 317.20703125 C133.79362858 316.19074518 132.7792836 315.17383927 131.765625 314.15625 C130.85071289 313.23908203 129.93580078 312.32191406 128.99316406 311.37695312 C125.7953593 307.81022443 124.70585281 306.13319504 124.875 301.3125 C125.75 297.875 125.75 297.875 127.375 295.9375 C130.70692346 294.44690266 133.12493269 294.53910879 136.75 294.875 C139.38061523 296.7109375 139.38061523 296.7109375 141.80859375 299.25 C142.68837891 300.15234375 143.56816406 301.0546875 144.47460938 301.984375 C145.36986328 302.93828125 146.26511719 303.8921875 147.1875 304.875 C148.11749256 305.84013245 149.04911906 306.80369327 149.98242188 307.765625 C152.25483097 310.12045308 154.50932531 312.49002142 156.75 314.875 C160.9135045 313.25145883 163.62785364 310.20076507 166.66088867 307.04833984 C167.53253159 306.15545006 167.53253159 306.15545006 168.42178345 305.24452209 C169.68146095 303.95383683 170.93905032 302.66111103 172.19478416 301.36658859 C174.86886428 298.61462927 177.56072669 295.88035551 180.25158405 293.14481544 C185.25903867 288.05349821 190.25837426 282.95468292 195.22875977 277.82714844 C198.68924034 274.25863688 202.17140421 270.71259254 205.66875648 267.18022537 C206.99543804 265.83192657 208.31389382 264.47548138 209.62373924 263.11082077 C211.45947262 261.20014097 213.3216134 259.3194163 215.19213867 257.44287109 C215.72389206 256.87561813 216.25564545 256.30836517 216.80351257 255.72392273 C219.91037742 252.67372416 222.0608293 251.50441655 226.47236633 251.33950806 C229.19695379 251.39624164 230.34939441 251.54932141 232.48054504 253.2818737 C234.58886955 255.92775506 234.49295141 258.28124019 234.38095093 261.57055664 C233.36035051 265.29812999 230.81604141 266.62761774 227.76945496 268.79992676 C221.92352933 273.10223876 217.56261726 277.53642919 215.81097412 284.73291016 C214.40024428 294.98609759 214.97800621 305.51151638 215.35229492 315.82128906 C215.5768776 322.5523343 215.63643044 329.28763337 215.7197361 336.02159119 C215.76076733 338.35220827 215.83639649 340.6794622 215.91960144 343.00891113 C216.16865752 351.5976479 216.1609652 359.18330943 209.99809265 365.73840332 C204.91192102 370.48814275 200.28715694 372.12958445 193.30737305 372.10205078 C192.02642258 372.10189972 190.74547211 372.10174866 189.42570496 372.10159302 C188.03770795 372.0913813 186.64971256 372.08094933 185.26171875 372.0703125 C183.83397113 372.0665795 182.40622095 372.06373388 180.97846985 372.06173706 C177.23181001 372.05412318 173.48530674 372.03449419 169.7387085 372.0123291 C165.91111366 371.99182214 162.08349338 371.982725 158.25585938 371.97265625 C150.7538351 371.95124599 143.25193954 371.91713741 135.75 371.875 C135.47414063 372.60074219 135.19828125 373.32648438 134.9140625 374.07421875 C133.80634436 376.7394332 132.54768625 379.17907951 131.125 381.6875 C130.67898438 382.47769531 130.23296875 383.26789063 129.7734375 384.08203125 C129.43570312 384.67371094 129.09796875 385.26539063 128.75 385.875 C129.5053302 385.87864563 130.2606604 385.88229126 131.03887939 385.88604736 C138.16053567 385.92392923 145.28166894 385.98078301 152.40298843 386.05890274 C156.06408723 386.09839643 159.72494485 386.13057521 163.38623047 386.14599609 C166.92026922 386.16115087 170.45364501 386.19557361 173.98738861 386.24330902 C175.99028962 386.26534624 177.99337756 386.26747476 179.99639893 386.26934814 C181.21736267 386.28906677 182.43832642 386.3087854 183.69628906 386.32910156 C184.77106506 386.33798401 185.84584106 386.34686646 186.95318604 386.35601807 C190.43966918 387.00297628 191.63059516 388.07377931 193.75 390.875 C194.3002012 394.72640841 194.48406543 396.86803667 192.15525818 400.06260681 C188.90423524 402.5122947 186.81505482 402.3738271 182.76586914 402.37329102 C182.07105942 402.37880981 181.37624969 402.38432861 180.66038513 402.39001465 C179.15555201 402.39932245 177.65064012 402.39944981 176.14579964 402.39142036 C173.76195624 402.37878326 171.37926958 402.39008534 168.99546814 402.40745544 C164.79368272 402.43416045 160.59218093 402.43975109 156.39031982 402.43835449 C149.66862918 402.4361264 142.94728996 402.45027856 136.22573662 402.49394035 C133.88077655 402.50376745 131.53637007 402.49506711 129.19142151 402.48524475 C127.74878581 402.4913906 126.3061531 402.49830288 124.86352539 402.50610352 C123.607621 402.50514175 122.35171661 402.50417999 121.05775452 402.50318909 C117.48382982 402.90491908 115.59882505 403.72020135 112.75 405.875 C111.25669462 408.86161076 111.59398229 411.9229901 111.58886719 415.19873047 C111.58390228 415.95337585 111.57893738 416.70802124 111.57382202 417.48553467 C111.55918949 419.98776148 111.55239665 422.48992489 111.546875 424.9921875 C111.54112449 426.72852582 111.53536675 428.46486412 111.52960205 430.20120239 C111.51908899 433.84458716 111.51324831 437.48794985 111.50976562 441.13134766 C111.5042799 445.80112186 111.48025159 450.47060463 111.45179367 455.1402874 C111.43317495 458.72792414 111.42796211 462.31549057 111.42642975 465.90317154 C111.42340101 467.62477334 111.41536501 469.34637384 111.40224457 471.06792831 C111.38519961 473.47633825 111.38706025 475.88403477 111.39355469 478.29248047 C111.3843399 479.00431488 111.37512512 479.71614929 111.3656311 480.44955444 C111.3914214 483.50092404 111.59455865 485.59417992 113.08477783 488.28640747 C116.50849095 491.5525693 120.41591588 491.00723388 124.89599609 491.02026367 C125.6199205 491.02362228 126.34384491 491.0269809 127.08970642 491.03044128 C129.48430088 491.03994471 131.87882535 491.04189413 134.2734375 491.04296875 C135.93869048 491.04618191 137.60394317 491.04954603 139.26919556 491.05305481 C142.76117609 491.05904467 146.25313188 491.06089487 149.74511719 491.06030273 C154.21628449 491.06020116 158.68729283 491.0738495 163.15842247 491.09107494 C166.59854865 491.1022025 170.0386365 491.1042217 173.47877884 491.10369301 C175.12697523 491.10487213 176.77517263 491.10929013 178.42335129 491.11702538 C180.73075181 491.1268399 183.03780861 491.12394148 185.34521484 491.11791992 C187.31353775 491.12005745 187.31353775 491.12005745 189.32162476 491.12223816 C192.61597212 490.88466545 194.84329478 490.41136753 197.75 488.875 C199.01372044 486.34755912 198.87022795 484.61119692 198.86352539 481.78271484 C198.86341209 480.19129166 198.86341209 480.19129166 198.86329651 478.56771851 C198.85813522 477.41873077 198.85297394 476.26974304 198.84765625 475.0859375 C198.8462413 473.91237701 198.84482635 472.73881653 198.84336853 471.5296936 C198.83775689 467.76977015 198.82520238 464.00990555 198.8125 460.25 C198.8074865 457.70573002 198.80292333 455.16145912 198.79882812 452.6171875 C198.78778368 446.36977147 198.77103418 440.12238994 198.75 433.875 C198.09680031 434.5481852 198.09680031 434.5481852 197.43040466 435.23497009 C192.8897991 439.90844979 188.32810309 444.56056629 183.75366211 449.20092773 C182.04993027 450.93480838 180.35162538 452.6740392 178.65893555 454.41870117 C176.22295168 456.92757162 173.76801157 459.41646758 171.30859375 461.90234375 C170.55726669 462.68463852 169.80593964 463.46693329 169.03184509 464.27293396 C165.76985419 467.53697742 163.50558004 469.61729333 159.09008789 471.12329102 C152.55416778 470.63743247 148.65073984 466.03045236 144.203125 461.59375 C143.705849 461.09838745 143.208573 460.6030249 142.69622803 460.09265137 C141.65521702 459.05299163 140.61668819 458.01084099 139.58056641 456.96630859 C137.99730894 455.37229065 136.40359327 453.78929037 134.80859375 452.20703125 C133.79362858 451.19074518 132.7792836 450.17383927 131.765625 449.15625 C130.85071289 448.23908203 129.93580078 447.32191406 128.99316406 446.37695312 C125.7953593 442.81022443 124.70585281 441.13319504 124.875 436.3125 C125.75 432.875 125.75 432.875 127.375 430.9375 C130.70692346 429.44690266 133.12493269 429.53910879 136.75 429.875 C139.38061523 431.7109375 139.38061523 431.7109375 141.80859375 434.25 C142.68837891 435.15234375 143.56816406 436.0546875 144.47460938 436.984375 C145.36986328 437.93828125 146.26511719 438.8921875 147.1875 439.875 C148.11749256 440.84013245 149.04911906 441.80369327 149.98242188 442.765625 C152.25483097 445.12045308 154.50932531 447.49002142 156.75 449.875 C160.9135045 448.25145883 163.62785364 445.20076507 166.66088867 442.04833984 C167.53253159 441.15545006 167.53253159 441.15545006 168.42178345 440.24452209 C169.68146095 438.95383683 170.93905032 437.66111103 172.19478416 436.36658859 C174.86886428 433.61462927 177.56072669 430.88035551 180.25158405 428.14481544 C185.25903867 423.05349821 190.25837426 417.95468292 195.22875977 412.82714844 C198.68924034 409.25863688 202.17140421 405.71259254 205.66875648 402.18022537 C206.99543804 400.83192657 208.31389382 399.47548138 209.62373924 398.11082077 C211.45947262 396.20014097 213.3216134 394.3194163 215.19213867 392.44287109 C215.72389206 391.87561813 216.25564545 391.30836517 216.80351257 390.72392273 C219.91037742 387.67372416 222.0608293 386.50441655 226.47236633 386.33950806 C229.19695379 386.39624164 230.34939441 386.54932141 232.48054504 388.2818737 C234.58886955 390.92775506 234.49295141 393.28124019 234.38095093 396.57055664 C233.36035051 400.29812999 230.81604141 401.62761774 227.76945496 403.79992676 C221.92352933 408.10223876 217.56261726 412.53642919 215.81097412 419.73291016 C214.40024428 429.98609759 214.97800621 440.51151638 215.35229492 450.82128906 C215.5768776 457.5523343 215.63643044 464.28763337 215.7197361 471.02159119 C215.76076733 473.35220827 215.83639649 475.6794622 215.91960144 478.00891113 C216.16865752 486.5976479 216.1609652 494.18330943 209.99809265 500.73840332 C204.25552349 506.10112191 198.9289344 507.17554539 191.17114258 507.19726562 C190.31840759 507.20719543 189.46567261 507.21712524 188.58709717 507.22735596 C185.77287533 507.25650495 182.9588791 507.27018847 180.14453125 507.28125 C178.18023171 507.29276251 176.21593219 507.30427786 174.25163269 507.3157959 C170.13348346 507.33679033 166.01541199 507.34849171 161.8972168 507.35546875 C156.63926589 507.3664207 151.38235543 507.41444612 146.12473011 507.47141266 C142.06588311 507.50880307 138.00728305 507.51908391 133.94827843 507.5221405 C132.01109835 507.52816586 130.07392119 507.54412907 128.13691139 507.57051086 C108.32505914 507.82103991 108.32505914 507.82103991 100.75 500.875 C95.7850182 495.04114639 94.51778405 488.54424838 94.43115234 481.02172852 C94.42110672 480.37697067 94.4110611 479.73221283 94.40071106 479.06791687 C94.37012852 476.96325472 94.35291454 474.85871823 94.3359375 472.75390625 C94.31720569 471.28416379 94.2976308 469.81443185 94.2772522 468.3447113 C94.22613737 464.4962894 94.18640188 460.64783272 94.14910889 456.79925537 C94.10893899 452.86413107 94.0579062 448.92914889 94.0078125 444.99414062 C93.91129807 437.28785827 93.82681587 429.58150657 93.75 421.875 C93.0092775 422.48598541 92.26855499 423.09697083 91.50538635 423.72647095 C90.52593552 424.53168182 89.54648468 425.3368927 88.53735352 426.16650391 C87.56975601 426.96311432 86.60215851 427.75972473 85.60523987 428.58047485 C81.75994653 431.67062583 77.77596798 434.49383382 73.6875 437.25 C72.87514893 437.80034912 72.06279785 438.35069824 71.22583008 438.91772461 C45.74730937 456.04230859 18.60729829 470.95543731 -10.0625 482 C-11.05878418 482.39082764 -12.05506836 482.78165527 -13.08154297 483.18432617 C-22.26488612 486.61268072 -28.8014449 486.54289392 -38 483.1875 C-39.27387573 482.72935913 -39.27387573 482.72935913 -40.57348633 482.26196289 C-81.33643367 467.10692675 -120.70988239 443.78695119 -153.25 414.875 C-153.79350098 414.39853027 -154.33700195 413.92206055 -154.89697266 413.43115234 C-219.96838004 356.20376278 -226.76012532 240.39530182 -239.71508789 112.82910156 C-239.90517738 109.84496362 -240.08039868 106.86036871 -240.25 103.875 C-240.31703125 102.75544922 -240.3840625 101.63589844 -240.453125 100.48242188 C-240.65235609 97.05143263 -240.83056416 93.62007962 -241 90.1875 C-241.05704102 89.16470947 -241.11408203 88.14191895 -241.17285156 87.08813477 C-241.47044116 80.10005138 -241.62301538 73.94439559 -237.16015625 68.171875 C-233.53740953 65.3125796 -229.79302564 63.21112573 -225.6875 61.125 C-224.84453369 60.6916333 -224.00156738 60.2582666 -223.13305664 59.81176758 C-170.18683994 32.88455399 -111.5371645 16.34985673 -54.45413208 0.80569458 C-52.50920662 0.27524575 -50.56538172 -0.25925766 -48.62277222 -0.79812622 C-30.29554687 -5.86326277 -18.24123073 -5.06088702 0 0 Z M-17.25 43.875 C-17.25 102.615 -17.25 161.355 -17.25 221.875 C20.04 221.875 57.33 221.875 95.75 221.875 C95.63140085 193.97757339 95.63140085 193.97757339 95.47973633 166.08032227 C95.46618652 160.6619873 95.46618652 160.6619873 95.46366882 158.11851501 C95.45908802 156.35722067 95.44859096 154.59593523 95.43327332 152.83470154 C95.41113679 150.15339022 95.40828784 147.47264951 95.40942383 144.79125977 C95.3986295 144.01796357 95.38783518 143.24466738 95.37671375 142.44793797 C95.41627503 135.41640974 97.31417397 129.01830095 100.75 122.875 C102.5 121.8125 102.5 121.8125 104.75 120.875 C106.07668701 120.11932739 106.07668701 120.11932739 107.43017578 119.34838867 C111.22266772 117.66522285 113.98122179 117.44873509 118.1171875 117.36328125 C118.79677521 117.34533005 119.47636292 117.32737885 120.17654419 117.30888367 C122.32596819 117.25513183 124.47517477 117.22100064 126.625 117.1875 C128.09117587 117.15429562 129.55732317 117.1198031 131.0234375 117.08398438 C134.59874948 116.99942802 138.17413792 116.93244994 141.75 116.875 C142.63021369 110.16337062 142.86381955 103.64094019 142.75 96.875 C102.90674479 79.03117772 61.43369875 65.39041456 19.5 53.375 C18.63034607 53.1251535 17.76069214 52.87530701 16.86468506 52.6178894 C14.34358639 51.89608194 11.82067968 51.18103272 9.296875 50.46875 C8.2267366 50.16318932 8.2267366 50.16318932 7.13497925 49.85145569 C-0.94374048 47.59334895 -9.06077744 45.8018759 -17.25 43.875 Z M-42.90625 45.60546875 C-43.92217979 45.88495613 -43.92217979 45.88495613 -44.95863342 46.17008972 C-47.2238859 46.79574819 -49.48710001 47.42838824 -51.75 48.0625 C-52.53720428 48.2823053 -53.32440857 48.5021106 -54.13546753 48.72857666 C-101.74062106 62.04407859 -149.12188373 76.5040514 -194.25 96.875 C-193.6569871 111.46713767 -192.55589564 125.96706394 -191.125 140.5 C-191.02006226 141.57831085 -190.91512451 142.6566217 -190.80700684 143.76760864 C-188.6859212 165.37354981 -185.82859225 186.85849863 -182.703125 208.33984375 C-182.50497696 209.70656975 -182.50497696 209.70656975 -182.30282593 211.10090637 C-182.17872345 211.93893295 -182.05462097 212.77695953 -181.92675781 213.64038086 C-181.8197052 214.3659166 -181.71265259 215.09145233 -181.60235596 215.838974 C-181.25075058 217.87066294 -180.75008154 219.87467384 -180.25 221.875 C-131.74 221.875 -83.23 221.875 -33.25 221.875 C-33.25 163.135 -33.25 104.395 -33.25 43.875 C-36.76223724 43.875 -39.51451898 44.66987293 -42.90625 45.60546875 Z M-17.25 236.875 C-17.25 302.215 -17.25 367.555 -17.25 434.875 C-4.08315924 429.18127329 -4.08315924 429.18127329 8.75 422.875 C10.04151978 422.1955835 10.04151978 422.1955835 11.35913086 421.50244141 C26.85952331 413.1958386 41.99568849 403.85483666 55.75 392.875 C56.93994477 391.95903572 58.13145004 391.0450964 59.32421875 390.1328125 C65.51713375 385.37276169 71.4154759 380.60580303 76.75 374.875 C77.554375 374.09125 78.35875 373.3075 79.1875 372.5 C81.40292967 370.23053546 83.59574117 367.95240487 85.75 365.625 C86.389375 364.93921875 87.02875 364.2534375 87.6875 363.546875 C88.368125 362.66515625 89.04875 361.7834375 89.75 360.875 C90.17042572 360.35129822 90.59085144 359.82759644 91.02401733 359.2880249 C96.32473308 351.49186505 95.42291787 342.61855785 95.3515625 333.59375 C95.35707104 331.81212395 95.36520317 330.03050428 95.37582397 328.24890137 C95.39862305 323.57681724 95.39452442 318.90520256 95.38201904 314.23309326 C95.36365892 306.75701274 95.37382659 299.28120669 95.40787888 291.80519104 C95.41394225 289.20776104 95.40077583 286.61093247 95.38589478 284.0135498 C95.37910136 274.39118014 96.02293428 266.49856768 100.75 257.875 C102.5 256.8125 102.5 256.8125 104.75 255.875 C105.554375 255.359375 106.35875 254.84375 107.1875 254.3125 C112.62765344 252.11735037 117.90535362 252.17319624 123.75 251.875 C124.74 246.925 125.73 241.975 126.75 236.875 C79.23 236.875 31.71 236.875 -17.25 236.875 Z M142.75 236.875 C142.42 238.23625 142.09 239.5975 141.75 241 C141.564375 241.76570312 141.37875 242.53140625 141.1875 243.3203125 C140.58120351 246.42867116 140.58120351 246.42867116 140.75 251.875 C145.37 251.875 149.99 251.875 154.75 251.875 C155.08 250.1425 155.41 248.41 155.75 246.625 C155.935625 245.65046875 156.12125 244.6759375 156.3125 243.671875 C156.85303017 240.68815721 156.85303017 240.68815721 156.75 236.875 C152.13 236.875 147.51 236.875 142.75 236.875 Z " fill="#000000" transform="translate(259.25,5.125)"/>
</svg>
