<?xml version="1.0" encoding="UTF-8"?>
<svg version="1.1" xmlns="http://www.w3.org/2000/svg" width="512" height="512">
<path d="M0 0 C1.38218719 -0.02409439 1.38218719 -0.02409439 2.79229736 -0.04867554 C7.01337971 -0.09314606 11.23430448 -0.13420037 15.45556641 -0.15722656 C17.68060778 -0.17377565 19.90559622 -0.20105164 22.13037109 -0.23925781 C25.33947312 -0.29408573 28.54732829 -0.31591126 31.75683594 -0.33056641 C33.24307465 -0.36457047 33.24307465 -0.36457047 34.75933838 -0.39926147 C39.31435759 -0.38536314 42.52555455 -0.34013487 46.14306641 2.61523438 C50.86350457 7.66267069 50.82276084 11.26117186 50.67871094 17.94287109 C50.6696875 18.73564453 50.66066406 19.52841797 50.65136719 20.34521484 C50.62788105 22.29456391 50.59201231 24.24375684 50.55371094 26.19287109 C51.34390625 26.32822266 52.13410156 26.46357422 52.94824219 26.60302734 C61.43624859 28.22302399 69.20288145 30.7218011 77.24243164 33.85522461 C78.0193335 34.15614014 78.79623535 34.45705566 79.59667969 34.76708984 C80.28785889 35.04125732 80.97903809 35.3154248 81.69116211 35.59790039 C83.70412229 36.34501655 83.70412229 36.34501655 86.55371094 36.19287109 C88.52710911 33.83457124 88.52710911 33.83457124 90.42871094 30.88037109 C93.56907967 26.169818 96.17095481 22.98949284 101.84277344 21.65380859 C109.73909405 21.3633085 114.40683335 24.6371471 120.55371094 29.19287109 C122.12347054 30.32905204 123.69383252 31.464401 125.26464844 32.59912109 C146.32563894 47.91216152 146.32563894 47.91216152 147.55371094 53.19287109 C148.58743678 60.81659919 145.72068801 64.97789069 141.55371094 71.19287109 C140.54554312 72.85460977 139.54320367 74.51994494 138.55371094 76.19287109 C139.08738281 76.74072266 139.62105469 77.28857422 140.17089844 77.85302734 C145.54940102 83.57582854 149.96346939 89.49653544 154.18994141 96.10131836 C156.98895844 100.46433528 156.98895844 100.46433528 160.55371094 104.19287109 C161.47152344 103.88091797 162.38933594 103.56896484 163.33496094 103.24755859 C175.86305252 99.27331106 175.86305252 99.27331106 182.55371094 102.19287109 C186.69628824 104.35830923 187.90842494 106.71317302 189.39746094 110.96240234 C189.74260742 111.94539307 190.08775391 112.92838379 190.44335938 113.94116211 C190.80977539 115.01422607 191.17619141 116.08729004 191.55371094 117.19287109 C191.93817383 118.31814209 192.32263672 119.44341309 192.71875 120.6027832 C193.93452625 124.20960264 195.12204603 127.82474403 196.30371094 131.44287109 C196.71492188 132.67005859 197.12613281 133.89724609 197.54980469 135.16162109 C197.9378125 136.35271484 198.32582031 137.54380859 198.72558594 138.77099609 C199.07717773 139.83737305 199.42876953 140.90375 199.79101562 142.00244141 C201.02003795 147.14356297 201.04993887 150.97297742 199.05371094 155.88037109 C194.82463879 162.51333689 186.592876 163.84648274 179.55371094 166.19287109 C179.55371094 178.07287109 179.55371094 189.95287109 179.55371094 202.19287109 C186.04186034 204.37286011 186.04186034 204.37286011 192.53759766 206.5300293 C193.34471191 206.8067749 194.15182617 207.08352051 194.98339844 207.36865234 C195.81081543 207.64620361 196.63823242 207.92375488 197.49072266 208.2097168 C199.55371094 209.19287109 199.55371094 209.19287109 201.55371094 212.19287109 C202.45629351 218.43147854 201.04240515 224.08081734 199.06933594 229.95458984 C198.81247009 230.74887894 198.55560425 231.54316803 198.29095459 232.36152649 C197.74915703 234.02654765 197.20091241 235.68948371 196.64648438 237.3503418 C195.8041129 239.8791644 194.98613566 242.41495334 194.17089844 244.95263672 C193.63847191 246.5787559 193.10466436 248.20442368 192.56933594 249.82958984 C192.32749573 250.57971848 192.08565552 251.32984711 191.83648682 252.10270691 C189.88584013 257.88493424 187.56638288 263.76094147 181.80371094 266.63037109 C175.1216364 269.61808902 169.26782821 267.12963569 162.55371094 265.19287109 C161.23371094 265.19287109 159.91371094 265.19287109 158.55371094 265.19287109 C156.93623409 267.30288788 155.62809507 269.28410672 154.30371094 271.56787109 C150.01716461 278.60909453 145.40778188 285.33880015 139.55371094 291.19287109 C139.83843059 295.47826688 141.66001848 298.07662566 144.11621094 301.50537109 C147.42253525 306.55651131 148.56462556 309.22847481 147.55371094 315.19287109 C145.60323069 321.88023194 139.92985242 325.24804001 134.55371094 329.19287109 C134.00682617 329.59586426 133.45994141 329.99885742 132.89648438 330.4140625 C129.37985648 332.99630624 125.82815984 335.52172128 122.24365234 338.00878906 C120.66880078 339.11223172 119.11610753 340.2471136 117.56542969 341.38427734 C112.31104062 345.06309289 108.29266146 347.23183762 101.76464844 346.66552734 C94.71701479 345.15887775 91.64283651 339.88480811 87.87402344 334.23974609 C87.43832031 333.56427734 87.00261719 332.88880859 86.55371094 332.19287109 C82.02910364 332.91610267 77.88956001 334.47628383 73.61621094 336.06787109 C66.01838007 338.83628469 58.52275241 340.75313935 50.55371094 342.19287109 C50.60011719 343.35044922 50.64652344 344.50802734 50.69433594 345.70068359 C50.73187341 347.23972015 50.76827145 348.7787848 50.80371094 350.31787109 C50.83722656 351.07841797 50.87074219 351.83896484 50.90527344 352.62255859 C50.99785978 357.99256632 50.07916506 360.90869215 46.55371094 365.19287109 C41.6079504 369.8195503 35.66201658 369.35142329 29.21777344 369.36083984 C28.42019623 369.36416824 27.62261902 369.36749664 26.8008728 369.3709259 C25.11823094 369.37597422 23.43557912 369.37833488 21.75292969 369.37817383 C19.19416612 369.3803579 16.63583572 369.39852905 14.07714844 369.41748047 C12.4365249 369.42041541 10.79589933 369.42239953 9.15527344 369.42333984 C8.01900009 369.43411812 8.01900009 369.43411812 6.85977173 369.44511414 C1.02645015 369.42032895 -5.48724374 368.9821836 -9.88378906 364.69287109 C-14.67391092 358.78463061 -12.85318626 349.31357202 -12.44628906 342.19287109 C-13.03152344 342.11810547 -13.61675781 342.04333984 -14.21972656 341.96630859 C-20.66943085 340.97851605 -26.71282744 339.25981347 -32.88378906 337.19287109 C-33.6647998 336.9316748 -34.44581055 336.67047852 -35.25048828 336.40136719 C-40.96830641 334.44589072 -40.96830641 334.44589072 -43.50512695 333.10302734 C-45.54167337 331.98060894 -45.54167337 331.98060894 -48.44628906 332.19287109 C-50.04739973 334.12128063 -51.47232914 336.00841204 -52.88378906 338.06787109 C-56.01741508 342.62299019 -58.24122084 345.29340257 -63.64550781 346.81005859 C-73.46440787 347.82740146 -79.90960552 341.60662322 -87.21484375 335.91259766 C-89.42992816 334.20548009 -91.68081345 332.56363864 -93.95410156 330.93505859 C-95.38942961 329.89659323 -96.82434111 328.85755181 -98.25878906 327.81787109 C-98.92225342 327.34317383 -99.58571777 326.86847656 -100.26928711 326.37939453 C-104.76735914 323.042999 -108.51579116 319.60066861 -110.04785156 313.98974609 C-110.11550866 308.08102594 -108.24092523 304.4110289 -104.95410156 299.55224609 C-103.43034272 297.16791879 -102.41493919 294.84490348 -101.44628906 292.19287109 C-102.62384766 290.76007813 -102.62384766 290.76007813 -103.82519531 289.29833984 C-120.44628906 268.90814065 -120.44628906 268.90814065 -120.44628906 264.19287109 C-121.43628906 264.49322266 -122.42628906 264.79357422 -123.44628906 265.10302734 C-137.18688924 269.12759467 -137.18688924 269.12759467 -143.44628906 267.19287109 C-148.25206975 263.78311411 -150.29407709 261.31244285 -152.25878906 255.63037109 C-152.60502319 254.6386792 -152.60502319 254.6386792 -152.95825195 253.62695312 C-153.49015261 252.0822413 -154.01101337 250.53370342 -154.5234375 248.98242188 C-155.20579337 246.91982976 -155.90113861 244.86152454 -156.60351562 242.80566406 C-157.88120704 239.06541354 -159.13579733 235.31812855 -160.38378906 231.56787109 C-160.79798096 230.34640381 -161.21217285 229.12493652 -161.63891602 227.86645508 C-162.01749756 226.70315674 -162.3960791 225.5398584 -162.78613281 224.34130859 C-163.13023193 223.30151855 -163.47433105 222.26172852 -163.82885742 221.19042969 C-164.5233627 217.81868757 -164.2942746 215.5135589 -163.44628906 212.19287109 C-160.48804508 208.09348632 -156.54989725 206.87375094 -151.88378906 205.44287109 C-151.21154297 205.22244141 -150.53929687 205.00201172 -149.84667969 204.77490234 C-146.93656714 203.8443599 -144.51916409 203.19287109 -141.44628906 203.19287109 C-141.48181885 202.57468506 -141.51734863 201.95649902 -141.55395508 201.31958008 C-142.22880196 189.18022257 -142.69000056 177.30470773 -141.44628906 165.19287109 C-142.28160156 165.04591797 -142.28160156 165.04591797 -143.13378906 164.89599609 C-150.10211104 163.53058165 -156.01258138 161.80910685 -160.94628906 156.50537109 C-164.10614809 149.52734908 -162.38512152 142.63777682 -159.99707031 135.64990234 C-159.74257614 134.8778093 -159.48808197 134.10571625 -159.22587585 133.31022644 C-158.68854366 131.6921502 -158.14449346 130.07629053 -157.59399414 128.46264648 C-156.75942975 126.00725607 -155.95420786 123.54355707 -155.15136719 121.07763672 C-154.62249894 119.49697847 -154.09195609 117.91687932 -153.55957031 116.33740234 C-153.32289139 115.60914749 -153.08621246 114.88089264 -152.84236145 114.13056946 C-151.14364797 109.23533486 -149.08152898 105.91517421 -145.44628906 102.19287109 C-138.28930383 99.05384248 -132.6971626 101.00725064 -125.44628906 103.19287109 C-124.11423432 103.53127771 -122.78111791 103.8655779 -121.44628906 104.19287109 C-121.12466797 103.69996582 -120.80304688 103.20706055 -120.47167969 102.69921875 C-114.48705788 93.55367508 -108.55620045 84.51564972 -101.44628906 76.19287109 C-102.64081695 72.95931187 -103.91568293 70.30452925 -106.00878906 67.56787109 C-108.63866039 64.11860365 -109.61638165 61.22004966 -109.75878906 56.88037109 C-109.81486328 55.77242187 -109.81486328 55.77242187 -109.87207031 54.64208984 C-108.81065844 48.53653712 -104.30911102 44.96374627 -99.57128906 41.44287109 C-99.00974121 41.02312012 -98.44819336 40.60336914 -97.86962891 40.17089844 C-96.07030295 38.83296361 -94.25970461 37.51163145 -92.44628906 36.19287109 C-91.83269531 35.74266602 -91.21910156 35.29246094 -90.58691406 34.82861328 C-88.7531024 33.48503804 -86.91390497 32.14934186 -85.07128906 30.81787109 C-84.51328613 30.41342773 -83.9552832 30.00898437 -83.38037109 29.59228516 C-76.14318718 24.4323814 -70.58336871 20.76615102 -61.44628906 22.19287109 C-55.17431171 24.89842995 -52.0335692 30.63152556 -48.44628906 36.19287109 C-45.15094895 35.59533251 -42.107961 34.79909888 -38.96972656 33.63427734 C-38.13860352 33.33142822 -37.30748047 33.0285791 -36.45117188 32.71655273 C-35.58331055 32.39936279 -34.71544922 32.08217285 -33.82128906 31.75537109 C-26.77016259 29.22277117 -19.9301986 27.03395267 -12.44628906 26.19287109 C-12.55070312 24.365625 -12.55070312 24.365625 -12.65722656 22.50146484 C-13.24383576 7.83775469 -13.24383576 7.83775469 -9.57128906 3.63037109 C-5.91868912 0.78134314 -4.48239959 0.07095605 0 0 Z M3.55371094 16.19287109 C3.4231037 21.84604412 3.4231037 21.84604412 3.34594727 27.5 C3.18193604 31.67594189 2.69846973 33.94892058 0.51855469 37.62255859 C-3.13673501 40.79143952 -6.0555492 41.6728954 -10.69628906 42.69287109 C-12.30304034 43.09138107 -13.90848923 43.49517341 -15.51269531 43.90380859 C-16.32883301 44.10973633 -17.1449707 44.31566406 -17.98583984 44.52783203 C-21.9381045 45.59609646 -25.78180817 46.93616366 -29.63378906 48.31787109 C-30.31538086 48.55957031 -30.99697266 48.80126953 -31.69921875 49.05029297 C-34.91664579 50.21015556 -38.05943326 51.45019201 -41.18066406 52.84912109 C-46.25265164 54.93615904 -50.1960324 55.0770061 -55.41894531 53.02490234 C-58.89300491 50.92253595 -60.54296316 48.84429698 -62.82128906 45.50537109 C-63.50964844 44.51150391 -64.19800781 43.51763672 -64.90722656 42.49365234 C-65.41511719 41.73439453 -65.92300781 40.97513672 -66.44628906 40.19287109 C-71.52676786 41.80351212 -75.33188963 44.87489756 -79.50878906 48.06787109 C-80.21583984 48.59767578 -80.92289063 49.12748047 -81.65136719 49.67333984 C-85.15244109 52.32297887 -88.44610741 54.96670173 -91.44628906 58.19287109 C-90.96417969 58.81033203 -90.48207031 59.42779297 -89.98535156 60.06396484 C-82.15370699 70.56476175 -82.15370699 70.56476175 -82.44628906 77.19287109 C-84.24971473 82.48129502 -86.80071342 86.13933928 -90.57128906 90.25537109 C-94.5637425 94.77917751 -98.06266197 99.38701073 -101.25878906 104.50537109 C-101.62593018 105.09294189 -101.99307129 105.6805127 -102.37133789 106.28588867 C-102.72607178 106.85460693 -103.08080566 107.4233252 -103.44628906 108.00927734 C-110.51633739 119.26335817 -110.51633739 119.26335817 -115.44628906 121.19287109 C-122.38505923 122.25086179 -128.87682151 120.2558067 -135.44628906 118.19287109 C-138.04465066 124.23152152 -140.2210192 130.36507308 -142.19628906 136.63037109 C-142.53019653 137.67741211 -142.53019653 137.67741211 -142.87084961 138.74560547 C-143.77887205 141.6723659 -144.44628906 144.10961011 -144.44628906 147.19287109 C-143.63804687 147.44681641 -142.82980469 147.70076172 -141.99707031 147.96240234 C-140.39412109 148.47867188 -140.39412109 148.47867188 -138.75878906 149.00537109 C-137.70304687 149.34181641 -136.64730469 149.67826172 -135.55957031 150.02490234 C-130.97346121 151.74541253 -128.29533994 152.85787408 -125.61035156 157.07958984 C-123.58353984 162.52290488 -124.44415224 168.32380874 -124.82128906 174.00537109 C-125.30903683 182.93898325 -125.57378559 191.64279505 -124.58837891 200.54760742 C-124.11345225 205.72123568 -125.09714884 208.68988735 -127.44628906 213.19287109 C-131.78582796 218.09235049 -138.3681513 219.37039916 -144.44628906 221.19287109 C-143.09311464 227.64647221 -141.42772612 233.90524163 -139.44628906 240.19287109 C-139.18589844 241.05009766 -138.92550781 241.90732422 -138.65722656 242.79052734 C-138.40199219 243.60392578 -138.14675781 244.41732422 -137.88378906 245.25537109 C-137.655625 245.98884766 -137.42746094 246.72232422 -137.19238281 247.47802734 C-136.5763881 249.39521535 -136.5763881 249.39521535 -134.44628906 250.19287109 C-132.58575592 249.63476112 -132.58575592 249.63476112 -130.50878906 248.75537109 C-125.27878611 246.94174104 -119.9115629 245.9801388 -114.44628906 247.19287109 C-109.36874967 250.63460527 -106.66492127 254.56889812 -103.63378906 259.81787109 C-98.95502151 267.61700302 -93.71882675 274.54153109 -87.55175781 281.25537109 C-83.68848851 285.74291577 -82.47983276 289.35146623 -82.77050781 295.30615234 C-83.82675252 299.81808781 -86.2022726 303.17722957 -88.91503906 306.88037109 C-90.72233773 309.1475085 -90.72233773 309.1475085 -90.44628906 312.19287109 C-88.84342378 313.77786163 -88.84342378 313.77786163 -86.68457031 315.22412109 C-85.89501953 315.78744141 -85.10546875 316.35076172 -84.29199219 316.93115234 C-83.45603516 317.51251953 -82.62007812 318.09388672 -81.75878906 318.69287109 C-80.53385742 319.56492187 -80.53385742 319.56492187 -79.28417969 320.45458984 C-75.42188638 323.18790511 -71.56042796 325.84672264 -67.44628906 328.19287109 C-66.85460937 327.43361328 -66.26292969 326.67435547 -65.65332031 325.89208984 C-64.863125 324.89822266 -64.07292969 323.90435547 -63.25878906 322.88037109 C-62.48148437 321.89423828 -61.70417969 320.90810547 -60.90332031 319.89208984 C-57.29400143 315.92700344 -54.63282008 314.04414213 -49.25097656 313.77490234 C-43.8884161 313.96650147 -39.45903159 315.80253713 -34.57128906 317.88037109 C-26.71182372 321.07685816 -18.96589714 323.60845472 -10.66357422 325.38110352 C-5.3635401 326.60468298 -2.34689439 328.36461084 1.55371094 332.19287109 C3.20183742 335.48912405 2.93620425 339.18745584 3.11621094 342.81787109 C3.26058594 345.58162109 3.40496094 348.34537109 3.55371094 351.19287109 C13.45371094 351.19287109 23.35371094 351.19287109 33.55371094 351.19287109 C33.88371094 346.90287109 34.21371094 342.61287109 34.55371094 338.19287109 C36.19716477 331.13568698 36.19716477 331.13568698 39.17871094 329.06347656 C44.18905366 326.63027837 49.07432641 325.12459971 54.49121094 323.88037109 C61.17698229 322.25935901 67.33185337 320.17168975 73.61621094 317.38037109 C79.59893268 314.77304555 84.93878444 312.62957792 91.55371094 314.19287109 C97.82568829 316.89842995 100.9664308 322.63152556 104.55371094 328.19287109 C108.50508857 326.43779269 111.88577636 323.90787385 115.36621094 321.38037109 C116.56022135 320.51969401 117.75423177 319.65901693 118.94824219 318.79833984 C119.53557129 318.37343262 120.12290039 317.94852539 120.72802734 317.51074219 C123.66161601 315.39312897 126.6080654 313.29367079 129.55371094 311.19287109 C129.15539062 310.62439453 128.75707031 310.05591797 128.34667969 309.47021484 C119.59724344 296.71860338 119.59724344 296.71860338 120.98730469 289.09521484 C122.37161291 284.44584861 125.57122688 281.15339282 128.74121094 277.63037109 C135.5620321 269.97524349 141.21873297 261.22884867 146.06933594 252.21630859 C148.4708006 248.94273307 151.09509817 247.4214095 155.09667969 246.79443359 C155.969375 246.80216797 156.84207031 246.80990234 157.74121094 246.81787109 C158.60101563 246.81013672 159.46082031 246.80240234 160.34667969 246.79443359 C164.92172491 247.36283142 169.17819914 248.77404824 173.55371094 250.19287109 C175.06123986 245.92465755 176.55844053 241.652893 178.05371094 237.38037109 C178.48296875 236.16542969 178.91222656 234.95048828 179.35449219 233.69873047 C179.96357422 231.95366211 179.96357422 231.95366211 180.58496094 230.17333984 C180.96201172 229.09979248 181.3390625 228.02624512 181.72753906 226.92016602 C182.69866946 224.1892925 182.69866946 224.1892925 182.55371094 221.19287109 C181.44511719 220.85255859 180.33652344 220.51224609 179.19433594 220.16162109 C177.7302726 219.67359998 176.26675863 219.18392862 174.80371094 218.69287109 C174.07410156 218.47373047 173.34449219 218.25458984 172.59277344 218.02880859 C168.70493887 216.68573847 166.27481632 215.46777436 164.34375 211.73803711 C162.00593487 206.67125018 161.97626999 201.8805128 162.02246094 196.37646484 C162.01863403 195.36117203 162.01480713 194.34587921 162.01086426 193.29981995 C162.00815506 191.16430666 162.01544631 189.02875962 162.03222656 186.89331055 C162.05367198 183.63628844 162.03237875 180.38146642 162.00683594 177.12451172 C162.00947895 175.04182459 162.01460339 172.95913883 162.02246094 170.87646484 C162.01436401 169.90962265 162.00626709 168.94278046 161.9979248 167.94664001 C162.08204912 161.84430127 162.97379413 158.18235152 166.55371094 153.19287109 C168.66699219 151.70458984 168.66699219 151.70458984 170.86621094 150.88037109 C171.64480469 150.58001953 172.42339844 150.27966797 173.22558594 149.97021484 C176.31816391 148.93762589 179.39392883 147.99962397 182.55371094 147.19287109 C181.19682326 140.75252384 179.56290886 134.4791853 177.61621094 128.19287109 C177.23819336 126.90703125 177.23819336 126.90703125 176.85253906 125.59521484 C176.47452148 124.37511719 176.47452148 124.37511719 176.08886719 123.13037109 C175.86593994 122.39689453 175.6430127 121.66341797 175.41333008 120.90771484 C174.62082577 118.82280828 174.62082577 118.82280828 171.55371094 118.19287109 C169.54475512 118.73342574 169.54475512 118.73342574 167.42871094 119.63037109 C162.81795732 121.25990454 158.41547994 122.0977989 153.55371094 121.19287109 C149.71732412 119.32146289 147.63416923 117.3606385 145.30371094 113.81787109 C144.706875 112.93099609 144.11003906 112.04412109 143.49511719 111.13037109 C142.85445313 110.16099609 142.21378906 109.19162109 141.55371094 108.19287109 C136.27866643 100.33433178 130.86402656 92.96268295 124.62011719 85.84912109 C121.73011393 82.13418307 120.12156814 78.81955079 120.42871094 74.06787109 C121.25919712 67.67204893 125.58131422 63.03394682 129.55371094 58.19287109 C125.84080894 54.26156309 121.92796442 51.14489843 117.49121094 48.06787109 C116.27090074 47.21146794 115.05084196 46.3547064 113.83105469 45.49755859 C113.26241699 45.10149414 112.6937793 44.70542969 112.10791016 44.29736328 C110.79398371 43.36362102 109.51505405 42.38092611 108.24511719 41.38818359 C106.62668314 40.00049529 106.62668314 40.00049529 104.55371094 40.19287109 C102.63603187 42.65684381 100.85131135 45.17194852 99.09472656 47.75146484 C96.58255788 51.27955284 94.8111812 53.22219245 90.55371094 54.19287109 C83.79430528 54.83391062 79.04990014 53.1674061 72.86621094 50.56787109 C64.51062483 47.18164413 56.17910655 44.49531155 47.39477539 42.44824219 C41.53426427 40.95060057 38.85106563 39.33517424 35.55371094 34.19287109 C34.08954194 28.33619511 33.98382392 22.21445288 33.55371094 16.19287109 C23.65371094 16.19287109 13.75371094 16.19287109 3.55371094 16.19287109 Z " fill="#000000" transform="translate(238.4462890625,71.80712890625)"/>
<path d="M0 0 C3.26701612 2.66358727 6.39330111 5.45632415 9.50390625 8.30078125 C10.70273437 9.37585938 10.70273437 9.37585938 11.92578125 10.47265625 C23.25289034 21.15709249 31.22417267 34.17323423 37.50390625 48.30078125 C38.22707031 49.89986328 38.22707031 49.89986328 38.96484375 51.53125 C50.78051581 79.78144774 49.75735979 113.27799334 38.81640625 141.55078125 C32.90163585 155.93577959 24.97055595 167.85479591 14.50390625 179.30078125 C13.7871875 180.1 13.07046875 180.89921875 12.33203125 181.72265625 C1.64253838 193.05512614 -11.36968274 201.0066886 -25.49609375 207.30078125 C-26.55054688 207.78289062 -27.605 208.265 -28.69140625 208.76171875 C-51.6867879 218.46565218 -80.5115563 220.05238771 -104.49609375 213.30078125 C-105.72457031 212.96046875 -106.95304687 212.62015625 -108.21875 212.26953125 C-139.63427907 202.65319557 -164.50751489 181.32853982 -180.44140625 152.8203125 C-189.75666771 134.97614282 -194.12665429 116.60373819 -193.93359375 96.55078125 C-193.9298877 95.85456665 -193.92618164 95.15835205 -193.92236328 94.44104004 C-193.68809984 63.3958102 -182.39194102 36.15179552 -161.49609375 13.30078125 C-160.779375 12.5015625 -160.06265625 11.70234375 -159.32421875 10.87890625 C-148.63472588 -0.45356364 -135.62250476 -8.4051261 -121.49609375 -14.69921875 C-120.44164062 -15.18132812 -119.3871875 -15.6634375 -118.30078125 -16.16015625 C-80.31158865 -32.19140121 -32.31783025 -25.47213687 0 0 Z M-140.49609375 17.30078125 C-141.19992188 17.83960938 -141.90375 18.3784375 -142.62890625 18.93359375 C-157.92516267 31.25729832 -167.62535655 49.92199327 -173.49609375 68.30078125 C-174.00849609 69.85539062 -174.00849609 69.85539062 -174.53125 71.44140625 C-179.29645139 89.08373324 -178.21758811 110.02447744 -172.49609375 127.30078125 C-172.11066406 128.46480469 -171.72523438 129.62882813 -171.328125 130.828125 C-166.92803665 143.03160627 -160.53933001 153.17543063 -152.49609375 163.30078125 C-151.9546875 164.00976562 -151.41328125 164.71875 -150.85546875 165.44921875 C-134.79756225 185.31885052 -108.71535605 196.49028293 -83.95703125 199.76953125 C-55.22463145 202.47665243 -28.6869486 193.27734913 -6.49609375 175.30078125 C-5.79226563 174.76195312 -5.0884375 174.223125 -4.36328125 173.66796875 C10.93297517 161.34426418 20.63316905 142.67956923 26.50390625 124.30078125 C26.84550781 123.264375 27.18710937 122.22796875 27.5390625 121.16015625 C32.30426389 103.51782926 31.22540061 82.57708506 25.50390625 65.30078125 C25.11847656 64.13675781 24.73304688 62.97273438 24.3359375 61.7734375 C19.93584915 49.56995623 13.54714251 39.42613187 5.50390625 29.30078125 C4.69179688 28.23730469 4.69179688 28.23730469 3.86328125 27.15234375 C-12.19462525 7.28271198 -38.27683145 -3.88872043 -63.03515625 -7.16796875 C-91.76755605 -9.87508993 -118.3052389 -0.67578663 -140.49609375 17.30078125 Z " fill="#000000" transform="translate(329.49609375,159.69921875)"/>
<path d="M0 0 C7.92355493 0.01282821 15.64532502 1.16868303 23.46044922 2.36230469 C25.8220891 2.72231227 28.18533853 3.06980571 30.54907227 3.41577148 C32.04983139 3.63965753 33.55048672 3.86424072 35.05102539 4.08959961 C35.75820206 4.19380722 36.46537872 4.29801483 37.19398499 4.40538025 C42.11879567 5.16518239 42.11879567 5.16518239 43.23461914 6.28100586 C43.17003521 8.22145946 43.03265582 10.15970402 42.85961914 12.09350586 C42.72426758 13.68098633 42.72426758 13.68098633 42.58618164 15.30053711 C42.23461914 18.28100586 42.23461914 18.28100586 41.23461914 22.28100586 C37.27461914 22.28100586 33.31461914 22.28100586 29.23461914 22.28100586 C61.43747156 50.32664997 99.39362654 68.86221555 141.23461914 77.28100586 C142.4230542 77.52874756 142.4230542 77.52874756 143.63549805 77.78149414 C192.59265368 87.5406303 246.424025 77.97842994 290.17993164 54.78613281 C291.04618164 54.33069092 291.91243164 53.87524902 292.80493164 53.40600586 C293.56563965 52.99608398 294.32634766 52.58616211 295.11010742 52.16381836 C297.23461914 51.28100586 297.23461914 51.28100586 301.23461914 51.28100586 C303.19165039 53.80053711 303.19165039 53.80053711 305.04711914 57.09350586 C305.67231445 58.17245117 306.29750977 59.25139648 306.94165039 60.36303711 C308.23461914 63.28100586 308.23461914 63.28100586 307.23461914 66.28100586 C305.69433594 67.41259766 305.69433594 67.41259766 303.68383789 68.48022461 C302.93320068 68.88072021 302.18256348 69.28121582 301.40917969 69.69384766 C300.58844971 70.11448486 299.76771973 70.53512207 298.92211914 70.96850586 C298.06980713 71.40912354 297.21749512 71.84974121 296.33935547 72.30371094 C261.23213676 90.10315116 222.85922035 98.75894801 183.60961914 98.59350586 C182.68608643 98.59135071 181.76255371 98.58919556 180.81103516 98.5869751 C166.75716191 98.53443555 153.0529254 98.05113822 139.23461914 95.28100586 C138.21625977 95.0823291 137.19790039 94.88365234 136.14868164 94.67895508 C93.20588083 86.08653315 50.96807296 67.29822645 18.94946289 36.85522461 C17.30709417 35.20248718 17.30709417 35.20248718 15.23461914 34.28100586 C15.36030273 35.67125977 15.36030273 35.67125977 15.48852539 37.08959961 C15.59036133 38.28713867 15.69219727 39.48467773 15.79711914 40.71850586 C15.9015332 41.9134668 16.00594727 43.10842773 16.11352539 44.33959961 C16.15348633 45.31026367 16.19344727 46.28092773 16.23461914 47.28100586 C14.1532036 49.3624214 10.04854961 49.01189347 7.17211914 49.34350586 C6.41350586 49.43438477 5.65489258 49.52526367 4.87329102 49.61889648 C2.99418904 49.84344326 1.11445819 50.06271564 -0.76538086 50.28100586 C-1.69810313 44.25198955 -2.60685061 38.22002401 -3.49365234 32.18408203 C-3.79862085 30.13166504 -4.11009649 28.0802039 -4.42822266 26.02978516 C-4.88462818 23.0806484 -5.31744825 20.12885515 -5.74584961 17.17553711 C-5.89257614 16.26077103 -6.03930267 15.34600494 -6.19047546 14.40351868 C-7.08468187 8.00991104 -7.08468187 8.00991104 -5.45410156 4.28759766 C-2.13121493 0.33923778 -2.13121493 0.33923778 0 0 Z " fill="#000000" transform="translate(72.765380859375,405.718994140625)"/>
<path d="M0 0 C3.26266258 3.26266258 4.67002756 4.84483617 6.55078125 8.75390625 C7.22234253 10.14416016 7.22234253 10.14416016 7.9074707 11.5625 C8.37113037 12.5525 8.83479004 13.5425 9.3125 14.5625 C9.7974292 15.59246094 10.2823584 16.62242187 10.78198242 17.68359375 C21.77946378 41.38679654 28.32882081 66.14981763 32 92 C32.1045752 92.72469482 32.20915039 93.44938965 32.31689453 94.19604492 C33.42573047 103.30178976 33.24394811 112.52914834 33.25 121.6875 C33.25067474 122.60350983 33.25134949 123.51951965 33.25204468 124.46328735 C33.23561804 138.50775347 32.73469615 152.18370145 30 166 C29.73461426 167.35931641 29.73461426 167.35931641 29.46386719 168.74609375 C22.70828318 202.39566933 10.47290764 236.13723988 -10 264 C-10.44843262 264.6192334 -10.89686523 265.2384668 -11.35888672 265.87646484 C-17.0045718 273.65905941 -22.76185202 281.17025711 -29.35546875 288.1796875 C-31.06698441 289.91084045 -31.06698441 289.91084045 -32 292 C-31.33613281 291.84402344 -30.67226563 291.68804687 -29.98828125 291.52734375 C-29.10527344 291.33269531 -28.22226562 291.13804687 -27.3125 290.9375 C-26.44238281 290.74027344 -25.57226562 290.54304688 -24.67578125 290.33984375 C-22 290 -22 290 -17 291 C-16.34 296.28 -15.68 301.56 -15 307 C-20.8874267 307.9082175 -26.77714862 308.79883704 -32.66967773 309.67333984 C-34.67333349 309.97321551 -36.67628086 310.27786515 -38.6784668 310.58740234 C-41.55864751 311.03182616 -44.44094991 311.45894777 -47.32421875 311.8828125 C-48.21711105 312.02437775 -49.11000336 312.16594299 -50.029953 312.3117981 C-54.58042599 312.96297561 -57.85986495 313.4145336 -62 311 C-63.8125 309.375 -63.8125 309.375 -65 307 C-65.21649655 301.41212984 -64.75473103 296.1189121 -63.94140625 290.59765625 C-63.8327977 289.83448593 -63.72418915 289.07131561 -63.61228943 288.28501892 C-63.38380047 286.68889032 -63.15257343 285.09315144 -62.91870117 283.49780273 C-62.56005377 281.04577546 -62.21206512 278.59239555 -61.86523438 276.13867188 C-61.64125048 274.58324314 -61.41666318 273.02790114 -61.19140625 271.47265625 C-61.08719864 270.7373317 -60.98299103 270.00200714 -60.87562561 269.24440002 C-60.11536119 264.11536119 -60.11536119 264.11536119 -59 263 C-57.0595464 263.06458393 -55.12130184 263.20196332 -53.1875 263.375 C-52.12917969 263.46523438 -51.07085937 263.55546875 -49.98046875 263.6484375 C-47 264 -47 264 -43 265 C-43 268.96 -43 272.92 -43 277 C-5.06514462 235.27165908 15.56798632 179.02324179 15.3125 122.875 C15.31034485 122.01872009 15.3081897 121.16244019 15.30596924 120.2802124 C15.25240029 106.98551461 14.72225116 94.05321857 12 81 C11.79600586 80.00935547 11.59201172 79.01871094 11.38183594 77.99804688 C6.49261496 54.89701151 -1.33436615 34.40568124 -11.89599609 13.31811523 C-13 11 -13 11 -14 8 C-9.38 5.36 -4.76 2.72 0 0 Z " fill="#000000" transform="translate(471,133)"/>
<path d="M0 0 C2.53773528 6.09056467 1.13108427 13.02333885 0.19140625 19.40234375 C0.0827977 20.16551407 -0.02581085 20.92868439 -0.13771057 21.71498108 C-0.36619953 23.31110968 -0.59742657 24.90684856 -0.83129883 26.50219727 C-1.18994623 28.95422454 -1.53793488 31.40760445 -1.88476562 33.86132812 C-2.10874952 35.41675686 -2.33333682 36.97209886 -2.55859375 38.52734375 C-2.66280136 39.2626683 -2.76700897 39.99799286 -2.87437439 40.75559998 C-3.63463881 45.88463881 -3.63463881 45.88463881 -4.75 47 C-6.6904536 46.93541607 -8.62869816 46.79803668 -10.5625 46.625 C-12.14998047 46.48964844 -12.14998047 46.48964844 -13.76953125 46.3515625 C-16.75 46 -16.75 46 -20.75 45 C-20.75 41.04 -20.75 37.08 -20.75 33 C-31.80580522 45.84355244 -41.35460657 59.27825651 -49.75 74 C-50.26409424 74.89041992 -50.26409424 74.89041992 -50.78857422 75.79882812 C-62.21656279 95.7335291 -69.75102443 117.76483042 -74.5 140.1875 C-74.79813599 141.59273926 -74.79813599 141.59273926 -75.10229492 143.02636719 C-78.06980671 157.76598424 -79.1307223 172.13178049 -79.0625 187.125 C-79.06034485 187.98127991 -79.0581897 188.83755981 -79.05596924 189.7197876 C-79.00240029 203.01448539 -78.47225116 215.94678143 -75.75 229 C-75.54600586 229.99064453 -75.34201172 230.98128906 -75.13183594 232.00195312 C-70.24261496 255.10298849 -62.41563385 275.59431876 -51.85400391 296.68188477 C-50.75 299 -50.75 299 -49.75 302 C-56.68 305.96 -56.68 305.96 -63.75 310 C-67.01266258 306.73733742 -68.42002756 305.15516383 -70.30078125 301.24609375 C-70.74848877 300.31925781 -71.19619629 299.39242188 -71.6574707 298.4375 C-72.12113037 297.4475 -72.58479004 296.4575 -73.0625 295.4375 C-73.5474292 294.40753906 -74.0323584 293.37757813 -74.53198242 292.31640625 C-85.52946378 268.61320346 -92.07882081 243.85018237 -95.75 218 C-95.8545752 217.27530518 -95.95915039 216.55061035 -96.06689453 215.80395508 C-97.17573044 206.69821044 -96.99394872 197.47085157 -97 188.3125 C-97.00067474 187.39615784 -97.00134949 186.47981567 -97.00204468 185.53570557 C-96.98560653 171.47540368 -96.41069585 157.84033226 -93.75 144 C-93.50056641 142.62400635 -93.50056641 142.62400635 -93.24609375 141.22021484 C-87.08626585 107.75752011 -73.89751486 73.62983469 -53.75 46 C-53.30011719 45.37786621 -52.85023437 44.75573242 -52.38671875 44.11474609 C-46.74258736 36.33545022 -40.98564991 28.82708729 -34.39453125 21.8203125 C-32.68301559 20.08915955 -32.68301559 20.08915955 -31.75 18 C-32.41386719 18.15597656 -33.07773438 18.31195313 -33.76171875 18.47265625 C-34.64472656 18.66730469 -35.52773437 18.86195312 -36.4375 19.0625 C-37.74267578 19.35833984 -37.74267578 19.35833984 -39.07421875 19.66015625 C-41.75 20 -41.75 20 -46.75 19 C-47.41 13.72 -48.07 8.44 -48.75 3 C-44.12864164 2.27952097 -39.50706104 1.56484682 -34.8828125 0.86376953 C-33.31526261 0.6244612 -31.74818513 0.3820341 -30.18164062 0.13623047 C-5.19470063 -3.7779641 -5.19470063 -3.7779641 0 0 Z " fill="#000000" transform="translate(104.75,69)"/>
<path d="M0 0 C1.37451324 -0.00101212 1.37451324 -0.00101212 2.77679443 -0.00204468 C16.83709632 0.01439347 30.47216774 0.58930415 44.3125 3.25 C45.2298291 3.41628906 46.1471582 3.58257812 47.09228516 3.75390625 C80.55497989 9.91373415 114.68266531 23.10248514 142.3125 43.25 C142.93463379 43.69988281 143.55676758 44.14976563 144.19775391 44.61328125 C151.97704978 50.25741264 159.48541271 56.01435009 166.4921875 62.60546875 C168.22334045 64.31698441 168.22334045 64.31698441 170.3125 65.25 C170.15652344 64.58613281 170.00054687 63.92226562 169.83984375 63.23828125 C169.64519531 62.35527344 169.45054687 61.47226563 169.25 60.5625 C169.05277344 59.69238281 168.85554688 58.82226562 168.65234375 57.92578125 C168.3125 55.25 168.3125 55.25 169.3125 50.25 C174.5925 49.59 179.8725 48.93 185.3125 48.25 C186.22181548 53.97647713 187.11235672 59.70544759 187.98583984 65.4375 C188.28541681 67.38588379 188.59005401 69.33349668 188.89990234 71.28027344 C189.34513803 74.08339715 189.77192872 76.88881567 190.1953125 79.6953125 C190.33687775 80.56116974 190.47844299 81.42702698 190.6242981 82.31912231 C191.34022695 87.20246084 191.4519639 90.63194345 189.3125 95.25 C187.75 97.125 187.75 97.125 185.3125 98.25 C177.15880792 98.76016515 169.19990355 97.38974959 161.16210938 96.16870117 C158.79151275 95.80931833 156.41940577 95.46159458 154.046875 95.11523438 C152.5415656 94.89130331 151.03635333 94.6667182 149.53125 94.44140625 C148.82093628 94.33719864 148.11062256 94.23299103 147.37878418 94.12562561 C142.42811801 93.36561801 142.42811801 93.36561801 141.3125 92.25 C141.37708393 90.3095464 141.51446332 88.37130184 141.6875 86.4375 C141.77773438 85.37917969 141.86796875 84.32085937 141.9609375 83.23046875 C142.3125 80.25 142.3125 80.25 143.3125 76.25 C147.2725 76.25 151.2325 76.25 155.3125 76.25 C142.46894756 65.19419478 129.03424349 55.64539343 114.3125 47.25 C113.71888672 46.90727051 113.12527344 46.56454102 112.51367188 46.21142578 C92.73288739 34.87167309 70.88124272 27.45018802 48.6875 22.5 C47.80666748 22.30124268 46.92583496 22.10248535 46.01831055 21.89770508 C31.11811207 18.73376924 16.31222852 17.86803658 1.125 17.9375 C0.27121765 17.93965515 -0.5825647 17.9418103 -1.46221924 17.94403076 C-14.73825538 17.9976494 -27.65265792 18.53158126 -40.6875 21.25 C-41.67814453 21.45399414 -42.66878906 21.65798828 -43.68945312 21.86816406 C-66.79048849 26.75738504 -87.28181876 34.58436615 -108.36938477 45.14599609 C-110.6875 46.25 -110.6875 46.25 -113.6875 47.25 C-116.3275 42.63 -118.9675 38.01 -121.6875 33.25 C-118.42483742 29.98733742 -116.84266383 28.57997244 -112.93359375 26.69921875 C-111.54333984 26.02765747 -111.54333984 26.02765747 -110.125 25.3425293 C-109.135 24.87886963 -108.145 24.41520996 -107.125 23.9375 C-106.09503906 23.4525708 -105.06507813 22.9676416 -104.00390625 22.46801758 C-80.30070346 11.47053622 -55.53768237 4.92117919 -29.6875 1.25 C-28.96280518 1.1454248 -28.23811035 1.04084961 -27.49145508 0.93310547 C-18.38571044 -0.17573044 -9.15835157 0.00605128 0 0 Z " fill="#000000" transform="translate(254.6875,7.75)"/>
<path d="M0 0 C1.10214844 -0.02900391 2.20429688 -0.05800781 3.33984375 -0.08789062 C4.40074219 -0.09626953 5.46164063 -0.10464844 6.5546875 -0.11328125 C7.52647949 -0.12786377 8.49827148 -0.14244629 9.49951172 -0.1574707 C13.01999808 0.47270749 14.03309329 1.41768542 16.125 4.3125 C17.01225282 7.01209558 17.69182034 9.52199499 18.2734375 12.28515625 C18.45154465 13.072995 18.62965179 13.86083374 18.81315613 14.67254639 C19.38943732 17.23713821 19.94489637 19.80574919 20.5 22.375 C20.89184878 24.13855411 21.28500392 25.90181844 21.67944336 27.66479492 C22.46827865 31.20125327 23.24885445 34.73936986 24.02197266 38.27929688 C25.00996736 42.79995517 26.02107735 47.31502479 27.04296875 51.828125 C29.17672632 61.28696837 29.17672632 61.28696837 30.12890625 65.58203125 C30.32299072 66.45448486 30.5170752 67.32693848 30.71704102 68.22583008 C31.125 70.3125 31.125 70.3125 31.125 72.3125 C25.185 72.3125 19.245 72.3125 13.125 72.3125 C10.125 59.6875 10.125 59.6875 10.125 56.3125 C3.525 56.3125 -3.075 56.3125 -9.875 56.3125 C-10.865 61.5925 -11.855 66.8725 -12.875 72.3125 C-18.815 72.3125 -24.755 72.3125 -30.875 72.3125 C-29.56051278 64.05608247 -27.99566566 55.91303461 -26.16015625 47.7578125 C-25.90374863 46.61263153 -25.647341 45.46745056 -25.38316345 44.28756714 C-24.84457315 41.88889547 -24.30415128 39.49063437 -23.76196289 37.09277344 C-22.9354025 33.42820067 -22.12086821 29.76108001 -21.30664062 26.09375 C-20.77937984 23.75243875 -20.25140991 21.41128706 -19.72265625 19.0703125 C-19.48192886 17.97961456 -19.24120148 16.88891663 -18.99317932 15.76516724 C-17.81426022 10.60710071 -16.70314978 5.86177956 -13.875 1.3125 C-9.76999122 -0.74000439 -4.51183056 0.03930166 0 0 Z M-0.875 16.3125 C-1.71609099 19.56054287 -2.54650656 22.81122304 -3.375 26.0625 C-3.61347656 26.98289063 -3.85195312 27.90328125 -4.09765625 28.8515625 C-4.43603516 30.18574219 -4.43603516 30.18574219 -4.78125 31.546875 C-4.99072266 32.36381836 -5.20019531 33.18076172 -5.41601562 34.02246094 C-6.00601211 36.57690304 -6.00601211 36.57690304 -5.875 40.3125 C-1.915 40.3125 2.045 40.3125 6.125 40.3125 C5.54140925 31.99633188 3.38700586 24.29790674 1.125 16.3125 C0.465 16.3125 -0.195 16.3125 -0.875 16.3125 Z " fill="#000000" transform="translate(227.875,219.6875)"/>
<path d="M0 0 C13.53 0 27.06 0 41 0 C41 5.28 41 10.56 41 16 C37.04 16 33.08 16 29 16 C29 29.2 29 42.4 29 56 C32.96 56 36.92 56 41 56 C41 61.28 41 66.56 41 72 C27.47 72 13.94 72 0 72 C0 66.72 0 61.44 0 56 C3.96 56 7.92 56 12 56 C12 42.8 12 29.6 12 16 C8.04 16 4.08 16 0 16 C0 10.72 0 5.44 0 0 Z " fill="#000000" transform="translate(274,220)"/>
</svg>
