<svg xmlns="http://www.w3.org/2000/svg" width="20" height="20" viewBox="0 0 20 20">
  <g id="Group_5359" data-name="Group 5359" transform="translate(-2 -2)">
    <path id="Path_1711" data-name="Path 1711" d="M7.25,6a.75.75,0,0,0-.75.75v7.5a.75.75,0,0,0,1.5,0V6.75A.75.75,0,0,0,7.25,6ZM12,6a.75.75,0,0,0-.75.75v4.5a.75.75,0,0,0,1.5,0V6.75A.75.75,0,0,0,12,6Zm4,.75a.75.75,0,0,1,1.5,0v9.5a.75.75,0,0,1-1.5,0Z"/>
    <path id="Path_1712" data-name="Path 1712" d="M3.75,2h16.5A1.751,1.751,0,0,1,22,3.75v16.5A1.75,1.75,0,0,1,20.25,22H3.75A1.75,1.75,0,0,1,2,20.25V3.75A1.751,1.751,0,0,1,3.75,2ZM3.5,3.75v16.5a.25.25,0,0,0,.25.25h16.5a.25.25,0,0,0,.25-.25V3.75a.25.25,0,0,0-.25-.25H3.75a.25.25,0,0,0-.25.25Z" fill="#192537"/>
  </g>
</svg>
