<svg xmlns="http://www.w3.org/2000/svg" xmlns:xlink="http://www.w3.org/1999/xlink" width="23.992" height="24" viewBox="0 0 23.992 24">
  <defs>
    <clipPath id="clip-path">
      <path id="Path_712" data-name="Path 712" d="M12.788,24H11.194c-.293-.036-.586-.067-.878-.11a11.577,11.577,0,0,1-6.149-2.8A11.755,11.755,0,0,1,.109,10.328,11.1,11.1,0,0,1,2.881,4.194,11.7,11.7,0,0,1,14.255.217,11.5,11.5,0,0,1,21.515,4.7a11.5,11.5,0,0,1,2.291,5.212c.073.429.124.862.185,1.293v1.594c-.015.076-.036.151-.046.227-.056.417-.087.838-.167,1.25a11.8,11.8,0,0,1-3.615,6.513,11.655,11.655,0,0,1-6.084,3.03c-.428.074-.861.124-1.291.185m7.2-5.112A10.568,10.568,0,1,0,3.864,5.221a10.48,10.48,0,0,0,.128,13.645,8.338,8.338,0,0,1,5.146-5.7,5.057,5.057,0,1,1,5.707.005,8.3,8.3,0,0,1,5.141,5.717m-7.724,3.7c.321-.033.923-.062,1.514-.162a10.332,10.332,0,0,0,4.862-2.207.345.345,0,0,0,.1-.266,6.507,6.507,0,0,0-1.512-3.416,6.645,6.645,0,0,0-4.621-2.423A6.579,6.579,0,0,0,7.981,15.4a6.66,6.66,0,0,0-2.743,4.562.317.317,0,0,0,.094.248,10.752,10.752,0,0,0,6.931,2.376m3.369-13.6A3.641,3.641,0,1,0,12,12.618a3.664,3.664,0,0,0,3.636-3.631" transform="translate(-20357.736 -5309.742)" fill="#fff" stroke="#edeeef" stroke-width="0.8"/>
    </clipPath>
  </defs>
  <g id="Mask_Group_12" data-name="Mask Group 12" transform="translate(20357.737 5309.742)" clip-path="url(#clip-path)">
    <circle id="NoPath_-_Copy_3_" data-name="NoPath - Copy (3)" cx="10" cy="10" r="10" transform="translate(-20355.74 -5307.742)" fill="#fff"/>
  </g>
</svg>
