<?xml version="1.0" encoding="UTF-8"?>
<svg version="1.1" xmlns="http://www.w3.org/2000/svg" width="513" height="513">
<path d="M0 0 C0.81752747 -0.00067474 1.63505493 -0.00134949 2.47735596 -0.00204468 C24.33052361 0.02648009 45.10164069 2.99874825 66.3125 8.25 C67.05483887 8.43256348 67.79717773 8.61512695 68.56201172 8.80322266 C101.28636362 17.08177279 131.88321021 33.45996123 158.3125 54.25 C159.18777344 54.93191406 160.06304687 55.61382812 160.96484375 56.31640625 C213.42379757 98.14491127 247.31239758 159.65098221 255.3125 226.25 C255.4067627 227.02359863 255.50102539 227.79719727 255.59814453 228.59423828 C256.5471183 237.50168974 256.55601369 246.42686342 256.5625 255.375 C256.56351212 256.63438889 256.56351212 256.63438889 256.56454468 257.91921997 C256.54638494 272.20788204 255.77810324 286.14929588 253.3125 300.25 C253.15152832 301.1869873 252.99055664 302.12397461 252.82470703 303.08935547 C248.65080019 326.44479001 240.79585526 348.9978402 230.3125 370.25 C229.77955322 371.34248047 229.77955322 371.34248047 229.23583984 372.45703125 C219.64422034 391.92972929 207.09505029 410.02234032 192.39453125 425.984375 C190.4880956 428.05892036 188.6448439 430.17265931 186.8125 432.3125 C180.46726388 439.56004033 173.64078115 445.99128362 166.1171875 452.00390625 C164.29039738 453.46686491 162.48183051 454.95296955 160.6953125 456.46484375 C116.61054546 493.68180583 58.31529505 512.45863346 1.125 512.5 C0.28379608 512.50067474 -0.55740784 512.50134949 -1.42410278 512.50204468 C-58.18013253 512.42999448 -113.05777401 493.35702485 -157.6875 458.25 C-158.56277344 457.56808594 -159.43804687 456.88617188 -160.33984375 456.18359375 C-213.27735243 413.97350974 -246.6684664 352.35239032 -254.6875 285.25 C-254.7817627 284.54029053 -254.87602539 283.83058105 -254.97314453 283.09936523 C-255.99977725 274.49787269 -255.93126159 265.83752587 -255.9375 257.1875 C-255.93851212 255.92486328 -255.93851212 255.92486328 -255.93954468 254.63671875 C-255.91160453 232.61048226 -253.3548472 211.55846729 -247.6875 190.25 C-247.44016113 189.31978027 -247.19282227 188.38956055 -246.93798828 187.43115234 C-236.59300401 149.4346031 -217.39792912 114.46809998 -190.7421875 85.48828125 C-188.80647397 83.37960473 -186.92930024 81.23213672 -185.0625 79.0625 C-161.34051803 51.90492064 -128.73915957 31.88599375 -95.6875 18.25 C-94.93887695 17.93724121 -94.19025391 17.62448242 -93.41894531 17.30224609 C-72.880688 8.84611248 -50.74027111 3.68682288 -28.6875 1.25 C-27.90286377 1.1571875 -27.11822754 1.064375 -26.30981445 0.96875 C-17.558249 0.03958578 -8.79076435 0.00654917 0 0 Z " fill="#45C0E9" transform="translate(256.6875,0.75)"/>
<path d="M0 0 C0.495 0.495 0.99 0.99 1.5 1.5 C4.05027949 3.35838329 4.05027949 3.35838329 7.73046875 2.7109375 C11.2622134 2.64831507 12.88520882 3.28092821 15.51953125 5.6328125 C16.63829019 6.77660845 17.73579838 7.94152868 18.8125 9.125 C19.37130859 9.69476563 19.93011719 10.26453125 20.50585938 10.8515625 C24.44711294 14.98541606 27.646067 18.96207508 28.328125 24.81640625 C28.30234375 25.72261719 28.2765625 26.62882812 28.25 27.5625 C28.23453125 28.47128906 28.2190625 29.38007812 28.203125 30.31640625 C28 33 28 33 27.5 35.20703125 C25.57442736 45.96315968 26.35021654 57.89141771 28.4375 68.5625 C30.57593738 79.70919799 30.51252463 91.00355817 30.70874023 102.31469727 C30.73542218 103.84782062 30.76219542 105.38094238 30.7890625 106.9140625 C30.80177689 107.66064621 30.81449127 108.40722992 30.82759094 109.17643738 C30.98428679 117.13158714 31.46896808 125.0622711 32 133 C33.97967955 132.64320839 33.97967955 132.64320839 36 132 C36.28875 131.38125 36.5775 130.7625 36.875 130.125 C38 128 38 128 40.625 126.75 C44.53795705 124.72105931 46.91895616 122.24385348 49.94921875 119.09375 C51.79685069 117.20740577 53.68575047 115.46939749 55.6875 113.75 C59.44715713 110.51355559 63.10536539 107.17709087 66.75 103.8125 C67.30518311 103.30106445 67.86036621 102.78962891 68.43237305 102.26269531 C72.61821504 98.39144027 76.58944738 94.54856551 80.125 90.0625 C85.63899869 83.72199187 93.69103729 80.06962393 102 79 C105.34171384 78.86076192 108.65820131 78.87673693 112 79 C112.33 80.65 112.66 82.3 113 84 C113.598125 83.67 114.19625 83.34 114.8125 83 C117 82 117 82 120 82 C120 83.65 120 85.3 120 87 C123.96 87 127.92 87 132 87 C132 88.65 132 90.3 132 92 C133.134375 91.979375 134.26875 91.95875 135.4375 91.9375 C139 92 139 92 140 93 C140.28796978 96.49220492 140.44903734 99.98467449 140.62109375 103.484375 C140.82486416 106.92968044 140.82486416 106.92968044 142.09765625 109.640625 C143.25304145 112.6616322 143.02316574 113.9396382 142 117 C140.73489155 119.38902176 139.45916808 121.61266486 138 123.875 C137.60063232 124.49705322 137.20126465 125.11910645 136.78979492 125.76000977 C133.76930807 130.26856102 130.53289496 133.40882877 126.04296875 136.5 C124.00731522 137.99462898 122.67005526 139.45416259 121.125 141.4375 C118.65172739 144.52052681 115.9373612 146.56779698 112.6875 148.8125 C107.80851719 152.23240946 104.06502896 155.97935593 100.18359375 160.4765625 C98.00222935 162.99742368 95.76063418 165.42185594 93.4375 167.8125 C92.44556641 168.84310547 92.44556641 168.84310547 91.43359375 169.89453125 C89.3724043 171.67780751 87.49272162 172.96353655 85.171875 174.3515625 C80.8830187 176.95385166 77.40449085 180.08263373 73.8125 183.5625 C69.98968321 187.21819912 66.19748349 190.76691008 62 194 C62.37189052 196.50082897 62.71869988 197.73196216 64.57421875 199.5 C65.27160156 199.995 65.96898437 200.49 66.6875 201 C75.42838127 207.48923026 83.87062456 214.58182901 91.4296875 222.42578125 C93.2125956 224.21312444 95.08721375 225.85267648 97 227.5 C99.60647609 229.7455794 102.08934521 232.04551512 104.5 234.5 C108.16986261 238.2108209 111.99961305 241.64849471 116 245 C116.53157715 245.44537109 117.0631543 245.89074219 117.61083984 246.34960938 C128.34305691 255.28476287 139.30644793 263.02656373 152 269 C151.34 272.63 150.68 276.26 150 280 C148.68 279.67 147.36 279.34 146 279 C146.99 280.485 146.99 280.485 148 282 C147.625 285.6875 147.625 285.6875 147 289 C145.02 289 143.04 289 141 289 C141 289.66 141 290.32 141 291 C137.32148727 294.76366349 133.28383123 298.46725439 127.8125 298.5625 C124 298 124 298 121.1875 297 C117.92960378 295.97791491 115.81356573 295.98959629 112.4375 296.125 C108.66065987 296.19684207 107.29685053 296.16962888 103.9375 294.25 C102.17271627 292.20057373 101.16271844 290.40848821 100 288 C99.01 287.67 98.02 287.34 97 287 C97 287.99 97 288.98 97 290 C95.66358148 289.67925956 94.33130115 289.34135927 93 289 C91.906875 288.835 90.81375 288.67 89.6875 288.5 C85.76678058 286.90513108 85.14019769 286.17919526 82.8125 282.875 C79.18803306 277.74102967 74.7851231 274.88912647 69.4765625 271.62890625 C67 270 67 270 66 268 C65.27296875 267.90976562 64.5459375 267.81953125 63.796875 267.7265625 C59.90277687 266.71496718 57.89295259 264.23547601 55.25 261.375 C45.26825735 250.91378965 45.26825735 250.91378965 32 246 C32.75216797 246.804375 32.75216797 246.804375 33.51953125 247.625 C35.46018591 250.73824019 35.12536562 252.39092583 34.6875 256 C34.19945411 260.19824421 34.02230095 264.20600201 34.14453125 268.421875 C34.19139691 276.22713687 32.57956398 283.65077776 31 291.25 C30.70988069 292.68858936 30.42081149 294.12739091 30.1328125 295.56640625 C29.43393042 299.04679397 28.72099943 302.524118 28 306 C28.66 306 29.32 306 30 306 C30 306.99 30 307.98 30 309 C29.34 309 28.68 309 28 309 C27.896875 309.78375 27.79375 310.5675 27.6875 311.375 C27 314 27 314 24 316 C21.69536966 316.51761751 19.39258703 316.88193238 17.05859375 317.2421875 C14.81149348 317.82891211 14.81149348 317.82891211 13.72265625 320.0703125 C13.48417969 320.70710938 13.24570313 321.34390625 13 322 C11.68 322 10.36 322 9 322 C8.505 320.515 8.505 320.515 8 319 C5.58354218 318.83312552 5.58354218 318.83312552 3 319 C2.34 319.66 1.68 320.32 1 321 C-1.25 321.5625 -1.25 321.5625 -4 321 C-5.34375 319.50390625 -5.34375 319.50390625 -6.75 317.625 C-9.72128499 313.83509567 -11.91200721 313.23560567 -16.5546875 312.51953125 C-22.15596639 311.32948318 -28.27296619 308.44289701 -32 304 C-33.125 301 -33.125 301 -34 298 C-34.495 296.515 -34.495 296.515 -35 295 C-34.01 295 -33.02 295 -32 295 C-32.33 294.34 -32.66 293.68 -33 293 C-33.09456751 291.58086237 -33.12794115 290.15739168 -33.12939453 288.73510742 C-33.13406235 287.4025592 -33.13406235 287.4025592 -33.13882446 286.04309082 C-33.13584854 284.5889679 -33.13584854 284.5889679 -33.1328125 283.10546875 C-33.13413177 282.09939575 -33.13545105 281.09332275 -33.1368103 280.0567627 C-33.13873552 276.76697764 -33.13236692 273.4772765 -33.125 270.1875 C-33.12367065 268.50692001 -33.12367065 268.50692001 -33.12231445 266.79238892 C-33.10943673 252.9789306 -32.94661937 239.20179436 -32.36035156 225.39990234 C-31.96213832 215.5361313 -31.88597639 205.68289305 -31.875 195.8125 C-31.87250244 195.04110687 -31.87000488 194.26971375 -31.86743164 193.47494507 C-31.86149083 191.26059561 -31.86304391 189.04638254 -31.8671875 186.83203125 C-31.86831543 185.56077393 -31.86944336 184.2895166 -31.87060547 182.97973633 C-31.99408356 179.18196972 -32.33474113 175.47519583 -32.73733521 171.70033264 C-33.21744311 166.76457016 -33.45489252 161.81451663 -33.71875 156.86328125 C-33.8125444 155.1435762 -33.8125444 155.1435762 -33.90823364 153.38912964 C-34.1082877 149.69706424 -34.30438407 146.00480299 -34.5 142.3125 C-34.56725281 141.0605484 -34.63450562 139.8085968 -34.70379639 138.51870728 C-35.56245403 122.49835571 -36.34907185 106.48475116 -36.70898438 90.44458008 C-36.73541016 89.34267334 -36.76183594 88.2407666 -36.7890625 87.10546875 C-36.80662598 86.17887451 -36.82418945 85.25228027 -36.84228516 84.29760742 C-36.91471365 81.83832954 -36.91471365 81.83832954 -38 79 C-38.20684408 76.88505522 -38.36667504 74.76538022 -38.5 72.64453125 C-38.5825 71.38189453 -38.665 70.11925781 -38.75 68.81835938 C-38.83364818 67.4830926 -38.91697916 66.14780592 -39 64.8125 C-39.55703314 55.08757858 -39.55703314 55.08757858 -40.5546875 45.40234375 C-41.1878404 40.56483344 -41.11760884 35.86769909 -41 31 C-41.01804688 30.04996094 -41.03609375 29.09992188 -41.0546875 28.12109375 C-40.88463426 18.9989523 -37.55631748 12.06659169 -32 5 C-24.64884109 -1.46788012 -12.01154688 0.70448094 -2.88256836 1.05004883 C-0.98632219 1.21567717 -0.98632219 1.21567717 0 0 Z " fill="#FDFEFE" transform="translate(220,90)"/>
<path d="M0 0 C2.97 0.495 2.97 0.495 6 1 C5.01 1.495 5.01 1.495 4 2 C4 2.99 4 3.98 4 5 C2.0625 4.625 2.0625 4.625 0 4 C-0.33 3.34 -0.66 2.68 -1 2 C-0.67 1.34 -0.34 0.68 0 0 Z " fill="#C2EAF7" transform="translate(313,375)"/>
</svg>
